%TF.GenerationSoftware,KiCad,Pcbnew,9.0.4*%
%TF.CreationDate,2025-10-10T13:21:22-04:00*%
%TF.ProjectId,PhotonPlayV1,50686f74-6f6e-4506-9c61-7956312e6b69,rev?*%
%TF.SameCoordinates,Original*%
%TF.FileFunction,Copper,L2,Bot*%
%TF.FilePolarity,Positive*%
%FSLAX46Y46*%
G04 Gerber Fmt 4.6, Leading zero omitted, Abs format (unit mm)*
G04 Created by KiCad (PCBNEW 9.0.4) date 2025-10-10 13:21:22*
%MOMM*%
%LPD*%
G01*
G04 APERTURE LIST*
G04 Aperture macros list*
%AMRoundRect*
0 Rectangle with rounded corners*
0 $1 Rounding radius*
0 $2 $3 $4 $5 $6 $7 $8 $9 X,Y pos of 4 corners*
0 Add a 4 corners polygon primitive as box body*
4,1,4,$2,$3,$4,$5,$6,$7,$8,$9,$2,$3,0*
0 Add four circle primitives for the rounded corners*
1,1,$1+$1,$2,$3*
1,1,$1+$1,$4,$5*
1,1,$1+$1,$6,$7*
1,1,$1+$1,$8,$9*
0 Add four rect primitives between the rounded corners*
20,1,$1+$1,$2,$3,$4,$5,0*
20,1,$1+$1,$4,$5,$6,$7,0*
20,1,$1+$1,$6,$7,$8,$9,0*
20,1,$1+$1,$8,$9,$2,$3,0*%
G04 Aperture macros list end*
%TA.AperFunction,ComponentPad*%
%ADD10C,1.400000*%
%TD*%
%TA.AperFunction,ComponentPad*%
%ADD11RoundRect,0.250000X-0.550000X-0.550000X0.550000X-0.550000X0.550000X0.550000X-0.550000X0.550000X0*%
%TD*%
%TA.AperFunction,ComponentPad*%
%ADD12C,1.600000*%
%TD*%
%TA.AperFunction,ComponentPad*%
%ADD13C,1.700000*%
%TD*%
%TA.AperFunction,ComponentPad*%
%ADD14R,1.500000X1.500000*%
%TD*%
%TA.AperFunction,ComponentPad*%
%ADD15C,1.500000*%
%TD*%
%TA.AperFunction,ComponentPad*%
%ADD16R,1.905000X2.000000*%
%TD*%
%TA.AperFunction,ComponentPad*%
%ADD17O,1.905000X2.000000*%
%TD*%
%TA.AperFunction,Conductor*%
%ADD18C,0.750000*%
%TD*%
G04 APERTURE END LIST*
D10*
%TO.P,${VALUE},1*%
%TO.N,/Vreg*%
X136525000Y-91440000D03*
%TO.P,${VALUE},2*%
%TO.N,Net-(LM317-VO)*%
X144145000Y-91440000D03*
%TD*%
%TO.P,Rx3,1*%
%TO.N,/X-*%
X154305000Y-94615000D03*
%TO.P,Rx3,2*%
%TO.N,Net-(OpAmp1A--)*%
X161925000Y-94615000D03*
%TD*%
%TO.P,Ry2,1*%
%TO.N,Net-(OpAmp1D--)*%
X174625000Y-98425000D03*
%TO.P,Ry2,2*%
%TO.N,/Y+*%
X182245000Y-98425000D03*
%TD*%
%TO.P,Rx1,1*%
%TO.N,/X+*%
X154305000Y-102235000D03*
%TO.P,Rx1,2*%
%TO.N,Net-(OpAmp1B--)*%
X161925000Y-102235000D03*
%TD*%
D11*
%TO.P,${VALUE},1*%
%TO.N,/X-*%
X164470000Y-93980000D03*
D12*
%TO.P,${VALUE},2,-*%
%TO.N,Net-(OpAmp1A--)*%
X164470000Y-96520000D03*
%TO.P,${VALUE},3,+*%
%TO.N,GND*%
X164470000Y-99060000D03*
%TO.P,${VALUE},4,V+*%
%TO.N,+15V*%
X164470000Y-101600000D03*
%TO.P,${VALUE},5,+*%
%TO.N,/X_In*%
X164470000Y-104140000D03*
%TO.P,${VALUE},6,-*%
%TO.N,Net-(OpAmp1B--)*%
X164470000Y-106680000D03*
%TO.P,${VALUE},7*%
%TO.N,/X+*%
X164470000Y-109220000D03*
%TO.P,${VALUE},8*%
%TO.N,/Y+*%
X172090000Y-109220000D03*
%TO.P,${VALUE},9,-*%
%TO.N,Net-(OpAmp1C--)*%
X172090000Y-106680000D03*
%TO.P,${VALUE},10,+*%
%TO.N,/Y_In*%
X172090000Y-104140000D03*
%TO.P,${VALUE},11,V-*%
%TO.N,/-15V*%
X172090000Y-101600000D03*
%TO.P,${VALUE},12,+*%
%TO.N,GND*%
X172090000Y-99060000D03*
%TO.P,${VALUE},13,-*%
%TO.N,Net-(OpAmp1D--)*%
X172090000Y-96520000D03*
%TO.P,${VALUE},14*%
%TO.N,/Y-*%
X172090000Y-93980000D03*
%TD*%
D13*
%TO.P,-15V1,1,Pin_1*%
%TO.N,/-15V*%
X172715000Y-90170000D03*
%TO.P,-15V1,2,Pin_2*%
X172715000Y-87630000D03*
%TD*%
%TO.P,PotY1,1,1*%
%TO.N,/+5V*%
X178435000Y-115570000D03*
%TO.P,PotY1,2,2*%
%TO.N,Net-(OpAmp1C--)*%
X180975000Y-105410000D03*
%TO.P,PotY1,3,3*%
%TO.N,unconnected-(PotY1-Pad3)*%
X183515000Y-115570000D03*
%TD*%
D10*
%TO.P,Rdiv1,1*%
%TO.N,/+5V*%
X161925000Y-113665000D03*
%TO.P,Rdiv1,2*%
%TO.N,+15V*%
X161925000Y-106045000D03*
%TD*%
D14*
%TO.P,${VALUE},1,D*%
%TO.N,/Vreg*%
X136510000Y-101415000D03*
D15*
%TO.P,${VALUE},2,G*%
%TO.N,/Gate*%
X139050000Y-101415000D03*
%TO.P,${VALUE},3,S*%
%TO.N,GND*%
X141590000Y-101415000D03*
%TD*%
D13*
%TO.P,XY_Input1,1,Pin_1*%
%TO.N,/Y_In*%
X170810000Y-113665000D03*
%TO.P,XY_Input1,2,Pin_2*%
%TO.N,GND*%
X168270000Y-113665000D03*
%TO.P,XY_Input1,3,Pin_3*%
%TO.N,/X_In*%
X165730000Y-113665000D03*
%TD*%
%TO.P,X_Output1,1,Pin_1*%
%TO.N,/X+*%
X151765000Y-99695000D03*
%TO.P,X_Output1,2,Pin_2*%
%TO.N,/X-*%
X151765000Y-97155000D03*
%TO.P,X_Output1,3,Pin_3*%
%TO.N,GND*%
X151765000Y-94615000D03*
%TD*%
D10*
%TO.P,Ry1,1*%
%TO.N,/Y+*%
X182245000Y-102235000D03*
%TO.P,Ry1,2*%
%TO.N,Net-(OpAmp1C--)*%
X174625000Y-102235000D03*
%TD*%
D13*
%TO.P,LaserEn1,1,1*%
%TO.N,Net-(LaserEn1-Pad1)*%
X141605000Y-115570000D03*
%TD*%
D10*
%TO.P,Rt2,1*%
%TO.N,/Gate*%
X141600000Y-105410000D03*
%TO.P,Rt2,2*%
%TO.N,GND*%
X141600000Y-113030000D03*
%TD*%
D13*
%TO.P,GND2,1,Pin_1*%
%TO.N,GND*%
X154940000Y-90170000D03*
%TO.P,GND2,2,Pin_2*%
X154940000Y-87630000D03*
%TD*%
D10*
%TO.P,Rdiv2,1*%
%TO.N,GND*%
X174625000Y-106045000D03*
%TO.P,Rdiv2,2*%
%TO.N,/+5V*%
X174625000Y-113665000D03*
%TD*%
D13*
%TO.P,+15V1,1,Pin_1*%
%TO.N,+15V*%
X163825000Y-87630000D03*
%TO.P,+15V1,2,Pin_2*%
X163825000Y-90170000D03*
%TD*%
%TO.P,PotX1,1,1*%
%TO.N,unconnected-(PotX1-Pad1)*%
X153035000Y-115570000D03*
%TO.P,PotX1,2,2*%
%TO.N,Net-(OpAmp1B--)*%
X155575000Y-105410000D03*
%TO.P,PotX1,3,3*%
%TO.N,/+5V*%
X158115000Y-115570000D03*
%TD*%
D10*
%TO.P,Rx2,1*%
%TO.N,Net-(OpAmp1A--)*%
X161925000Y-98425000D03*
%TO.P,Rx2,2*%
%TO.N,/X+*%
X154305000Y-98425000D03*
%TD*%
D13*
%TO.P,Y_Output1,1,Pin_1*%
%TO.N,/Y-*%
X184785000Y-94615000D03*
%TO.P,Y_Output1,2,Pin_2*%
%TO.N,GND*%
X184785000Y-97155000D03*
%TO.P,Y_Output1,3,Pin_3*%
%TO.N,/Y+*%
X184785000Y-99695000D03*
%TD*%
%TO.P,Laser1,1,Pin_1*%
%TO.N,GND*%
X142875000Y-87630000D03*
%TO.P,Laser1,2,Pin_2*%
%TO.N,/Vreg*%
X140335000Y-87630000D03*
%TD*%
D10*
%TO.P,C,1*%
%TO.N,+15V*%
X145410000Y-93980000D03*
%TO.P,C,2*%
%TO.N,GND*%
X145410000Y-101600000D03*
%TD*%
%TO.P,Rt1,1*%
%TO.N,/Gate*%
X139060000Y-105410000D03*
%TO.P,Rt1,2*%
%TO.N,Net-(LaserEn1-Pad1)*%
X139060000Y-113030000D03*
%TD*%
D16*
%TO.P,LM317,1,ADJ*%
%TO.N,/Vreg*%
X136520000Y-96200000D03*
D17*
%TO.P,LM317,2,VO*%
%TO.N,Net-(LM317-VO)*%
X139060000Y-96200000D03*
%TO.P,LM317,3,VI*%
%TO.N,+15V*%
X141600000Y-96200000D03*
%TD*%
D10*
%TO.P,Ry3,1*%
%TO.N,/Y-*%
X182245000Y-94615000D03*
%TO.P,Ry3,2*%
%TO.N,Net-(OpAmp1D--)*%
X174625000Y-94615000D03*
%TD*%
D13*
%TO.P,GND1,1,Pin_1*%
%TO.N,GND*%
X181610000Y-87630000D03*
%TO.P,GND1,2,Pin_2*%
X181610000Y-90170000D03*
%TD*%
D18*
%TO.N,Net-(OpAmp1B--)*%
X161925000Y-104135000D02*
X161925000Y-102235000D01*
X164470000Y-106680000D02*
X161925000Y-104135000D01*
%TD*%
%TA.AperFunction,Conductor*%
%TO.N,GND*%
G36*
X188672539Y-83705185D02*
G01*
X188718294Y-83757989D01*
X188729500Y-83809500D01*
X188729500Y-119390500D01*
X188709815Y-119457539D01*
X188657011Y-119503294D01*
X188605500Y-119514500D01*
X132704500Y-119514500D01*
X132637461Y-119494815D01*
X132591706Y-119442011D01*
X132580500Y-119390500D01*
X132580500Y-116714038D01*
X133654500Y-116714038D01*
X133654500Y-116965961D01*
X133693910Y-117214785D01*
X133771760Y-117454383D01*
X133886132Y-117678848D01*
X134034201Y-117882649D01*
X134034205Y-117882654D01*
X134212345Y-118060794D01*
X134212350Y-118060798D01*
X134390117Y-118189952D01*
X134416155Y-118208870D01*
X134559184Y-118281747D01*
X134640616Y-118323239D01*
X134640618Y-118323239D01*
X134640621Y-118323241D01*
X134880215Y-118401090D01*
X135129038Y-118440500D01*
X135129039Y-118440500D01*
X135380961Y-118440500D01*
X135380962Y-118440500D01*
X135629785Y-118401090D01*
X135869379Y-118323241D01*
X136093845Y-118208870D01*
X136297656Y-118060793D01*
X136475793Y-117882656D01*
X136623870Y-117678845D01*
X136738241Y-117454379D01*
X136816090Y-117214785D01*
X136855500Y-116965962D01*
X136855500Y-116714038D01*
X136816090Y-116465215D01*
X136738241Y-116225621D01*
X136738239Y-116225618D01*
X136738239Y-116225616D01*
X136696747Y-116144184D01*
X136623870Y-116001155D01*
X136540379Y-115886239D01*
X136475798Y-115797350D01*
X136475794Y-115797345D01*
X136297654Y-115619205D01*
X136297649Y-115619201D01*
X136215008Y-115559159D01*
X136093848Y-115471132D01*
X136093847Y-115471131D01*
X136093845Y-115471130D01*
X136079288Y-115463713D01*
X140254500Y-115463713D01*
X140254500Y-115676286D01*
X140273674Y-115797350D01*
X140287754Y-115886243D01*
X140325091Y-116001155D01*
X140353444Y-116088414D01*
X140449951Y-116277820D01*
X140574890Y-116449786D01*
X140725213Y-116600109D01*
X140897179Y-116725048D01*
X140897181Y-116725049D01*
X140897184Y-116725051D01*
X141086588Y-116821557D01*
X141288757Y-116887246D01*
X141498713Y-116920500D01*
X141498714Y-116920500D01*
X141711286Y-116920500D01*
X141711287Y-116920500D01*
X141921243Y-116887246D01*
X142123412Y-116821557D01*
X142312816Y-116725051D01*
X142334789Y-116709086D01*
X142484786Y-116600109D01*
X142484788Y-116600106D01*
X142484792Y-116600104D01*
X142635104Y-116449792D01*
X142635106Y-116449788D01*
X142635109Y-116449786D01*
X142760048Y-116277820D01*
X142760047Y-116277820D01*
X142760051Y-116277816D01*
X142856557Y-116088412D01*
X142922246Y-115886243D01*
X142955500Y-115676287D01*
X142955500Y-115463713D01*
X151684500Y-115463713D01*
X151684500Y-115676286D01*
X151703674Y-115797350D01*
X151717754Y-115886243D01*
X151755091Y-116001155D01*
X151783444Y-116088414D01*
X151879951Y-116277820D01*
X152004890Y-116449786D01*
X152155213Y-116600109D01*
X152327179Y-116725048D01*
X152327181Y-116725049D01*
X152327184Y-116725051D01*
X152516588Y-116821557D01*
X152718757Y-116887246D01*
X152928713Y-116920500D01*
X152928714Y-116920500D01*
X153141286Y-116920500D01*
X153141287Y-116920500D01*
X153351243Y-116887246D01*
X153553412Y-116821557D01*
X153742816Y-116725051D01*
X153764789Y-116709086D01*
X153914786Y-116600109D01*
X153914788Y-116600106D01*
X153914792Y-116600104D01*
X154065104Y-116449792D01*
X154065106Y-116449788D01*
X154065109Y-116449786D01*
X154190048Y-116277820D01*
X154190047Y-116277820D01*
X154190051Y-116277816D01*
X154286557Y-116088412D01*
X154352246Y-115886243D01*
X154385500Y-115676287D01*
X154385500Y-115463713D01*
X156764500Y-115463713D01*
X156764500Y-115676286D01*
X156783674Y-115797350D01*
X156797754Y-115886243D01*
X156835091Y-116001155D01*
X156863444Y-116088414D01*
X156959951Y-116277820D01*
X157084890Y-116449786D01*
X157235213Y-116600109D01*
X157407179Y-116725048D01*
X157407181Y-116725049D01*
X157407184Y-116725051D01*
X157596588Y-116821557D01*
X157798757Y-116887246D01*
X158008713Y-116920500D01*
X158008714Y-116920500D01*
X158221286Y-116920500D01*
X158221287Y-116920500D01*
X158431243Y-116887246D01*
X158633412Y-116821557D01*
X158822816Y-116725051D01*
X158844789Y-116709086D01*
X158994786Y-116600109D01*
X158994788Y-116600106D01*
X158994792Y-116600104D01*
X159145104Y-116449792D01*
X159145106Y-116449788D01*
X159145109Y-116449786D01*
X159270048Y-116277820D01*
X159270047Y-116277820D01*
X159270051Y-116277816D01*
X159366557Y-116088412D01*
X159432246Y-115886243D01*
X159465500Y-115676287D01*
X159465500Y-115463713D01*
X177084500Y-115463713D01*
X177084500Y-115676286D01*
X177103674Y-115797350D01*
X177117754Y-115886243D01*
X177155091Y-116001155D01*
X177183444Y-116088414D01*
X177279951Y-116277820D01*
X177404890Y-116449786D01*
X177555213Y-116600109D01*
X177727179Y-116725048D01*
X177727181Y-116725049D01*
X177727184Y-116725051D01*
X177916588Y-116821557D01*
X178118757Y-116887246D01*
X178328713Y-116920500D01*
X178328714Y-116920500D01*
X178541286Y-116920500D01*
X178541287Y-116920500D01*
X178751243Y-116887246D01*
X178953412Y-116821557D01*
X179142816Y-116725051D01*
X179164789Y-116709086D01*
X179314786Y-116600109D01*
X179314788Y-116600106D01*
X179314792Y-116600104D01*
X179465104Y-116449792D01*
X179465106Y-116449788D01*
X179465109Y-116449786D01*
X179590048Y-116277820D01*
X179590047Y-116277820D01*
X179590051Y-116277816D01*
X179686557Y-116088412D01*
X179752246Y-115886243D01*
X179785500Y-115676287D01*
X179785500Y-115463713D01*
X182164500Y-115463713D01*
X182164500Y-115676286D01*
X182183674Y-115797350D01*
X182197754Y-115886243D01*
X182235091Y-116001155D01*
X182263444Y-116088414D01*
X182359951Y-116277820D01*
X182484890Y-116449786D01*
X182635213Y-116600109D01*
X182807179Y-116725048D01*
X182807181Y-116725049D01*
X182807184Y-116725051D01*
X182996588Y-116821557D01*
X183198757Y-116887246D01*
X183408713Y-116920500D01*
X183408714Y-116920500D01*
X183621286Y-116920500D01*
X183621287Y-116920500D01*
X183831243Y-116887246D01*
X184033412Y-116821557D01*
X184222816Y-116725051D01*
X184244789Y-116709086D01*
X184394786Y-116600109D01*
X184394788Y-116600106D01*
X184394792Y-116600104D01*
X184545104Y-116449792D01*
X184545106Y-116449788D01*
X184545109Y-116449786D01*
X184670048Y-116277820D01*
X184670047Y-116277820D01*
X184670051Y-116277816D01*
X184766557Y-116088412D01*
X184832246Y-115886243D01*
X184865500Y-115676287D01*
X184865500Y-115463713D01*
X184832246Y-115253757D01*
X184766557Y-115051588D01*
X184670051Y-114862184D01*
X184670049Y-114862181D01*
X184670048Y-114862179D01*
X184545109Y-114690213D01*
X184394786Y-114539890D01*
X184222820Y-114414951D01*
X184033414Y-114318444D01*
X184033413Y-114318443D01*
X184033412Y-114318443D01*
X183831243Y-114252754D01*
X183831241Y-114252753D01*
X183831240Y-114252753D01*
X183669957Y-114227208D01*
X183621287Y-114219500D01*
X183408713Y-114219500D01*
X183360042Y-114227208D01*
X183198760Y-114252753D01*
X182996585Y-114318444D01*
X182807179Y-114414951D01*
X182635213Y-114539890D01*
X182484890Y-114690213D01*
X182359951Y-114862179D01*
X182263444Y-115051585D01*
X182197753Y-115253760D01*
X182164500Y-115463713D01*
X179785500Y-115463713D01*
X179752246Y-115253757D01*
X179686557Y-115051588D01*
X179590051Y-114862184D01*
X179590049Y-114862181D01*
X179590048Y-114862179D01*
X179465109Y-114690213D01*
X179314786Y-114539890D01*
X179142820Y-114414951D01*
X178953414Y-114318444D01*
X178953413Y-114318443D01*
X178953412Y-114318443D01*
X178751243Y-114252754D01*
X178751241Y-114252753D01*
X178751240Y-114252753D01*
X178589957Y-114227208D01*
X178541287Y-114219500D01*
X178328713Y-114219500D01*
X178280042Y-114227208D01*
X178118760Y-114252753D01*
X177916585Y-114318444D01*
X177727179Y-114414951D01*
X177555213Y-114539890D01*
X177404890Y-114690213D01*
X177279951Y-114862179D01*
X177183444Y-115051585D01*
X177117753Y-115253760D01*
X177084500Y-115463713D01*
X159465500Y-115463713D01*
X159432246Y-115253757D01*
X159366557Y-115051588D01*
X159270051Y-114862184D01*
X159270049Y-114862181D01*
X159270048Y-114862179D01*
X159145109Y-114690213D01*
X158994786Y-114539890D01*
X158822820Y-114414951D01*
X158633414Y-114318444D01*
X158633413Y-114318443D01*
X158633412Y-114318443D01*
X158431243Y-114252754D01*
X158431241Y-114252753D01*
X158431240Y-114252753D01*
X158269957Y-114227208D01*
X158221287Y-114219500D01*
X158008713Y-114219500D01*
X157960042Y-114227208D01*
X157798760Y-114252753D01*
X157596585Y-114318444D01*
X157407179Y-114414951D01*
X157235213Y-114539890D01*
X157084890Y-114690213D01*
X156959951Y-114862179D01*
X156863444Y-115051585D01*
X156797753Y-115253760D01*
X156764500Y-115463713D01*
X154385500Y-115463713D01*
X154352246Y-115253757D01*
X154286557Y-115051588D01*
X154190051Y-114862184D01*
X154190049Y-114862181D01*
X154190048Y-114862179D01*
X154065109Y-114690213D01*
X153914786Y-114539890D01*
X153742820Y-114414951D01*
X153553414Y-114318444D01*
X153553413Y-114318443D01*
X153553412Y-114318443D01*
X153351243Y-114252754D01*
X153351241Y-114252753D01*
X153351240Y-114252753D01*
X153189957Y-114227208D01*
X153141287Y-114219500D01*
X152928713Y-114219500D01*
X152880042Y-114227208D01*
X152718760Y-114252753D01*
X152516585Y-114318444D01*
X152327179Y-114414951D01*
X152155213Y-114539890D01*
X152004890Y-114690213D01*
X151879951Y-114862179D01*
X151783444Y-115051585D01*
X151717753Y-115253760D01*
X151684500Y-115463713D01*
X142955500Y-115463713D01*
X142922246Y-115253757D01*
X142856557Y-115051588D01*
X142760051Y-114862184D01*
X142760049Y-114862181D01*
X142760048Y-114862179D01*
X142635109Y-114690213D01*
X142484786Y-114539890D01*
X142312820Y-114414951D01*
X142135802Y-114324756D01*
X142085006Y-114276781D01*
X142068211Y-114208960D01*
X142090748Y-114142826D01*
X142135803Y-114103786D01*
X142228934Y-114056333D01*
X142228935Y-114056333D01*
X142254328Y-114037883D01*
X142254328Y-114037882D01*
X141600001Y-113383554D01*
X141600000Y-113383554D01*
X140945669Y-114037882D01*
X140945670Y-114037883D01*
X140971061Y-114056331D01*
X141069197Y-114106335D01*
X141119992Y-114154309D01*
X141136787Y-114222130D01*
X141114249Y-114288265D01*
X141069196Y-114327304D01*
X140897180Y-114414951D01*
X140725213Y-114539890D01*
X140574890Y-114690213D01*
X140449951Y-114862179D01*
X140353444Y-115051585D01*
X140287753Y-115253760D01*
X140254500Y-115463713D01*
X136079288Y-115463713D01*
X136023747Y-115435413D01*
X135869383Y-115356760D01*
X135629785Y-115278910D01*
X135470976Y-115253757D01*
X135380962Y-115239500D01*
X135129038Y-115239500D01*
X135039024Y-115253757D01*
X134880214Y-115278910D01*
X134640616Y-115356760D01*
X134416151Y-115471132D01*
X134212350Y-115619201D01*
X134212345Y-115619205D01*
X134034205Y-115797345D01*
X134034201Y-115797350D01*
X133886132Y-116001151D01*
X133771760Y-116225616D01*
X133693910Y-116465214D01*
X133654500Y-116714038D01*
X132580500Y-116714038D01*
X132580500Y-112935513D01*
X137859500Y-112935513D01*
X137859500Y-113124486D01*
X137889059Y-113311118D01*
X137947454Y-113490836D01*
X138033104Y-113658933D01*
X138033240Y-113659199D01*
X138144310Y-113812073D01*
X138277927Y-113945690D01*
X138430801Y-114056760D01*
X138510347Y-114097290D01*
X138599163Y-114142545D01*
X138599165Y-114142545D01*
X138599168Y-114142547D01*
X138668271Y-114165000D01*
X138778881Y-114200940D01*
X138965514Y-114230500D01*
X138965519Y-114230500D01*
X139154486Y-114230500D01*
X139341118Y-114200940D01*
X139520832Y-114142547D01*
X139689199Y-114056760D01*
X139842073Y-113945690D01*
X139975690Y-113812073D01*
X140086760Y-113659199D01*
X140172547Y-113490832D01*
X140212332Y-113368385D01*
X140251768Y-113310713D01*
X140316127Y-113283514D01*
X140384973Y-113295429D01*
X140436449Y-113342673D01*
X140448193Y-113368388D01*
X140487914Y-113490637D01*
X140573666Y-113658933D01*
X140592116Y-113684328D01*
X141246446Y-113030000D01*
X141246446Y-113029999D01*
X141200369Y-112983922D01*
X141250000Y-112983922D01*
X141250000Y-113076078D01*
X141273852Y-113165095D01*
X141319930Y-113244905D01*
X141385095Y-113310070D01*
X141464905Y-113356148D01*
X141553922Y-113380000D01*
X141646078Y-113380000D01*
X141735095Y-113356148D01*
X141814905Y-113310070D01*
X141880070Y-113244905D01*
X141926148Y-113165095D01*
X141950000Y-113076078D01*
X141950000Y-113029999D01*
X141953554Y-113029999D01*
X141953554Y-113030000D01*
X142607882Y-113684328D01*
X142607883Y-113684328D01*
X142626331Y-113658936D01*
X142671386Y-113570513D01*
X160724500Y-113570513D01*
X160724500Y-113759486D01*
X160754059Y-113946118D01*
X160812454Y-114125836D01*
X160877122Y-114252753D01*
X160898240Y-114294199D01*
X161009310Y-114447073D01*
X161142927Y-114580690D01*
X161295801Y-114691760D01*
X161375347Y-114732290D01*
X161464163Y-114777545D01*
X161464165Y-114777545D01*
X161464168Y-114777547D01*
X161560497Y-114808846D01*
X161643881Y-114835940D01*
X161830514Y-114865500D01*
X161830519Y-114865500D01*
X162019486Y-114865500D01*
X162206118Y-114835940D01*
X162385832Y-114777547D01*
X162554199Y-114691760D01*
X162707073Y-114580690D01*
X162840690Y-114447073D01*
X162951760Y-114294199D01*
X163037547Y-114125832D01*
X163095940Y-113946118D01*
X163096008Y-113945687D01*
X163125500Y-113759486D01*
X163125500Y-113570512D01*
X163125499Y-113570511D01*
X163123630Y-113558713D01*
X164379500Y-113558713D01*
X164379500Y-113771286D01*
X164407190Y-113946118D01*
X164412754Y-113981243D01*
X164465164Y-114142545D01*
X164478444Y-114183414D01*
X164574951Y-114372820D01*
X164699890Y-114544786D01*
X164850213Y-114695109D01*
X165022179Y-114820048D01*
X165022181Y-114820049D01*
X165022184Y-114820051D01*
X165211588Y-114916557D01*
X165413757Y-114982246D01*
X165623713Y-115015500D01*
X165623714Y-115015500D01*
X165836286Y-115015500D01*
X165836287Y-115015500D01*
X166046243Y-114982246D01*
X166248412Y-114916557D01*
X166437816Y-114820051D01*
X166496321Y-114777545D01*
X166609786Y-114695109D01*
X166609788Y-114695106D01*
X166609792Y-114695104D01*
X166760104Y-114544792D01*
X166760106Y-114544788D01*
X166760109Y-114544786D01*
X166831100Y-114447074D01*
X166885051Y-114372816D01*
X166889793Y-114363508D01*
X166937763Y-114312711D01*
X167005583Y-114295911D01*
X167071719Y-114318445D01*
X167110763Y-114363500D01*
X167115373Y-114372547D01*
X167154728Y-114426716D01*
X167787037Y-113794408D01*
X167804075Y-113857993D01*
X167869901Y-113972007D01*
X167962993Y-114065099D01*
X168077007Y-114130925D01*
X168140590Y-114147962D01*
X167508282Y-114780269D01*
X167508282Y-114780270D01*
X167562449Y-114819624D01*
X167751782Y-114916095D01*
X167953870Y-114981757D01*
X168163754Y-115015000D01*
X168376246Y-115015000D01*
X168586127Y-114981757D01*
X168586130Y-114981757D01*
X168788217Y-114916095D01*
X168977554Y-114819622D01*
X169031716Y-114780270D01*
X169031717Y-114780270D01*
X168399408Y-114147962D01*
X168462993Y-114130925D01*
X168577007Y-114065099D01*
X168670099Y-113972007D01*
X168735925Y-113857993D01*
X168752962Y-113794408D01*
X169385270Y-114426717D01*
X169385270Y-114426716D01*
X169424622Y-114372555D01*
X169429232Y-114363507D01*
X169477205Y-114312709D01*
X169545025Y-114295912D01*
X169611161Y-114318447D01*
X169650204Y-114363504D01*
X169654949Y-114372817D01*
X169779890Y-114544786D01*
X169930213Y-114695109D01*
X170102179Y-114820048D01*
X170102181Y-114820049D01*
X170102184Y-114820051D01*
X170291588Y-114916557D01*
X170493757Y-114982246D01*
X170703713Y-115015500D01*
X170703714Y-115015500D01*
X170916286Y-115015500D01*
X170916287Y-115015500D01*
X171126243Y-114982246D01*
X171328412Y-114916557D01*
X171517816Y-114820051D01*
X171576321Y-114777545D01*
X171689786Y-114695109D01*
X171689788Y-114695106D01*
X171689792Y-114695104D01*
X171840104Y-114544792D01*
X171840106Y-114544788D01*
X171840109Y-114544786D01*
X171965048Y-114372820D01*
X171965047Y-114372820D01*
X171965051Y-114372816D01*
X172061557Y-114183412D01*
X172127246Y-113981243D01*
X172160500Y-113771287D01*
X172160500Y-113570513D01*
X173424500Y-113570513D01*
X173424500Y-113759486D01*
X173454059Y-113946118D01*
X173512454Y-114125836D01*
X173577122Y-114252753D01*
X173598240Y-114294199D01*
X173709310Y-114447073D01*
X173842927Y-114580690D01*
X173995801Y-114691760D01*
X174075347Y-114732290D01*
X174164163Y-114777545D01*
X174164165Y-114777545D01*
X174164168Y-114777547D01*
X174260497Y-114808846D01*
X174343881Y-114835940D01*
X174530514Y-114865500D01*
X174530519Y-114865500D01*
X174719486Y-114865500D01*
X174906118Y-114835940D01*
X175085832Y-114777547D01*
X175254199Y-114691760D01*
X175407073Y-114580690D01*
X175540690Y-114447073D01*
X175651760Y-114294199D01*
X175737547Y-114125832D01*
X175795940Y-113946118D01*
X175796008Y-113945687D01*
X175825500Y-113759486D01*
X175825500Y-113570513D01*
X175795940Y-113383881D01*
X175737545Y-113204163D01*
X175651759Y-113035800D01*
X175540690Y-112882927D01*
X175407073Y-112749310D01*
X175254199Y-112638240D01*
X175247624Y-112634890D01*
X175085836Y-112552454D01*
X174906118Y-112494059D01*
X174719486Y-112464500D01*
X174719481Y-112464500D01*
X174530519Y-112464500D01*
X174530514Y-112464500D01*
X174343881Y-112494059D01*
X174164163Y-112552454D01*
X173995800Y-112638240D01*
X173922342Y-112691611D01*
X173842927Y-112749310D01*
X173842925Y-112749312D01*
X173842924Y-112749312D01*
X173709312Y-112882924D01*
X173709312Y-112882925D01*
X173709310Y-112882927D01*
X173671076Y-112935552D01*
X173598240Y-113035800D01*
X173512454Y-113204163D01*
X173454059Y-113383881D01*
X173424500Y-113570513D01*
X172160500Y-113570513D01*
X172160500Y-113558713D01*
X172127246Y-113348757D01*
X172061557Y-113146588D01*
X171965051Y-112957184D01*
X171965049Y-112957181D01*
X171965048Y-112957179D01*
X171840109Y-112785213D01*
X171689786Y-112634890D01*
X171517820Y-112509951D01*
X171328414Y-112413444D01*
X171328413Y-112413443D01*
X171328412Y-112413443D01*
X171126243Y-112347754D01*
X171126241Y-112347753D01*
X171126240Y-112347753D01*
X170964957Y-112322208D01*
X170916287Y-112314500D01*
X170703713Y-112314500D01*
X170655042Y-112322208D01*
X170493760Y-112347753D01*
X170291585Y-112413444D01*
X170102179Y-112509951D01*
X169930213Y-112634890D01*
X169779890Y-112785213D01*
X169654949Y-112957182D01*
X169650202Y-112966499D01*
X169602227Y-113017293D01*
X169534405Y-113034087D01*
X169468271Y-113011548D01*
X169429234Y-112966495D01*
X169424626Y-112957452D01*
X169385270Y-112903282D01*
X169385269Y-112903282D01*
X168752962Y-113535590D01*
X168735925Y-113472007D01*
X168670099Y-113357993D01*
X168577007Y-113264901D01*
X168462993Y-113199075D01*
X168399409Y-113182037D01*
X169031716Y-112549728D01*
X168977550Y-112510375D01*
X168788217Y-112413904D01*
X168586129Y-112348242D01*
X168376246Y-112315000D01*
X168163754Y-112315000D01*
X167953872Y-112348242D01*
X167953869Y-112348242D01*
X167751782Y-112413904D01*
X167562439Y-112510380D01*
X167508282Y-112549727D01*
X167508282Y-112549728D01*
X168140591Y-113182037D01*
X168077007Y-113199075D01*
X167962993Y-113264901D01*
X167869901Y-113357993D01*
X167804075Y-113472007D01*
X167787037Y-113535591D01*
X167154728Y-112903282D01*
X167154727Y-112903282D01*
X167115380Y-112957440D01*
X167115376Y-112957446D01*
X167110760Y-112966505D01*
X167062781Y-113017297D01*
X166994959Y-113034087D01*
X166928826Y-113011543D01*
X166889794Y-112966493D01*
X166885051Y-112957184D01*
X166885049Y-112957181D01*
X166885048Y-112957179D01*
X166760109Y-112785213D01*
X166609786Y-112634890D01*
X166437820Y-112509951D01*
X166248414Y-112413444D01*
X166248413Y-112413443D01*
X166248412Y-112413443D01*
X166046243Y-112347754D01*
X166046241Y-112347753D01*
X166046240Y-112347753D01*
X165884957Y-112322208D01*
X165836287Y-112314500D01*
X165623713Y-112314500D01*
X165575042Y-112322208D01*
X165413760Y-112347753D01*
X165211585Y-112413444D01*
X165022179Y-112509951D01*
X164850213Y-112634890D01*
X164699890Y-112785213D01*
X164574951Y-112957179D01*
X164478444Y-113146585D01*
X164412753Y-113348760D01*
X164379500Y-113558713D01*
X163123630Y-113558713D01*
X163095940Y-113383881D01*
X163037545Y-113204163D01*
X162951759Y-113035800D01*
X162840690Y-112882927D01*
X162707073Y-112749310D01*
X162554199Y-112638240D01*
X162547624Y-112634890D01*
X162385836Y-112552454D01*
X162206118Y-112494059D01*
X162019486Y-112464500D01*
X162019481Y-112464500D01*
X161830519Y-112464500D01*
X161830514Y-112464500D01*
X161643881Y-112494059D01*
X161464163Y-112552454D01*
X161295800Y-112638240D01*
X161222342Y-112691611D01*
X161142927Y-112749310D01*
X161142925Y-112749312D01*
X161142924Y-112749312D01*
X161009312Y-112882924D01*
X161009312Y-112882925D01*
X161009310Y-112882927D01*
X160971076Y-112935552D01*
X160898240Y-113035800D01*
X160812454Y-113204163D01*
X160754059Y-113383881D01*
X160724500Y-113570513D01*
X142671386Y-113570513D01*
X142702550Y-113509352D01*
X142702551Y-113509350D01*
X142712084Y-113490640D01*
X142770451Y-113311002D01*
X142800000Y-113124447D01*
X142800000Y-112935552D01*
X142770451Y-112748997D01*
X142712085Y-112569362D01*
X142626329Y-112401059D01*
X142607883Y-112375670D01*
X142607882Y-112375669D01*
X141953554Y-113029999D01*
X141950000Y-113029999D01*
X141950000Y-112983922D01*
X141926148Y-112894905D01*
X141880070Y-112815095D01*
X141814905Y-112749930D01*
X141735095Y-112703852D01*
X141646078Y-112680000D01*
X141553922Y-112680000D01*
X141464905Y-112703852D01*
X141385095Y-112749930D01*
X141319930Y-112815095D01*
X141273852Y-112894905D01*
X141250000Y-112983922D01*
X141200369Y-112983922D01*
X140592116Y-112375669D01*
X140592116Y-112375670D01*
X140573669Y-112401060D01*
X140487915Y-112569361D01*
X140448193Y-112691612D01*
X140408755Y-112749287D01*
X140344396Y-112776485D01*
X140275550Y-112764570D01*
X140224074Y-112717326D01*
X140212332Y-112691614D01*
X140172547Y-112569168D01*
X140086760Y-112400801D01*
X139975690Y-112247927D01*
X139842073Y-112114310D01*
X139715179Y-112022116D01*
X140945669Y-112022116D01*
X141600000Y-112676446D01*
X141600001Y-112676446D01*
X142254328Y-112022116D01*
X142228933Y-112003666D01*
X142060637Y-111917914D01*
X141881002Y-111859548D01*
X141694447Y-111830000D01*
X141505553Y-111830000D01*
X141318997Y-111859548D01*
X141139362Y-111917914D01*
X140971060Y-112003669D01*
X140945670Y-112022116D01*
X140945669Y-112022116D01*
X139715179Y-112022116D01*
X139689199Y-112003240D01*
X139520836Y-111917454D01*
X139341118Y-111859059D01*
X139154486Y-111829500D01*
X139154481Y-111829500D01*
X138965519Y-111829500D01*
X138965514Y-111829500D01*
X138778881Y-111859059D01*
X138599163Y-111917454D01*
X138430800Y-112003240D01*
X138343579Y-112066610D01*
X138277927Y-112114310D01*
X138277925Y-112114312D01*
X138277924Y-112114312D01*
X138144312Y-112247924D01*
X138144312Y-112247925D01*
X138144310Y-112247927D01*
X138096610Y-112313579D01*
X138033240Y-112400800D01*
X137947454Y-112569163D01*
X137889059Y-112748881D01*
X137859500Y-112935513D01*
X132580500Y-112935513D01*
X132580500Y-105315513D01*
X137859500Y-105315513D01*
X137859500Y-105504486D01*
X137889059Y-105691118D01*
X137947454Y-105870836D01*
X138033240Y-106039199D01*
X138144310Y-106192073D01*
X138277927Y-106325690D01*
X138430801Y-106436760D01*
X138510347Y-106477290D01*
X138599163Y-106522545D01*
X138599165Y-106522545D01*
X138599168Y-106522547D01*
X138695497Y-106553846D01*
X138778881Y-106580940D01*
X138965514Y-106610500D01*
X138965519Y-106610500D01*
X139154486Y-106610500D01*
X139341118Y-106580940D01*
X139351250Y-106577648D01*
X139520832Y-106522547D01*
X139689199Y-106436760D01*
X139842073Y-106325690D01*
X139975690Y-106192073D01*
X140086760Y-106039199D01*
X140172547Y-105870832D01*
X140212069Y-105749195D01*
X140251507Y-105691521D01*
X140315866Y-105664323D01*
X140384712Y-105676238D01*
X140436188Y-105723482D01*
X140447931Y-105749196D01*
X140487454Y-105870836D01*
X140573240Y-106039199D01*
X140684310Y-106192073D01*
X140817927Y-106325690D01*
X140970801Y-106436760D01*
X141050347Y-106477290D01*
X141139163Y-106522545D01*
X141139165Y-106522545D01*
X141139168Y-106522547D01*
X141235497Y-106553846D01*
X141318881Y-106580940D01*
X141505514Y-106610500D01*
X141505519Y-106610500D01*
X141694486Y-106610500D01*
X141881118Y-106580940D01*
X141891250Y-106577648D01*
X142060832Y-106522547D01*
X142229199Y-106436760D01*
X142382073Y-106325690D01*
X142515690Y-106192073D01*
X142626760Y-106039199D01*
X142712547Y-105870832D01*
X142770940Y-105691118D01*
X142775184Y-105664323D01*
X142800500Y-105504486D01*
X142800500Y-105315512D01*
X142800499Y-105315511D01*
X142798630Y-105303713D01*
X154224500Y-105303713D01*
X154224500Y-105516286D01*
X154257316Y-105723482D01*
X154257754Y-105726243D01*
X154304735Y-105870836D01*
X154323444Y-105928414D01*
X154419951Y-106117820D01*
X154544890Y-106289786D01*
X154695213Y-106440109D01*
X154867179Y-106565048D01*
X154867181Y-106565049D01*
X154867184Y-106565051D01*
X155056588Y-106661557D01*
X155258757Y-106727246D01*
X155468713Y-106760500D01*
X155468714Y-106760500D01*
X155681286Y-106760500D01*
X155681287Y-106760500D01*
X155891243Y-106727246D01*
X156093412Y-106661557D01*
X156282816Y-106565051D01*
X156364593Y-106505637D01*
X156454786Y-106440109D01*
X156454788Y-106440106D01*
X156454792Y-106440104D01*
X156605104Y-106289792D01*
X156605106Y-106289788D01*
X156605109Y-106289786D01*
X156730048Y-106117820D01*
X156730047Y-106117820D01*
X156730051Y-106117816D01*
X156826557Y-105928412D01*
X156892246Y-105726243D01*
X156925500Y-105516287D01*
X156925500Y-105303713D01*
X156892246Y-105093757D01*
X156826557Y-104891588D01*
X156730051Y-104702184D01*
X156730049Y-104702181D01*
X156730048Y-104702179D01*
X156605109Y-104530213D01*
X156454786Y-104379890D01*
X156282820Y-104254951D01*
X156093414Y-104158444D01*
X156093413Y-104158443D01*
X156093412Y-104158443D01*
X155891243Y-104092754D01*
X155891241Y-104092753D01*
X155891240Y-104092753D01*
X155729957Y-104067208D01*
X155681287Y-104059500D01*
X155468713Y-104059500D01*
X155420042Y-104067208D01*
X155258760Y-104092753D01*
X155056585Y-104158444D01*
X154867179Y-104254951D01*
X154695213Y-104379890D01*
X154544890Y-104530213D01*
X154419951Y-104702179D01*
X154323444Y-104891585D01*
X154257753Y-105093760D01*
X154224500Y-105303713D01*
X142798630Y-105303713D01*
X142770940Y-105128881D01*
X142726438Y-104991919D01*
X142712547Y-104949168D01*
X142712545Y-104949165D01*
X142712545Y-104949163D01*
X142659471Y-104845000D01*
X142626760Y-104780801D01*
X142515690Y-104627927D01*
X142382073Y-104494310D01*
X142229199Y-104383240D01*
X142222624Y-104379890D01*
X142060836Y-104297454D01*
X141881118Y-104239059D01*
X141694486Y-104209500D01*
X141694481Y-104209500D01*
X141505519Y-104209500D01*
X141505514Y-104209500D01*
X141318881Y-104239059D01*
X141139163Y-104297454D01*
X140970800Y-104383240D01*
X140960976Y-104390378D01*
X140817927Y-104494310D01*
X140817925Y-104494312D01*
X140817924Y-104494312D01*
X140684312Y-104627924D01*
X140684312Y-104627925D01*
X140684310Y-104627927D01*
X140676106Y-104639219D01*
X140573240Y-104780800D01*
X140487454Y-104949163D01*
X140447931Y-105070803D01*
X140408493Y-105128478D01*
X140344134Y-105155676D01*
X140275288Y-105143761D01*
X140223812Y-105096516D01*
X140212069Y-105070803D01*
X140186438Y-104991919D01*
X140172547Y-104949168D01*
X140172545Y-104949165D01*
X140172545Y-104949163D01*
X140119471Y-104845000D01*
X140086760Y-104780801D01*
X139975690Y-104627927D01*
X139842073Y-104494310D01*
X139689199Y-104383240D01*
X139682624Y-104379890D01*
X139520836Y-104297454D01*
X139341118Y-104239059D01*
X139154486Y-104209500D01*
X139154481Y-104209500D01*
X138965519Y-104209500D01*
X138965514Y-104209500D01*
X138778881Y-104239059D01*
X138599163Y-104297454D01*
X138430800Y-104383240D01*
X138420976Y-104390378D01*
X138277927Y-104494310D01*
X138277925Y-104494312D01*
X138277924Y-104494312D01*
X138144312Y-104627924D01*
X138144312Y-104627925D01*
X138144310Y-104627927D01*
X138136106Y-104639219D01*
X138033240Y-104780800D01*
X137947454Y-104949163D01*
X137889059Y-105128881D01*
X137859500Y-105315513D01*
X132580500Y-105315513D01*
X132580500Y-100617135D01*
X135259500Y-100617135D01*
X135259500Y-102212870D01*
X135259501Y-102212876D01*
X135265908Y-102272483D01*
X135316202Y-102407328D01*
X135316206Y-102407335D01*
X135402452Y-102522544D01*
X135402455Y-102522547D01*
X135517664Y-102608793D01*
X135517671Y-102608797D01*
X135652517Y-102659091D01*
X135652516Y-102659091D01*
X135659444Y-102659835D01*
X135712127Y-102665500D01*
X137307872Y-102665499D01*
X137367483Y-102659091D01*
X137502331Y-102608796D01*
X137617546Y-102522546D01*
X137703796Y-102407331D01*
X137754091Y-102272483D01*
X137760500Y-102212873D01*
X137760499Y-102149265D01*
X137780183Y-102082229D01*
X137832986Y-102036473D01*
X137902144Y-102026529D01*
X137965700Y-102055553D01*
X137984816Y-102076381D01*
X138083980Y-102212865D01*
X138096172Y-102229646D01*
X138235354Y-102368828D01*
X138394595Y-102484524D01*
X138456602Y-102516118D01*
X138569970Y-102573882D01*
X138569972Y-102573882D01*
X138569975Y-102573884D01*
X138625641Y-102591971D01*
X138757173Y-102634709D01*
X138951578Y-102665500D01*
X138951583Y-102665500D01*
X139148422Y-102665500D01*
X139342826Y-102634709D01*
X139344328Y-102634221D01*
X139530025Y-102573884D01*
X139705405Y-102484524D01*
X139864646Y-102368828D01*
X140003828Y-102229646D01*
X140119524Y-102070405D01*
X140208884Y-101895025D01*
X140208884Y-101895022D01*
X140209795Y-101893236D01*
X140257769Y-101842440D01*
X140325590Y-101825644D01*
X140391725Y-101848181D01*
X140430765Y-101893235D01*
X140520905Y-102070145D01*
X140546319Y-102105125D01*
X140546320Y-102105125D01*
X141190000Y-101461445D01*
X141190000Y-101467661D01*
X141217259Y-101569394D01*
X141269920Y-101660606D01*
X141344394Y-101735080D01*
X141435606Y-101787741D01*
X141537339Y-101815000D01*
X141543553Y-101815000D01*
X140899873Y-102458677D01*
X140899873Y-102458678D01*
X140934858Y-102484096D01*
X141110164Y-102573418D01*
X141297294Y-102634221D01*
X141491618Y-102665000D01*
X141688382Y-102665000D01*
X141882705Y-102634221D01*
X141963767Y-102607882D01*
X144755669Y-102607882D01*
X144755670Y-102607883D01*
X144781059Y-102626329D01*
X144949362Y-102712085D01*
X145128997Y-102770451D01*
X145315553Y-102800000D01*
X145504447Y-102800000D01*
X145691002Y-102770451D01*
X145870637Y-102712085D01*
X146038937Y-102626331D01*
X146064328Y-102607883D01*
X146064328Y-102607882D01*
X145410001Y-101953554D01*
X145410000Y-101953554D01*
X144755669Y-102607882D01*
X141963767Y-102607882D01*
X142069835Y-102573418D01*
X142245143Y-102484095D01*
X142277888Y-102460305D01*
X142280125Y-102458678D01*
X142280126Y-102458678D01*
X141636448Y-101815000D01*
X141642661Y-101815000D01*
X141744394Y-101787741D01*
X141835606Y-101735080D01*
X141910080Y-101660606D01*
X141962741Y-101569394D01*
X141990000Y-101467661D01*
X141990000Y-101461448D01*
X142633678Y-102105126D01*
X142633678Y-102105125D01*
X142659095Y-102070143D01*
X142748418Y-101894835D01*
X142809221Y-101707705D01*
X142840000Y-101513382D01*
X142840000Y-101505552D01*
X144210000Y-101505552D01*
X144210000Y-101694447D01*
X144239548Y-101881002D01*
X144297914Y-102060637D01*
X144383666Y-102228933D01*
X144402116Y-102254328D01*
X145056446Y-101600000D01*
X145056446Y-101599999D01*
X145010369Y-101553922D01*
X145060000Y-101553922D01*
X145060000Y-101646078D01*
X145083852Y-101735095D01*
X145129930Y-101814905D01*
X145195095Y-101880070D01*
X145274905Y-101926148D01*
X145363922Y-101950000D01*
X145456078Y-101950000D01*
X145545095Y-101926148D01*
X145624905Y-101880070D01*
X145690070Y-101814905D01*
X145736148Y-101735095D01*
X145760000Y-101646078D01*
X145760000Y-101599999D01*
X145763554Y-101599999D01*
X145763554Y-101600000D01*
X146417882Y-102254328D01*
X146417883Y-102254328D01*
X146436331Y-102228936D01*
X146481386Y-102140513D01*
X153104500Y-102140513D01*
X153104500Y-102329486D01*
X153134059Y-102516118D01*
X153192454Y-102695836D01*
X153249345Y-102807490D01*
X153278240Y-102864199D01*
X153389310Y-103017073D01*
X153522927Y-103150690D01*
X153675801Y-103261760D01*
X153736693Y-103292786D01*
X153844163Y-103347545D01*
X153844165Y-103347545D01*
X153844168Y-103347547D01*
X153940497Y-103378846D01*
X154023881Y-103405940D01*
X154210514Y-103435500D01*
X154210519Y-103435500D01*
X154399486Y-103435500D01*
X154586118Y-103405940D01*
X154765832Y-103347547D01*
X154934199Y-103261760D01*
X155087073Y-103150690D01*
X155220690Y-103017073D01*
X155331760Y-102864199D01*
X155417547Y-102695832D01*
X155475940Y-102516118D01*
X155484780Y-102460305D01*
X155505500Y-102329486D01*
X155505500Y-102140513D01*
X155475940Y-101953881D01*
X155417545Y-101774163D01*
X155359684Y-101660606D01*
X155331760Y-101605801D01*
X155220690Y-101452927D01*
X155087073Y-101319310D01*
X154934199Y-101208240D01*
X154765836Y-101122454D01*
X154586118Y-101064059D01*
X154399486Y-101034500D01*
X154399481Y-101034500D01*
X154210519Y-101034500D01*
X154210514Y-101034500D01*
X154023881Y-101064059D01*
X153844163Y-101122454D01*
X153675800Y-101208240D01*
X153603726Y-101260606D01*
X153522927Y-101319310D01*
X153522925Y-101319312D01*
X153522924Y-101319312D01*
X153389312Y-101452924D01*
X153389312Y-101452925D01*
X153389310Y-101452927D01*
X153378605Y-101467661D01*
X153278240Y-101605800D01*
X153192454Y-101774163D01*
X153134059Y-101953881D01*
X153104500Y-102140513D01*
X146481386Y-102140513D01*
X146512550Y-102079352D01*
X146512551Y-102079350D01*
X146522084Y-102060640D01*
X146580451Y-101881002D01*
X146610000Y-101694447D01*
X146610000Y-101505552D01*
X146580451Y-101318997D01*
X146522085Y-101139362D01*
X146436329Y-100971059D01*
X146417883Y-100945670D01*
X146417882Y-100945669D01*
X145763554Y-101599999D01*
X145760000Y-101599999D01*
X145760000Y-101553922D01*
X145736148Y-101464905D01*
X145690070Y-101385095D01*
X145624905Y-101319930D01*
X145545095Y-101273852D01*
X145456078Y-101250000D01*
X145363922Y-101250000D01*
X145274905Y-101273852D01*
X145195095Y-101319930D01*
X145129930Y-101385095D01*
X145083852Y-101464905D01*
X145060000Y-101553922D01*
X145010369Y-101553922D01*
X144402116Y-100945669D01*
X144402116Y-100945670D01*
X144383669Y-100971060D01*
X144297914Y-101139362D01*
X144239548Y-101318997D01*
X144210000Y-101505552D01*
X142840000Y-101505552D01*
X142840000Y-101316617D01*
X142809221Y-101122294D01*
X142748418Y-100935164D01*
X142659093Y-100759853D01*
X142633679Y-100724873D01*
X142633677Y-100724873D01*
X141990000Y-101368551D01*
X141990000Y-101362339D01*
X141962741Y-101260606D01*
X141910080Y-101169394D01*
X141835606Y-101094920D01*
X141744394Y-101042259D01*
X141642661Y-101015000D01*
X141636447Y-101015000D01*
X142059330Y-100592116D01*
X144755669Y-100592116D01*
X145410000Y-101246446D01*
X145410001Y-101246446D01*
X146064328Y-100592116D01*
X146038933Y-100573666D01*
X145870637Y-100487914D01*
X145691002Y-100429548D01*
X145504447Y-100400000D01*
X145315553Y-100400000D01*
X145128997Y-100429548D01*
X144949362Y-100487914D01*
X144781060Y-100573669D01*
X144755670Y-100592116D01*
X144755669Y-100592116D01*
X142059330Y-100592116D01*
X142280125Y-100371320D01*
X142280125Y-100371319D01*
X142245145Y-100345905D01*
X142069835Y-100256581D01*
X141882705Y-100195778D01*
X141688382Y-100165000D01*
X141491618Y-100165000D01*
X141297294Y-100195778D01*
X141110161Y-100256582D01*
X140934863Y-100345899D01*
X140934859Y-100345902D01*
X140899873Y-100371320D01*
X140899872Y-100371320D01*
X141543554Y-101015000D01*
X141537339Y-101015000D01*
X141435606Y-101042259D01*
X141344394Y-101094920D01*
X141269920Y-101169394D01*
X141217259Y-101260606D01*
X141190000Y-101362339D01*
X141190000Y-101368552D01*
X140546320Y-100724872D01*
X140546320Y-100724873D01*
X140520902Y-100759859D01*
X140430765Y-100936764D01*
X140382790Y-100987560D01*
X140314969Y-101004355D01*
X140248835Y-100981818D01*
X140209795Y-100936763D01*
X140119525Y-100759596D01*
X140082633Y-100708819D01*
X140003828Y-100600354D01*
X139864646Y-100461172D01*
X139705405Y-100345476D01*
X139530029Y-100256117D01*
X139342826Y-100195290D01*
X139148422Y-100164500D01*
X139148417Y-100164500D01*
X138951583Y-100164500D01*
X138951578Y-100164500D01*
X138757173Y-100195290D01*
X138569970Y-100256117D01*
X138394594Y-100345476D01*
X138317947Y-100401164D01*
X138235354Y-100461172D01*
X138235352Y-100461174D01*
X138235351Y-100461174D01*
X138096173Y-100600352D01*
X137984817Y-100753620D01*
X137929486Y-100796285D01*
X137859873Y-100802264D01*
X137798078Y-100769658D01*
X137763721Y-100708819D01*
X137760499Y-100680734D01*
X137760499Y-100617129D01*
X137760498Y-100617123D01*
X137760497Y-100617116D01*
X137754091Y-100557517D01*
X137718157Y-100461174D01*
X137703797Y-100422671D01*
X137703793Y-100422664D01*
X137617547Y-100307455D01*
X137617544Y-100307452D01*
X137502335Y-100221206D01*
X137502328Y-100221202D01*
X137367482Y-100170908D01*
X137367483Y-100170908D01*
X137307883Y-100164501D01*
X137307881Y-100164500D01*
X137307873Y-100164500D01*
X137307864Y-100164500D01*
X135712129Y-100164500D01*
X135712123Y-100164501D01*
X135652516Y-100170908D01*
X135517671Y-100221202D01*
X135517664Y-100221206D01*
X135402455Y-100307452D01*
X135402452Y-100307455D01*
X135316206Y-100422664D01*
X135316202Y-100422671D01*
X135265908Y-100557517D01*
X135259501Y-100617116D01*
X135259501Y-100617123D01*
X135259500Y-100617135D01*
X132580500Y-100617135D01*
X132580500Y-95152135D01*
X135067000Y-95152135D01*
X135067000Y-97247870D01*
X135067001Y-97247876D01*
X135073408Y-97307483D01*
X135123702Y-97442328D01*
X135123706Y-97442335D01*
X135209952Y-97557544D01*
X135209955Y-97557547D01*
X135325164Y-97643793D01*
X135325171Y-97643797D01*
X135460017Y-97694091D01*
X135460016Y-97694091D01*
X135466944Y-97694835D01*
X135519627Y-97700500D01*
X137520372Y-97700499D01*
X137579983Y-97694091D01*
X137714831Y-97643796D01*
X137830046Y-97557546D01*
X137916296Y-97442331D01*
X137926690Y-97414460D01*
X137968560Y-97358527D01*
X138034023Y-97334108D01*
X138102297Y-97348958D01*
X138115746Y-97357465D01*
X138298462Y-97490217D01*
X138430599Y-97557544D01*
X138502244Y-97594049D01*
X138719751Y-97664721D01*
X138719752Y-97664721D01*
X138719755Y-97664722D01*
X138945646Y-97700500D01*
X138945647Y-97700500D01*
X139174353Y-97700500D01*
X139174354Y-97700500D01*
X139400245Y-97664722D01*
X139400248Y-97664721D01*
X139400249Y-97664721D01*
X139617755Y-97594049D01*
X139617755Y-97594048D01*
X139617758Y-97594048D01*
X139821538Y-97490217D01*
X140006566Y-97355786D01*
X140168286Y-97194066D01*
X140229683Y-97109559D01*
X140285012Y-97066896D01*
X140354625Y-97060917D01*
X140416420Y-97093523D01*
X140430314Y-97109556D01*
X140491714Y-97194066D01*
X140653434Y-97355786D01*
X140838462Y-97490217D01*
X140970599Y-97557544D01*
X141042244Y-97594049D01*
X141259751Y-97664721D01*
X141259752Y-97664721D01*
X141259755Y-97664722D01*
X141485646Y-97700500D01*
X141485647Y-97700500D01*
X141714353Y-97700500D01*
X141714354Y-97700500D01*
X141940245Y-97664722D01*
X141940248Y-97664721D01*
X141940249Y-97664721D01*
X142157755Y-97594049D01*
X142157755Y-97594048D01*
X142157758Y-97594048D01*
X142361538Y-97490217D01*
X142546566Y-97355786D01*
X142708286Y-97194066D01*
X142813891Y-97048713D01*
X150414500Y-97048713D01*
X150414500Y-97261286D01*
X150447735Y-97471127D01*
X150447754Y-97471243D01*
X150510619Y-97664722D01*
X150513444Y-97673414D01*
X150609951Y-97862820D01*
X150734890Y-98034786D01*
X150885213Y-98185109D01*
X151057182Y-98310050D01*
X151065946Y-98314516D01*
X151116742Y-98362491D01*
X151133536Y-98430312D01*
X151110998Y-98496447D01*
X151065946Y-98535484D01*
X151057182Y-98539949D01*
X150885213Y-98664890D01*
X150734890Y-98815213D01*
X150609951Y-98987179D01*
X150513444Y-99176585D01*
X150447753Y-99378760D01*
X150436191Y-99451760D01*
X150414500Y-99588713D01*
X150414500Y-99801287D01*
X150447754Y-100011243D01*
X150507713Y-100195778D01*
X150513444Y-100213414D01*
X150609951Y-100402820D01*
X150734890Y-100574786D01*
X150885213Y-100725109D01*
X151057179Y-100850048D01*
X151057181Y-100850049D01*
X151057184Y-100850051D01*
X151246588Y-100946557D01*
X151448757Y-101012246D01*
X151658713Y-101045500D01*
X151658714Y-101045500D01*
X151871286Y-101045500D01*
X151871287Y-101045500D01*
X152081243Y-101012246D01*
X152283412Y-100946557D01*
X152472816Y-100850051D01*
X152546819Y-100796285D01*
X152644786Y-100725109D01*
X152644788Y-100725106D01*
X152644792Y-100725104D01*
X152795104Y-100574792D01*
X152795106Y-100574788D01*
X152795109Y-100574786D01*
X152920048Y-100402820D01*
X152920047Y-100402820D01*
X152920051Y-100402816D01*
X153016557Y-100213412D01*
X153082246Y-100011243D01*
X153115500Y-99801287D01*
X153115500Y-99588713D01*
X153082246Y-99378757D01*
X153016557Y-99176588D01*
X152920051Y-98987184D01*
X152920049Y-98987181D01*
X152920048Y-98987179D01*
X152795109Y-98815213D01*
X152644786Y-98664890D01*
X152472820Y-98539951D01*
X152472115Y-98539591D01*
X152464054Y-98535485D01*
X152461235Y-98532822D01*
X152457473Y-98531877D01*
X152436032Y-98509019D01*
X152413259Y-98487512D01*
X152412326Y-98483745D01*
X152409673Y-98480917D01*
X152403995Y-98450108D01*
X152396463Y-98419692D01*
X152397714Y-98416020D01*
X152397011Y-98412204D01*
X152408894Y-98383209D01*
X152418999Y-98353556D01*
X152422462Y-98350103D01*
X152423508Y-98347554D01*
X152431806Y-98340791D01*
X152442120Y-98330513D01*
X153104500Y-98330513D01*
X153104500Y-98519486D01*
X153134059Y-98706118D01*
X153192454Y-98885836D01*
X153257717Y-99013920D01*
X153278240Y-99054199D01*
X153389310Y-99207073D01*
X153522927Y-99340690D01*
X153675801Y-99451760D01*
X153718186Y-99473356D01*
X153844163Y-99537545D01*
X153844165Y-99537545D01*
X153844168Y-99537547D01*
X153910289Y-99559031D01*
X154023881Y-99595940D01*
X154210514Y-99625500D01*
X154210519Y-99625500D01*
X154399486Y-99625500D01*
X154586118Y-99595940D01*
X154608360Y-99588713D01*
X154765832Y-99537547D01*
X154934199Y-99451760D01*
X155087073Y-99340690D01*
X155220690Y-99207073D01*
X155331760Y-99054199D01*
X155417547Y-98885832D01*
X155475940Y-98706118D01*
X155483244Y-98660000D01*
X155505500Y-98519486D01*
X155505500Y-98330513D01*
X155475940Y-98143881D01*
X155417545Y-97964163D01*
X155360797Y-97852790D01*
X155331760Y-97795801D01*
X155220690Y-97642927D01*
X155087073Y-97509310D01*
X154934199Y-97398240D01*
X154873317Y-97367219D01*
X154765836Y-97312454D01*
X154586118Y-97254059D01*
X154399486Y-97224500D01*
X154399481Y-97224500D01*
X154210519Y-97224500D01*
X154210514Y-97224500D01*
X154023881Y-97254059D01*
X153844163Y-97312454D01*
X153675800Y-97398240D01*
X153588579Y-97461610D01*
X153522927Y-97509310D01*
X153522925Y-97509312D01*
X153522924Y-97509312D01*
X153389312Y-97642924D01*
X153389312Y-97642925D01*
X153389310Y-97642927D01*
X153367160Y-97673414D01*
X153278240Y-97795800D01*
X153192454Y-97964163D01*
X153134059Y-98143881D01*
X153104500Y-98330513D01*
X152442120Y-98330513D01*
X152449250Y-98323408D01*
X152456340Y-98318445D01*
X152472816Y-98310051D01*
X152644792Y-98185104D01*
X152795104Y-98034792D01*
X152795106Y-98034788D01*
X152795109Y-98034786D01*
X152920048Y-97862820D01*
X152920047Y-97862820D01*
X152920051Y-97862816D01*
X153016557Y-97673412D01*
X153082246Y-97471243D01*
X153115500Y-97261287D01*
X153115500Y-97048713D01*
X153082246Y-96838757D01*
X153016557Y-96636588D01*
X152920051Y-96447184D01*
X152920049Y-96447181D01*
X152920048Y-96447179D01*
X152795109Y-96275213D01*
X152644786Y-96124890D01*
X152472817Y-95999949D01*
X152463504Y-95995204D01*
X152412707Y-95947230D01*
X152395912Y-95879409D01*
X152418449Y-95813274D01*
X152463507Y-95774232D01*
X152472555Y-95769622D01*
X152526716Y-95730270D01*
X152526717Y-95730270D01*
X151894408Y-95097962D01*
X151957993Y-95080925D01*
X152072007Y-95015099D01*
X152165099Y-94922007D01*
X152230925Y-94807993D01*
X152247962Y-94744408D01*
X152880270Y-95376717D01*
X152880270Y-95376716D01*
X152919622Y-95322554D01*
X153008408Y-95148303D01*
X153056382Y-95097507D01*
X153124203Y-95080712D01*
X153190338Y-95103249D01*
X153229377Y-95148303D01*
X153278236Y-95244194D01*
X153283561Y-95251523D01*
X153389310Y-95397073D01*
X153522927Y-95530690D01*
X153675801Y-95641760D01*
X153736693Y-95672786D01*
X153844163Y-95727545D01*
X153844165Y-95727545D01*
X153844168Y-95727547D01*
X153940497Y-95758846D01*
X154023881Y-95785940D01*
X154210514Y-95815500D01*
X154210519Y-95815500D01*
X154399486Y-95815500D01*
X154586118Y-95785940D01*
X154765832Y-95727547D01*
X154934199Y-95641760D01*
X155087073Y-95530690D01*
X155220690Y-95397073D01*
X155331760Y-95244199D01*
X155417547Y-95075832D01*
X155475940Y-94896118D01*
X155477293Y-94887577D01*
X155505500Y-94709486D01*
X155505500Y-94520513D01*
X160724500Y-94520513D01*
X160724500Y-94709486D01*
X160754059Y-94896118D01*
X160812454Y-95075836D01*
X160897096Y-95241954D01*
X160898240Y-95244199D01*
X161009310Y-95397073D01*
X161142927Y-95530690D01*
X161295801Y-95641760D01*
X161356693Y-95672786D01*
X161464163Y-95727545D01*
X161464165Y-95727545D01*
X161464168Y-95727547D01*
X161560497Y-95758846D01*
X161643881Y-95785940D01*
X161830514Y-95815500D01*
X161830519Y-95815500D01*
X162019486Y-95815500D01*
X162206118Y-95785940D01*
X162385832Y-95727547D01*
X162554199Y-95641760D01*
X162707073Y-95530690D01*
X162840690Y-95397073D01*
X162951760Y-95244199D01*
X163037547Y-95075832D01*
X163071138Y-94972448D01*
X163110574Y-94914776D01*
X163174933Y-94887577D01*
X163243779Y-94899492D01*
X163294606Y-94945671D01*
X163327287Y-94998655D01*
X163327288Y-94998656D01*
X163451344Y-95122712D01*
X163600666Y-95214814D01*
X163682570Y-95241954D01*
X163740015Y-95281727D01*
X163766838Y-95346243D01*
X163754523Y-95415018D01*
X163716451Y-95459978D01*
X163622787Y-95528028D01*
X163622782Y-95528032D01*
X163478028Y-95672786D01*
X163357715Y-95838386D01*
X163264781Y-96020776D01*
X163201522Y-96215465D01*
X163169500Y-96417648D01*
X163169500Y-96622351D01*
X163201522Y-96824534D01*
X163264781Y-97019223D01*
X163328691Y-97144653D01*
X163353870Y-97194068D01*
X163357715Y-97201613D01*
X163478028Y-97367213D01*
X163622786Y-97511971D01*
X163788385Y-97632284D01*
X163788387Y-97632285D01*
X163788390Y-97632287D01*
X163881630Y-97679795D01*
X163932426Y-97727770D01*
X163949221Y-97795591D01*
X163926684Y-97861725D01*
X163881630Y-97900765D01*
X163788644Y-97948143D01*
X163744077Y-97980523D01*
X163744077Y-97980524D01*
X164423554Y-98660000D01*
X164417339Y-98660000D01*
X164315606Y-98687259D01*
X164224394Y-98739920D01*
X164149920Y-98814394D01*
X164097259Y-98905606D01*
X164070000Y-99007339D01*
X164070000Y-99013553D01*
X163390524Y-98334077D01*
X163390523Y-98334077D01*
X163358143Y-98378645D01*
X163355601Y-98382795D01*
X163353991Y-98381808D01*
X163311522Y-98426761D01*
X163243698Y-98443545D01*
X163177567Y-98420997D01*
X163134124Y-98366275D01*
X163126795Y-98335246D01*
X163126263Y-98335331D01*
X163095940Y-98143881D01*
X163037545Y-97964163D01*
X162980797Y-97852790D01*
X162951760Y-97795801D01*
X162840690Y-97642927D01*
X162707073Y-97509310D01*
X162554199Y-97398240D01*
X162493317Y-97367219D01*
X162385836Y-97312454D01*
X162206118Y-97254059D01*
X162019486Y-97224500D01*
X162019481Y-97224500D01*
X161830519Y-97224500D01*
X161830514Y-97224500D01*
X161643881Y-97254059D01*
X161464163Y-97312454D01*
X161295800Y-97398240D01*
X161208579Y-97461610D01*
X161142927Y-97509310D01*
X161142925Y-97509312D01*
X161142924Y-97509312D01*
X161009312Y-97642924D01*
X161009312Y-97642925D01*
X161009310Y-97642927D01*
X160987160Y-97673414D01*
X160898240Y-97795800D01*
X160812454Y-97964163D01*
X160754059Y-98143881D01*
X160724500Y-98330513D01*
X160724500Y-98519486D01*
X160754059Y-98706118D01*
X160812454Y-98885836D01*
X160877717Y-99013920D01*
X160898240Y-99054199D01*
X161009310Y-99207073D01*
X161142927Y-99340690D01*
X161295801Y-99451760D01*
X161338186Y-99473356D01*
X161464163Y-99537545D01*
X161464165Y-99537545D01*
X161464168Y-99537547D01*
X161530289Y-99559031D01*
X161643881Y-99595940D01*
X161830514Y-99625500D01*
X161830519Y-99625500D01*
X162019486Y-99625500D01*
X162206118Y-99595940D01*
X162228360Y-99588713D01*
X162385832Y-99537547D01*
X162554199Y-99451760D01*
X162707073Y-99340690D01*
X162840690Y-99207073D01*
X162945683Y-99062563D01*
X163001012Y-99019899D01*
X163070626Y-99013920D01*
X163132421Y-99046526D01*
X163166778Y-99107365D01*
X163170000Y-99135450D01*
X163170000Y-99162317D01*
X163202009Y-99364417D01*
X163265244Y-99559031D01*
X163358141Y-99741350D01*
X163358147Y-99741359D01*
X163390523Y-99785921D01*
X163390524Y-99785922D01*
X164070000Y-99106446D01*
X164070000Y-99112661D01*
X164097259Y-99214394D01*
X164149920Y-99305606D01*
X164224394Y-99380080D01*
X164315606Y-99432741D01*
X164417339Y-99460000D01*
X164423553Y-99460000D01*
X163744076Y-100139474D01*
X163788652Y-100171861D01*
X163881628Y-100219234D01*
X163932425Y-100267208D01*
X163949220Y-100335029D01*
X163926683Y-100401164D01*
X163881630Y-100440203D01*
X163788388Y-100487713D01*
X163622786Y-100608028D01*
X163478028Y-100752786D01*
X163357715Y-100918386D01*
X163264781Y-101100776D01*
X163201522Y-101295465D01*
X163169500Y-101497648D01*
X163169500Y-101523861D01*
X163149815Y-101590900D01*
X163097011Y-101636655D01*
X163027853Y-101646599D01*
X162964297Y-101617574D01*
X162945182Y-101596747D01*
X162922940Y-101566134D01*
X162840690Y-101452927D01*
X162707073Y-101319310D01*
X162554199Y-101208240D01*
X162385836Y-101122454D01*
X162206118Y-101064059D01*
X162019486Y-101034500D01*
X162019481Y-101034500D01*
X161830519Y-101034500D01*
X161830514Y-101034500D01*
X161643881Y-101064059D01*
X161464163Y-101122454D01*
X161295800Y-101208240D01*
X161223726Y-101260606D01*
X161142927Y-101319310D01*
X161142925Y-101319312D01*
X161142924Y-101319312D01*
X161009312Y-101452924D01*
X161009312Y-101452925D01*
X161009310Y-101452927D01*
X160998605Y-101467661D01*
X160898240Y-101605800D01*
X160812454Y-101774163D01*
X160754059Y-101953881D01*
X160724500Y-102140513D01*
X160724500Y-102329486D01*
X160754059Y-102516118D01*
X160812454Y-102695836D01*
X160869345Y-102807490D01*
X160898240Y-102864199D01*
X161009310Y-103017073D01*
X161009312Y-103017075D01*
X161013181Y-103020944D01*
X161046666Y-103082267D01*
X161049500Y-103108625D01*
X161049500Y-104221233D01*
X161083143Y-104390366D01*
X161083146Y-104390378D01*
X161149138Y-104549698D01*
X161149145Y-104549711D01*
X161244953Y-104693097D01*
X161244954Y-104693098D01*
X161244955Y-104693099D01*
X161356828Y-104804972D01*
X161390312Y-104866293D01*
X161385328Y-104935985D01*
X161343457Y-104991919D01*
X161325443Y-105003136D01*
X161295800Y-105018240D01*
X161208579Y-105081610D01*
X161142927Y-105129310D01*
X161142925Y-105129312D01*
X161142924Y-105129312D01*
X161009312Y-105262924D01*
X161009312Y-105262925D01*
X161009310Y-105262927D01*
X160961610Y-105328579D01*
X160898240Y-105415800D01*
X160812454Y-105584163D01*
X160754059Y-105763881D01*
X160724500Y-105950513D01*
X160724500Y-106139486D01*
X160754059Y-106326118D01*
X160812454Y-106505836D01*
X160885950Y-106650079D01*
X160898240Y-106674199D01*
X161009310Y-106827073D01*
X161142927Y-106960690D01*
X161295801Y-107071760D01*
X161375347Y-107112290D01*
X161464163Y-107157545D01*
X161464165Y-107157545D01*
X161464168Y-107157547D01*
X161560497Y-107188846D01*
X161643881Y-107215940D01*
X161830514Y-107245500D01*
X161830519Y-107245500D01*
X162019486Y-107245500D01*
X162206118Y-107215940D01*
X162207623Y-107215451D01*
X162385832Y-107157547D01*
X162554199Y-107071760D01*
X162707073Y-106960690D01*
X162840690Y-106827073D01*
X162945183Y-106683250D01*
X163000512Y-106640587D01*
X163070126Y-106634608D01*
X163131921Y-106667214D01*
X163166278Y-106728053D01*
X163169500Y-106756138D01*
X163169500Y-106782351D01*
X163201522Y-106984534D01*
X163264781Y-107179223D01*
X163357715Y-107361613D01*
X163478028Y-107527213D01*
X163622786Y-107671971D01*
X163777749Y-107784556D01*
X163788390Y-107792287D01*
X163879840Y-107838883D01*
X163881080Y-107839515D01*
X163931876Y-107887490D01*
X163948671Y-107955311D01*
X163926134Y-108021446D01*
X163881080Y-108060485D01*
X163788386Y-108107715D01*
X163622786Y-108228028D01*
X163478028Y-108372786D01*
X163357715Y-108538386D01*
X163264781Y-108720776D01*
X163201522Y-108915465D01*
X163169500Y-109117648D01*
X163169500Y-109322351D01*
X163201522Y-109524534D01*
X163264781Y-109719223D01*
X163357715Y-109901613D01*
X163478028Y-110067213D01*
X163622786Y-110211971D01*
X163777749Y-110324556D01*
X163788390Y-110332287D01*
X163904607Y-110391503D01*
X163970776Y-110425218D01*
X163970778Y-110425218D01*
X163970781Y-110425220D01*
X164075137Y-110459127D01*
X164165465Y-110488477D01*
X164266557Y-110504488D01*
X164367648Y-110520500D01*
X164367649Y-110520500D01*
X164572351Y-110520500D01*
X164572352Y-110520500D01*
X164774534Y-110488477D01*
X164969219Y-110425220D01*
X165151610Y-110332287D01*
X165244590Y-110264732D01*
X165317213Y-110211971D01*
X165317215Y-110211968D01*
X165317219Y-110211966D01*
X165461966Y-110067219D01*
X165461968Y-110067215D01*
X165461971Y-110067213D01*
X165514732Y-109994590D01*
X165582287Y-109901610D01*
X165675220Y-109719219D01*
X165738477Y-109524534D01*
X165770500Y-109322352D01*
X165770500Y-109117648D01*
X165738477Y-108915466D01*
X165675220Y-108720781D01*
X165675218Y-108720778D01*
X165675218Y-108720776D01*
X165641503Y-108654607D01*
X165582287Y-108538390D01*
X165574556Y-108527749D01*
X165461971Y-108372786D01*
X165317213Y-108228028D01*
X165151614Y-108107715D01*
X165145006Y-108104348D01*
X165058917Y-108060483D01*
X165008123Y-108012511D01*
X164991328Y-107944690D01*
X165013865Y-107878555D01*
X165058917Y-107839516D01*
X165151610Y-107792287D01*
X165172770Y-107776913D01*
X165317213Y-107671971D01*
X165317215Y-107671968D01*
X165317219Y-107671966D01*
X165461966Y-107527219D01*
X165461968Y-107527215D01*
X165461971Y-107527213D01*
X165514732Y-107454590D01*
X165582287Y-107361610D01*
X165675220Y-107179219D01*
X165738477Y-106984534D01*
X165770500Y-106782352D01*
X165770500Y-106577648D01*
X165759094Y-106505637D01*
X165738477Y-106375465D01*
X165700929Y-106259905D01*
X165675220Y-106180781D01*
X165675218Y-106180778D01*
X165675218Y-106180776D01*
X165629514Y-106091078D01*
X165582287Y-105998390D01*
X165547503Y-105950513D01*
X165461971Y-105832786D01*
X165317213Y-105688028D01*
X165151614Y-105567715D01*
X165145006Y-105564348D01*
X165058917Y-105520483D01*
X165008123Y-105472511D01*
X164991328Y-105404690D01*
X165013865Y-105338555D01*
X165058917Y-105299516D01*
X165151610Y-105252287D01*
X165284585Y-105155676D01*
X165317213Y-105131971D01*
X165317215Y-105131968D01*
X165317219Y-105131966D01*
X165461966Y-104987219D01*
X165461968Y-104987215D01*
X165461971Y-104987213D01*
X165531445Y-104891588D01*
X165582287Y-104821610D01*
X165675220Y-104639219D01*
X165738477Y-104444534D01*
X165770500Y-104242352D01*
X165770500Y-104037648D01*
X165738477Y-103835466D01*
X165675220Y-103640781D01*
X165675218Y-103640778D01*
X165675218Y-103640776D01*
X165641503Y-103574607D01*
X165582287Y-103458390D01*
X165565657Y-103435500D01*
X165461971Y-103292786D01*
X165317213Y-103148028D01*
X165151614Y-103027715D01*
X165130728Y-103017073D01*
X165058917Y-102980483D01*
X165008123Y-102932511D01*
X164991328Y-102864690D01*
X165013865Y-102798555D01*
X165058917Y-102759516D01*
X165151610Y-102712287D01*
X165174259Y-102695832D01*
X165317213Y-102591971D01*
X165317215Y-102591968D01*
X165317219Y-102591966D01*
X165461966Y-102447219D01*
X165461968Y-102447215D01*
X165461971Y-102447213D01*
X165518922Y-102368825D01*
X165582287Y-102281610D01*
X165675220Y-102099219D01*
X165738477Y-101904534D01*
X165770500Y-101702352D01*
X165770500Y-101497648D01*
X165757410Y-101415000D01*
X165738477Y-101295465D01*
X165697514Y-101169394D01*
X165675220Y-101100781D01*
X165675218Y-101100778D01*
X165675218Y-101100776D01*
X165614605Y-100981818D01*
X165582287Y-100918390D01*
X165574556Y-100907749D01*
X165461971Y-100752786D01*
X165317213Y-100608028D01*
X165151611Y-100487713D01*
X165058369Y-100440203D01*
X165007574Y-100392229D01*
X164990779Y-100324407D01*
X165013317Y-100258273D01*
X165058371Y-100219234D01*
X165151346Y-100171861D01*
X165151347Y-100171861D01*
X165195921Y-100139474D01*
X164516447Y-99460000D01*
X164522661Y-99460000D01*
X164624394Y-99432741D01*
X164715606Y-99380080D01*
X164790080Y-99305606D01*
X164842741Y-99214394D01*
X164870000Y-99112661D01*
X164870000Y-99106447D01*
X165549474Y-99785921D01*
X165581859Y-99741349D01*
X165674755Y-99559031D01*
X165737990Y-99364417D01*
X165770000Y-99162317D01*
X165770000Y-98957682D01*
X165737990Y-98755582D01*
X165674755Y-98560968D01*
X165581859Y-98378650D01*
X165549474Y-98334077D01*
X165549474Y-98334076D01*
X164870000Y-99013551D01*
X164870000Y-99007339D01*
X164842741Y-98905606D01*
X164790080Y-98814394D01*
X164715606Y-98739920D01*
X164624394Y-98687259D01*
X164522661Y-98660000D01*
X164516446Y-98660000D01*
X165195922Y-97980524D01*
X165195921Y-97980523D01*
X165151359Y-97948147D01*
X165151350Y-97948141D01*
X165058369Y-97900765D01*
X165007573Y-97852790D01*
X164990778Y-97784969D01*
X165013315Y-97718835D01*
X165058370Y-97679795D01*
X165151610Y-97632287D01*
X165257851Y-97555099D01*
X165317213Y-97511971D01*
X165317215Y-97511968D01*
X165317219Y-97511966D01*
X165461966Y-97367219D01*
X165461968Y-97367215D01*
X165461971Y-97367213D01*
X165548677Y-97247870D01*
X165582287Y-97201610D01*
X165675220Y-97019219D01*
X165738477Y-96824534D01*
X165770500Y-96622352D01*
X165770500Y-96417648D01*
X165738477Y-96215466D01*
X165675220Y-96020781D01*
X165675218Y-96020778D01*
X165675218Y-96020776D01*
X165615433Y-95903443D01*
X165582287Y-95838390D01*
X165557665Y-95804500D01*
X165461971Y-95672786D01*
X165317219Y-95528034D01*
X165271465Y-95494792D01*
X165223547Y-95459978D01*
X165180882Y-95404649D01*
X165174903Y-95335036D01*
X165207508Y-95273240D01*
X165257426Y-95241955D01*
X165339334Y-95214814D01*
X165488656Y-95122712D01*
X165612712Y-94998656D01*
X165704814Y-94849334D01*
X165759999Y-94682797D01*
X165770500Y-94580009D01*
X165770499Y-93877648D01*
X170789500Y-93877648D01*
X170789500Y-94082351D01*
X170821522Y-94284534D01*
X170884781Y-94479223D01*
X170936135Y-94580009D01*
X170977534Y-94661259D01*
X170977715Y-94661613D01*
X171098028Y-94827213D01*
X171242786Y-94971971D01*
X171385741Y-95075832D01*
X171408390Y-95092287D01*
X171488720Y-95133217D01*
X171501080Y-95139515D01*
X171551876Y-95187490D01*
X171568671Y-95255311D01*
X171546134Y-95321446D01*
X171501080Y-95360485D01*
X171408386Y-95407715D01*
X171242786Y-95528028D01*
X171098028Y-95672786D01*
X170977715Y-95838386D01*
X170884781Y-96020776D01*
X170821522Y-96215465D01*
X170789500Y-96417648D01*
X170789500Y-96622351D01*
X170821522Y-96824534D01*
X170884781Y-97019223D01*
X170948691Y-97144653D01*
X170973870Y-97194068D01*
X170977715Y-97201613D01*
X171098028Y-97367213D01*
X171242786Y-97511971D01*
X171408385Y-97632284D01*
X171408387Y-97632285D01*
X171408390Y-97632287D01*
X171501630Y-97679795D01*
X171552426Y-97727770D01*
X171569221Y-97795591D01*
X171546684Y-97861725D01*
X171501630Y-97900765D01*
X171408644Y-97948143D01*
X171364077Y-97980523D01*
X171364077Y-97980524D01*
X172043554Y-98660000D01*
X172037339Y-98660000D01*
X171935606Y-98687259D01*
X171844394Y-98739920D01*
X171769920Y-98814394D01*
X171717259Y-98905606D01*
X171690000Y-99007339D01*
X171690000Y-99013553D01*
X171010524Y-98334077D01*
X171010523Y-98334077D01*
X170978143Y-98378644D01*
X170885244Y-98560968D01*
X170822009Y-98755582D01*
X170790000Y-98957682D01*
X170790000Y-99162317D01*
X170822009Y-99364417D01*
X170885244Y-99559031D01*
X170978141Y-99741350D01*
X170978147Y-99741359D01*
X171010523Y-99785921D01*
X171010524Y-99785922D01*
X171690000Y-99106446D01*
X171690000Y-99112661D01*
X171717259Y-99214394D01*
X171769920Y-99305606D01*
X171844394Y-99380080D01*
X171935606Y-99432741D01*
X172037339Y-99460000D01*
X172043553Y-99460000D01*
X171364076Y-100139474D01*
X171408652Y-100171861D01*
X171501628Y-100219234D01*
X171552425Y-100267208D01*
X171569220Y-100335029D01*
X171546683Y-100401164D01*
X171501630Y-100440203D01*
X171408388Y-100487713D01*
X171242786Y-100608028D01*
X171098028Y-100752786D01*
X170977715Y-100918386D01*
X170884781Y-101100776D01*
X170821522Y-101295465D01*
X170789500Y-101497648D01*
X170789500Y-101702351D01*
X170821522Y-101904534D01*
X170884781Y-102099223D01*
X170942686Y-102212865D01*
X170977534Y-102281259D01*
X170977715Y-102281613D01*
X171098028Y-102447213D01*
X171242786Y-102591971D01*
X171385741Y-102695832D01*
X171408390Y-102712287D01*
X171499840Y-102758883D01*
X171501080Y-102759515D01*
X171551876Y-102807490D01*
X171568671Y-102875311D01*
X171546134Y-102941446D01*
X171501080Y-102980485D01*
X171408386Y-103027715D01*
X171242786Y-103148028D01*
X171098028Y-103292786D01*
X170977715Y-103458386D01*
X170884781Y-103640776D01*
X170821522Y-103835465D01*
X170789500Y-104037648D01*
X170789500Y-104242351D01*
X170821522Y-104444534D01*
X170884781Y-104639223D01*
X170916862Y-104702184D01*
X170969234Y-104804970D01*
X170977715Y-104821613D01*
X171098028Y-104987213D01*
X171242786Y-105131971D01*
X171397749Y-105244556D01*
X171408390Y-105252287D01*
X171499840Y-105298883D01*
X171501080Y-105299515D01*
X171551876Y-105347490D01*
X171568671Y-105415311D01*
X171546134Y-105481446D01*
X171501080Y-105520485D01*
X171408386Y-105567715D01*
X171242786Y-105688028D01*
X171098028Y-105832786D01*
X170977715Y-105998386D01*
X170884781Y-106180776D01*
X170821522Y-106375465D01*
X170789500Y-106577648D01*
X170789500Y-106782351D01*
X170821522Y-106984534D01*
X170884781Y-107179223D01*
X170977715Y-107361613D01*
X171098028Y-107527213D01*
X171242786Y-107671971D01*
X171397749Y-107784556D01*
X171408390Y-107792287D01*
X171499840Y-107838883D01*
X171501080Y-107839515D01*
X171551876Y-107887490D01*
X171568671Y-107955311D01*
X171546134Y-108021446D01*
X171501080Y-108060485D01*
X171408386Y-108107715D01*
X171242786Y-108228028D01*
X171098028Y-108372786D01*
X170977715Y-108538386D01*
X170884781Y-108720776D01*
X170821522Y-108915465D01*
X170789500Y-109117648D01*
X170789500Y-109322351D01*
X170821522Y-109524534D01*
X170884781Y-109719223D01*
X170977715Y-109901613D01*
X171098028Y-110067213D01*
X171242786Y-110211971D01*
X171397749Y-110324556D01*
X171408390Y-110332287D01*
X171524607Y-110391503D01*
X171590776Y-110425218D01*
X171590778Y-110425218D01*
X171590781Y-110425220D01*
X171695137Y-110459127D01*
X171785465Y-110488477D01*
X171886557Y-110504488D01*
X171987648Y-110520500D01*
X171987649Y-110520500D01*
X172192351Y-110520500D01*
X172192352Y-110520500D01*
X172394534Y-110488477D01*
X172589219Y-110425220D01*
X172771610Y-110332287D01*
X172864590Y-110264732D01*
X172937213Y-110211971D01*
X172937215Y-110211968D01*
X172937219Y-110211966D01*
X173081966Y-110067219D01*
X173081968Y-110067215D01*
X173081971Y-110067213D01*
X173134732Y-109994590D01*
X173202287Y-109901610D01*
X173295220Y-109719219D01*
X173358477Y-109524534D01*
X173390500Y-109322352D01*
X173390500Y-109117648D01*
X173358477Y-108915466D01*
X173295220Y-108720781D01*
X173295218Y-108720778D01*
X173295218Y-108720776D01*
X173261503Y-108654607D01*
X173202287Y-108538390D01*
X173194556Y-108527749D01*
X173081971Y-108372786D01*
X172937213Y-108228028D01*
X172771614Y-108107715D01*
X172765006Y-108104348D01*
X172678917Y-108060483D01*
X172628123Y-108012511D01*
X172611328Y-107944690D01*
X172633865Y-107878555D01*
X172678917Y-107839516D01*
X172771610Y-107792287D01*
X172792770Y-107776913D01*
X172937213Y-107671971D01*
X172937215Y-107671968D01*
X172937219Y-107671966D01*
X173081966Y-107527219D01*
X173081968Y-107527215D01*
X173081971Y-107527213D01*
X173134732Y-107454590D01*
X173202287Y-107361610D01*
X173295220Y-107179219D01*
X173336269Y-107052882D01*
X173970669Y-107052882D01*
X173970670Y-107052883D01*
X173996059Y-107071329D01*
X174164362Y-107157085D01*
X174343997Y-107215451D01*
X174530553Y-107245000D01*
X174719447Y-107245000D01*
X174906002Y-107215451D01*
X175085637Y-107157085D01*
X175253937Y-107071331D01*
X175279328Y-107052883D01*
X175279328Y-107052882D01*
X174625001Y-106398554D01*
X174625000Y-106398554D01*
X173970669Y-107052882D01*
X173336269Y-107052882D01*
X173358477Y-106984534D01*
X173390500Y-106782352D01*
X173390500Y-106760233D01*
X173391748Y-106751503D01*
X173402726Y-106727410D01*
X173410185Y-106702011D01*
X173416987Y-106696116D01*
X173420721Y-106687923D01*
X173442985Y-106673588D01*
X173462989Y-106656256D01*
X173471898Y-106654974D01*
X173479469Y-106650101D01*
X173505943Y-106650079D01*
X173532147Y-106646312D01*
X173540336Y-106650052D01*
X173549338Y-106650045D01*
X173571618Y-106664338D01*
X173595703Y-106675337D01*
X173605636Y-106686160D01*
X173608147Y-106687771D01*
X173609174Y-106690015D01*
X173614819Y-106696166D01*
X173617116Y-106699328D01*
X174271446Y-106045000D01*
X174271446Y-106044999D01*
X174225369Y-105998922D01*
X174275000Y-105998922D01*
X174275000Y-106091078D01*
X174298852Y-106180095D01*
X174344930Y-106259905D01*
X174410095Y-106325070D01*
X174489905Y-106371148D01*
X174578922Y-106395000D01*
X174671078Y-106395000D01*
X174760095Y-106371148D01*
X174839905Y-106325070D01*
X174905070Y-106259905D01*
X174951148Y-106180095D01*
X174975000Y-106091078D01*
X174975000Y-106044999D01*
X174978554Y-106044999D01*
X174978554Y-106045000D01*
X175632882Y-106699328D01*
X175632883Y-106699328D01*
X175651331Y-106673937D01*
X175737085Y-106505637D01*
X175795451Y-106326002D01*
X175825000Y-106139447D01*
X175825000Y-105950552D01*
X175795451Y-105763997D01*
X175737085Y-105584362D01*
X175651329Y-105416059D01*
X175632883Y-105390670D01*
X175632882Y-105390669D01*
X174978554Y-106044999D01*
X174975000Y-106044999D01*
X174975000Y-105998922D01*
X174951148Y-105909905D01*
X174905070Y-105830095D01*
X174839905Y-105764930D01*
X174760095Y-105718852D01*
X174671078Y-105695000D01*
X174578922Y-105695000D01*
X174489905Y-105718852D01*
X174410095Y-105764930D01*
X174344930Y-105830095D01*
X174298852Y-105909905D01*
X174275000Y-105998922D01*
X174225369Y-105998922D01*
X173617116Y-105390669D01*
X173617116Y-105390670D01*
X173598669Y-105416060D01*
X173512914Y-105584362D01*
X173454548Y-105763997D01*
X173425748Y-105945826D01*
X173395818Y-106008960D01*
X173336506Y-106045891D01*
X173266644Y-106044893D01*
X173208411Y-106006283D01*
X173202956Y-105999312D01*
X173202289Y-105998393D01*
X173202287Y-105998390D01*
X173081966Y-105832781D01*
X172937219Y-105688034D01*
X172937213Y-105688028D01*
X172771614Y-105567715D01*
X172765006Y-105564348D01*
X172678917Y-105520483D01*
X172628123Y-105472511D01*
X172611328Y-105404690D01*
X172633865Y-105338555D01*
X172678917Y-105299516D01*
X172771610Y-105252287D01*
X172904585Y-105155676D01*
X172937213Y-105131971D01*
X172937215Y-105131968D01*
X172937219Y-105131966D01*
X173032069Y-105037116D01*
X173970669Y-105037116D01*
X174625000Y-105691446D01*
X174625001Y-105691446D01*
X175012732Y-105303713D01*
X179624500Y-105303713D01*
X179624500Y-105516286D01*
X179657316Y-105723482D01*
X179657754Y-105726243D01*
X179704735Y-105870836D01*
X179723444Y-105928414D01*
X179819951Y-106117820D01*
X179944890Y-106289786D01*
X180095213Y-106440109D01*
X180267179Y-106565048D01*
X180267181Y-106565049D01*
X180267184Y-106565051D01*
X180456588Y-106661557D01*
X180658757Y-106727246D01*
X180868713Y-106760500D01*
X180868714Y-106760500D01*
X181081286Y-106760500D01*
X181081287Y-106760500D01*
X181291243Y-106727246D01*
X181493412Y-106661557D01*
X181682816Y-106565051D01*
X181764593Y-106505637D01*
X181854786Y-106440109D01*
X181854788Y-106440106D01*
X181854792Y-106440104D01*
X182005104Y-106289792D01*
X182005106Y-106289788D01*
X182005109Y-106289786D01*
X182130048Y-106117820D01*
X182130047Y-106117820D01*
X182130051Y-106117816D01*
X182226557Y-105928412D01*
X182292246Y-105726243D01*
X182325500Y-105516287D01*
X182325500Y-105303713D01*
X182292246Y-105093757D01*
X182226557Y-104891588D01*
X182130051Y-104702184D01*
X182130049Y-104702181D01*
X182130048Y-104702179D01*
X182005109Y-104530213D01*
X181854786Y-104379890D01*
X181682820Y-104254951D01*
X181493414Y-104158444D01*
X181493413Y-104158443D01*
X181493412Y-104158443D01*
X181291243Y-104092754D01*
X181291241Y-104092753D01*
X181291240Y-104092753D01*
X181129957Y-104067208D01*
X181081287Y-104059500D01*
X180868713Y-104059500D01*
X180820042Y-104067208D01*
X180658760Y-104092753D01*
X180456585Y-104158444D01*
X180267179Y-104254951D01*
X180095213Y-104379890D01*
X179944890Y-104530213D01*
X179819951Y-104702179D01*
X179723444Y-104891585D01*
X179657753Y-105093760D01*
X179624500Y-105303713D01*
X175012732Y-105303713D01*
X175279328Y-105037116D01*
X175253933Y-105018666D01*
X175085637Y-104932914D01*
X174906002Y-104874548D01*
X174719447Y-104845000D01*
X174530553Y-104845000D01*
X174343997Y-104874548D01*
X174164362Y-104932914D01*
X173996060Y-105018669D01*
X173970670Y-105037116D01*
X173970669Y-105037116D01*
X173032069Y-105037116D01*
X173081966Y-104987219D01*
X173081968Y-104987215D01*
X173081971Y-104987213D01*
X173151445Y-104891588D01*
X173202287Y-104821610D01*
X173295220Y-104639219D01*
X173358477Y-104444534D01*
X173390500Y-104242352D01*
X173390500Y-104037648D01*
X173358477Y-103835466D01*
X173295220Y-103640781D01*
X173295218Y-103640778D01*
X173295218Y-103640776D01*
X173261503Y-103574607D01*
X173202287Y-103458390D01*
X173185657Y-103435500D01*
X173081971Y-103292786D01*
X172937213Y-103148028D01*
X172771614Y-103027715D01*
X172750728Y-103017073D01*
X172678917Y-102980483D01*
X172628123Y-102932511D01*
X172611328Y-102864690D01*
X172633865Y-102798555D01*
X172678917Y-102759516D01*
X172771610Y-102712287D01*
X172794259Y-102695832D01*
X172937213Y-102591971D01*
X172937215Y-102591968D01*
X172937219Y-102591966D01*
X173081966Y-102447219D01*
X173202287Y-102281610D01*
X173202289Y-102281605D01*
X173202541Y-102281259D01*
X173257871Y-102238593D01*
X173327484Y-102232614D01*
X173389280Y-102265219D01*
X173423637Y-102326057D01*
X173425333Y-102334746D01*
X173454059Y-102516118D01*
X173512454Y-102695836D01*
X173569345Y-102807490D01*
X173598240Y-102864199D01*
X173709310Y-103017073D01*
X173842927Y-103150690D01*
X173995801Y-103261760D01*
X174056693Y-103292786D01*
X174164163Y-103347545D01*
X174164165Y-103347545D01*
X174164168Y-103347547D01*
X174260497Y-103378846D01*
X174343881Y-103405940D01*
X174530514Y-103435500D01*
X174530519Y-103435500D01*
X174719486Y-103435500D01*
X174906118Y-103405940D01*
X175085832Y-103347547D01*
X175254199Y-103261760D01*
X175407073Y-103150690D01*
X175540690Y-103017073D01*
X175651760Y-102864199D01*
X175737547Y-102695832D01*
X175795940Y-102516118D01*
X175804780Y-102460305D01*
X175825500Y-102329486D01*
X175825500Y-102140513D01*
X181044500Y-102140513D01*
X181044500Y-102329486D01*
X181074059Y-102516118D01*
X181132454Y-102695836D01*
X181189345Y-102807490D01*
X181218240Y-102864199D01*
X181329310Y-103017073D01*
X181462927Y-103150690D01*
X181615801Y-103261760D01*
X181676693Y-103292786D01*
X181784163Y-103347545D01*
X181784165Y-103347545D01*
X181784168Y-103347547D01*
X181880497Y-103378846D01*
X181963881Y-103405940D01*
X182150514Y-103435500D01*
X182150519Y-103435500D01*
X182339486Y-103435500D01*
X182526118Y-103405940D01*
X182705832Y-103347547D01*
X182874199Y-103261760D01*
X183027073Y-103150690D01*
X183160690Y-103017073D01*
X183271760Y-102864199D01*
X183357547Y-102695832D01*
X183415940Y-102516118D01*
X183424780Y-102460305D01*
X183445500Y-102329486D01*
X183445500Y-102140513D01*
X183415940Y-101953881D01*
X183357545Y-101774163D01*
X183299684Y-101660606D01*
X183271760Y-101605801D01*
X183160690Y-101452927D01*
X183027073Y-101319310D01*
X182874199Y-101208240D01*
X182705836Y-101122454D01*
X182526118Y-101064059D01*
X182339486Y-101034500D01*
X182339481Y-101034500D01*
X182150519Y-101034500D01*
X182150514Y-101034500D01*
X181963881Y-101064059D01*
X181784163Y-101122454D01*
X181615800Y-101208240D01*
X181543726Y-101260606D01*
X181462927Y-101319310D01*
X181462925Y-101319312D01*
X181462924Y-101319312D01*
X181329312Y-101452924D01*
X181329312Y-101452925D01*
X181329310Y-101452927D01*
X181318605Y-101467661D01*
X181218240Y-101605800D01*
X181132454Y-101774163D01*
X181074059Y-101953881D01*
X181044500Y-102140513D01*
X175825500Y-102140513D01*
X175795940Y-101953881D01*
X175737545Y-101774163D01*
X175679684Y-101660606D01*
X175651760Y-101605801D01*
X175540690Y-101452927D01*
X175407073Y-101319310D01*
X175254199Y-101208240D01*
X175085836Y-101122454D01*
X174906118Y-101064059D01*
X174719486Y-101034500D01*
X174719481Y-101034500D01*
X174530519Y-101034500D01*
X174530514Y-101034500D01*
X174343881Y-101064059D01*
X174164163Y-101122454D01*
X173995800Y-101208240D01*
X173923726Y-101260606D01*
X173842927Y-101319310D01*
X173842925Y-101319312D01*
X173842924Y-101319312D01*
X173709311Y-101452925D01*
X173614818Y-101582983D01*
X173559487Y-101625648D01*
X173489874Y-101631627D01*
X173428079Y-101599021D01*
X173393722Y-101538182D01*
X173390500Y-101510097D01*
X173390500Y-101497648D01*
X173358477Y-101295465D01*
X173317514Y-101169394D01*
X173295220Y-101100781D01*
X173295218Y-101100778D01*
X173295218Y-101100776D01*
X173234605Y-100981818D01*
X173202287Y-100918390D01*
X173194556Y-100907749D01*
X173081971Y-100752786D01*
X172937213Y-100608028D01*
X172771611Y-100487713D01*
X172678369Y-100440203D01*
X172627574Y-100392229D01*
X172610779Y-100324407D01*
X172633317Y-100258273D01*
X172678371Y-100219234D01*
X172771346Y-100171861D01*
X172771347Y-100171861D01*
X172815921Y-100139474D01*
X172136447Y-99460000D01*
X172142661Y-99460000D01*
X172244394Y-99432741D01*
X172335606Y-99380080D01*
X172410080Y-99305606D01*
X172462741Y-99214394D01*
X172490000Y-99112661D01*
X172490000Y-99106448D01*
X173169474Y-99785922D01*
X173169474Y-99785921D01*
X173201859Y-99741349D01*
X173294755Y-99559031D01*
X173357990Y-99364417D01*
X173390000Y-99162317D01*
X173390000Y-99149214D01*
X173409685Y-99082175D01*
X173462489Y-99036420D01*
X173531647Y-99026476D01*
X173595203Y-99055501D01*
X173614316Y-99076326D01*
X173709310Y-99207073D01*
X173842927Y-99340690D01*
X173995801Y-99451760D01*
X174038186Y-99473356D01*
X174164163Y-99537545D01*
X174164165Y-99537545D01*
X174164168Y-99537547D01*
X174230289Y-99559031D01*
X174343881Y-99595940D01*
X174530514Y-99625500D01*
X174530519Y-99625500D01*
X174719486Y-99625500D01*
X174906118Y-99595940D01*
X174928360Y-99588713D01*
X175085832Y-99537547D01*
X175254199Y-99451760D01*
X175407073Y-99340690D01*
X175540690Y-99207073D01*
X175651760Y-99054199D01*
X175737547Y-98885832D01*
X175795940Y-98706118D01*
X175803244Y-98660000D01*
X175825500Y-98519486D01*
X175825500Y-98330513D01*
X181044500Y-98330513D01*
X181044500Y-98519486D01*
X181074059Y-98706118D01*
X181132454Y-98885836D01*
X181197717Y-99013920D01*
X181218240Y-99054199D01*
X181329310Y-99207073D01*
X181462927Y-99340690D01*
X181615801Y-99451760D01*
X181658186Y-99473356D01*
X181784163Y-99537545D01*
X181784165Y-99537545D01*
X181784168Y-99537547D01*
X181850289Y-99559031D01*
X181963881Y-99595940D01*
X182150514Y-99625500D01*
X182150519Y-99625500D01*
X182339486Y-99625500D01*
X182526118Y-99595940D01*
X182548360Y-99588713D01*
X182705832Y-99537547D01*
X182874199Y-99451760D01*
X183027073Y-99340690D01*
X183160690Y-99207073D01*
X183271760Y-99054199D01*
X183357547Y-98885832D01*
X183415940Y-98706118D01*
X183423244Y-98660000D01*
X183445500Y-98519486D01*
X183445500Y-98330513D01*
X183415940Y-98143881D01*
X183357545Y-97964163D01*
X183300797Y-97852790D01*
X183271760Y-97795801D01*
X183160690Y-97642927D01*
X183027073Y-97509310D01*
X182874199Y-97398240D01*
X182813317Y-97367219D01*
X182705836Y-97312454D01*
X182526118Y-97254059D01*
X182339486Y-97224500D01*
X182339481Y-97224500D01*
X182150519Y-97224500D01*
X182150514Y-97224500D01*
X181963881Y-97254059D01*
X181784163Y-97312454D01*
X181615800Y-97398240D01*
X181528579Y-97461610D01*
X181462927Y-97509310D01*
X181462925Y-97509312D01*
X181462924Y-97509312D01*
X181329312Y-97642924D01*
X181329312Y-97642925D01*
X181329310Y-97642927D01*
X181307160Y-97673414D01*
X181218240Y-97795800D01*
X181132454Y-97964163D01*
X181074059Y-98143881D01*
X181044500Y-98330513D01*
X175825500Y-98330513D01*
X175795940Y-98143881D01*
X175737545Y-97964163D01*
X175680797Y-97852790D01*
X175651760Y-97795801D01*
X175540690Y-97642927D01*
X175407073Y-97509310D01*
X175254199Y-97398240D01*
X175193317Y-97367219D01*
X175085836Y-97312454D01*
X174906118Y-97254059D01*
X174719486Y-97224500D01*
X174719481Y-97224500D01*
X174530519Y-97224500D01*
X174530514Y-97224500D01*
X174343881Y-97254059D01*
X174164163Y-97312454D01*
X173995800Y-97398240D01*
X173908579Y-97461610D01*
X173842927Y-97509310D01*
X173842925Y-97509312D01*
X173842924Y-97509312D01*
X173709312Y-97642924D01*
X173709312Y-97642925D01*
X173709310Y-97642927D01*
X173687160Y-97673414D01*
X173598240Y-97795800D01*
X173512454Y-97964163D01*
X173454060Y-98143880D01*
X173425222Y-98325951D01*
X173395292Y-98389085D01*
X173335981Y-98426016D01*
X173266118Y-98425018D01*
X173207886Y-98386408D01*
X173202431Y-98379437D01*
X173169475Y-98334077D01*
X173169474Y-98334076D01*
X172490000Y-99013551D01*
X172490000Y-99007339D01*
X172462741Y-98905606D01*
X172410080Y-98814394D01*
X172335606Y-98739920D01*
X172244394Y-98687259D01*
X172142661Y-98660000D01*
X172136446Y-98660000D01*
X172815922Y-97980524D01*
X172815921Y-97980523D01*
X172771359Y-97948147D01*
X172771350Y-97948141D01*
X172678369Y-97900765D01*
X172627573Y-97852790D01*
X172610778Y-97784969D01*
X172633315Y-97718835D01*
X172678370Y-97679795D01*
X172771610Y-97632287D01*
X172877851Y-97555099D01*
X172937213Y-97511971D01*
X172937215Y-97511968D01*
X172937219Y-97511966D01*
X173081966Y-97367219D01*
X173081968Y-97367215D01*
X173081971Y-97367213D01*
X173168677Y-97247870D01*
X173202287Y-97201610D01*
X173295220Y-97019219D01*
X173358477Y-96824534D01*
X173390500Y-96622352D01*
X173390500Y-96417648D01*
X173358477Y-96215466D01*
X173295220Y-96020781D01*
X173295218Y-96020778D01*
X173295218Y-96020776D01*
X173235433Y-95903443D01*
X173202287Y-95838390D01*
X173177665Y-95804500D01*
X173081971Y-95672786D01*
X172937213Y-95528028D01*
X172771614Y-95407715D01*
X172738732Y-95390961D01*
X172678917Y-95360483D01*
X172628123Y-95312511D01*
X172611328Y-95244690D01*
X172633865Y-95178555D01*
X172678917Y-95139516D01*
X172771610Y-95092287D01*
X172837775Y-95044216D01*
X172937213Y-94971971D01*
X172937215Y-94971968D01*
X172937219Y-94971966D01*
X173081966Y-94827219D01*
X173202287Y-94661610D01*
X173202289Y-94661605D01*
X173202541Y-94661259D01*
X173257871Y-94618593D01*
X173327484Y-94612614D01*
X173389280Y-94645219D01*
X173423637Y-94706057D01*
X173425333Y-94714746D01*
X173454059Y-94896118D01*
X173512454Y-95075836D01*
X173597096Y-95241954D01*
X173598240Y-95244199D01*
X173709310Y-95397073D01*
X173842927Y-95530690D01*
X173995801Y-95641760D01*
X174056693Y-95672786D01*
X174164163Y-95727545D01*
X174164165Y-95727545D01*
X174164168Y-95727547D01*
X174260497Y-95758846D01*
X174343881Y-95785940D01*
X174530514Y-95815500D01*
X174530519Y-95815500D01*
X174719486Y-95815500D01*
X174906118Y-95785940D01*
X175085832Y-95727547D01*
X175254199Y-95641760D01*
X175407073Y-95530690D01*
X175540690Y-95397073D01*
X175651760Y-95244199D01*
X175737547Y-95075832D01*
X175795940Y-94896118D01*
X175797293Y-94887577D01*
X175825500Y-94709486D01*
X175825500Y-94520513D01*
X181044500Y-94520513D01*
X181044500Y-94709486D01*
X181074059Y-94896118D01*
X181132454Y-95075836D01*
X181217096Y-95241954D01*
X181218240Y-95244199D01*
X181329310Y-95397073D01*
X181462927Y-95530690D01*
X181615801Y-95641760D01*
X181676693Y-95672786D01*
X181784163Y-95727545D01*
X181784165Y-95727545D01*
X181784168Y-95727547D01*
X181880497Y-95758846D01*
X181963881Y-95785940D01*
X182150514Y-95815500D01*
X182150519Y-95815500D01*
X182339486Y-95815500D01*
X182526118Y-95785940D01*
X182705832Y-95727547D01*
X182874199Y-95641760D01*
X183027073Y-95530690D01*
X183160690Y-95397073D01*
X183271760Y-95244199D01*
X183320341Y-95148852D01*
X183368314Y-95098058D01*
X183436134Y-95081262D01*
X183502270Y-95103799D01*
X183541310Y-95148853D01*
X183570395Y-95205934D01*
X183629813Y-95322550D01*
X183629951Y-95322819D01*
X183754890Y-95494786D01*
X183905213Y-95645109D01*
X184077179Y-95770048D01*
X184077181Y-95770049D01*
X184077184Y-95770051D01*
X184086493Y-95774794D01*
X184137290Y-95822766D01*
X184154087Y-95890587D01*
X184131552Y-95956722D01*
X184086505Y-95995760D01*
X184077446Y-96000376D01*
X184077440Y-96000380D01*
X184023282Y-96039727D01*
X184023282Y-96039728D01*
X184655591Y-96672037D01*
X184592007Y-96689075D01*
X184477993Y-96754901D01*
X184384901Y-96847993D01*
X184319075Y-96962007D01*
X184302037Y-97025591D01*
X183669728Y-96393282D01*
X183669727Y-96393282D01*
X183630380Y-96447439D01*
X183533904Y-96636782D01*
X183468242Y-96838869D01*
X183468242Y-96838872D01*
X183435000Y-97048753D01*
X183435000Y-97261246D01*
X183468242Y-97471127D01*
X183468242Y-97471130D01*
X183533904Y-97673217D01*
X183630375Y-97862550D01*
X183669728Y-97916716D01*
X184302037Y-97284408D01*
X184319075Y-97347993D01*
X184384901Y-97462007D01*
X184477993Y-97555099D01*
X184592007Y-97620925D01*
X184655590Y-97637962D01*
X184023282Y-98270269D01*
X184023282Y-98270270D01*
X184077452Y-98309626D01*
X184077451Y-98309626D01*
X184086495Y-98314234D01*
X184137292Y-98362208D01*
X184154087Y-98430029D01*
X184131550Y-98496164D01*
X184086499Y-98535202D01*
X184077182Y-98539949D01*
X183905213Y-98664890D01*
X183754890Y-98815213D01*
X183629951Y-98987179D01*
X183533444Y-99176585D01*
X183467753Y-99378760D01*
X183456191Y-99451760D01*
X183434500Y-99588713D01*
X183434500Y-99801287D01*
X183467754Y-100011243D01*
X183527713Y-100195778D01*
X183533444Y-100213414D01*
X183629951Y-100402820D01*
X183754890Y-100574786D01*
X183905213Y-100725109D01*
X184077179Y-100850048D01*
X184077181Y-100850049D01*
X184077184Y-100850051D01*
X184266588Y-100946557D01*
X184468757Y-101012246D01*
X184678713Y-101045500D01*
X184678714Y-101045500D01*
X184891286Y-101045500D01*
X184891287Y-101045500D01*
X185101243Y-101012246D01*
X185303412Y-100946557D01*
X185492816Y-100850051D01*
X185566819Y-100796285D01*
X185664786Y-100725109D01*
X185664788Y-100725106D01*
X185664792Y-100725104D01*
X185815104Y-100574792D01*
X185815106Y-100574788D01*
X185815109Y-100574786D01*
X185940048Y-100402820D01*
X185940047Y-100402820D01*
X185940051Y-100402816D01*
X186036557Y-100213412D01*
X186102246Y-100011243D01*
X186135500Y-99801287D01*
X186135500Y-99588713D01*
X186102246Y-99378757D01*
X186036557Y-99176588D01*
X185940051Y-98987184D01*
X185940049Y-98987181D01*
X185940048Y-98987179D01*
X185815109Y-98815213D01*
X185664786Y-98664890D01*
X185492817Y-98539949D01*
X185483504Y-98535204D01*
X185432707Y-98487230D01*
X185415912Y-98419409D01*
X185438449Y-98353274D01*
X185483507Y-98314232D01*
X185492555Y-98309622D01*
X185546716Y-98270270D01*
X185546717Y-98270270D01*
X184914408Y-97637962D01*
X184977993Y-97620925D01*
X185092007Y-97555099D01*
X185185099Y-97462007D01*
X185250925Y-97347993D01*
X185267962Y-97284408D01*
X185900270Y-97916717D01*
X185900270Y-97916716D01*
X185939622Y-97862554D01*
X186036095Y-97673217D01*
X186101757Y-97471130D01*
X186101757Y-97471127D01*
X186135000Y-97261246D01*
X186135000Y-97048753D01*
X186101757Y-96838872D01*
X186101757Y-96838869D01*
X186036095Y-96636782D01*
X185939624Y-96447449D01*
X185900270Y-96393282D01*
X185900269Y-96393282D01*
X185267962Y-97025590D01*
X185250925Y-96962007D01*
X185185099Y-96847993D01*
X185092007Y-96754901D01*
X184977993Y-96689075D01*
X184914409Y-96672037D01*
X185546716Y-96039728D01*
X185492547Y-96000373D01*
X185492547Y-96000372D01*
X185483500Y-95995763D01*
X185432706Y-95947788D01*
X185415912Y-95879966D01*
X185438451Y-95813832D01*
X185483508Y-95774793D01*
X185492816Y-95770051D01*
X185626698Y-95672781D01*
X185664786Y-95645109D01*
X185664788Y-95645106D01*
X185664792Y-95645104D01*
X185815104Y-95494792D01*
X185815106Y-95494788D01*
X185815109Y-95494786D01*
X185940048Y-95322820D01*
X185940049Y-95322819D01*
X185940051Y-95322816D01*
X186036557Y-95133412D01*
X186102246Y-94931243D01*
X186135500Y-94721287D01*
X186135500Y-94508713D01*
X186102246Y-94298757D01*
X186036557Y-94096588D01*
X185940051Y-93907184D01*
X185940049Y-93907181D01*
X185940048Y-93907179D01*
X185815109Y-93735213D01*
X185664786Y-93584890D01*
X185492820Y-93459951D01*
X185303414Y-93363444D01*
X185303413Y-93363443D01*
X185303412Y-93363443D01*
X185101243Y-93297754D01*
X185101241Y-93297753D01*
X185101240Y-93297753D01*
X184939957Y-93272208D01*
X184891287Y-93264500D01*
X184678713Y-93264500D01*
X184630042Y-93272208D01*
X184468760Y-93297753D01*
X184266585Y-93363444D01*
X184077179Y-93459951D01*
X183905213Y-93584890D01*
X183754890Y-93735213D01*
X183629951Y-93907180D01*
X183541310Y-94081146D01*
X183493335Y-94131942D01*
X183425514Y-94148737D01*
X183359379Y-94126199D01*
X183320340Y-94081145D01*
X183271761Y-93985802D01*
X183255075Y-93962836D01*
X183160690Y-93832927D01*
X183027073Y-93699310D01*
X182874199Y-93588240D01*
X182867624Y-93584890D01*
X182705836Y-93502454D01*
X182526118Y-93444059D01*
X182339486Y-93414500D01*
X182339481Y-93414500D01*
X182150519Y-93414500D01*
X182150514Y-93414500D01*
X181963881Y-93444059D01*
X181784163Y-93502454D01*
X181615800Y-93588240D01*
X181528579Y-93651610D01*
X181462927Y-93699310D01*
X181462925Y-93699312D01*
X181462924Y-93699312D01*
X181329312Y-93832924D01*
X181329312Y-93832925D01*
X181329310Y-93832927D01*
X181287773Y-93890097D01*
X181218240Y-93985800D01*
X181132454Y-94154163D01*
X181074059Y-94333881D01*
X181044500Y-94520513D01*
X175825500Y-94520513D01*
X175795940Y-94333881D01*
X175737545Y-94154163D01*
X175692290Y-94065347D01*
X175651760Y-93985801D01*
X175540690Y-93832927D01*
X175407073Y-93699310D01*
X175254199Y-93588240D01*
X175247624Y-93584890D01*
X175085836Y-93502454D01*
X174906118Y-93444059D01*
X174719486Y-93414500D01*
X174719481Y-93414500D01*
X174530519Y-93414500D01*
X174530514Y-93414500D01*
X174343881Y-93444059D01*
X174164163Y-93502454D01*
X173995800Y-93588240D01*
X173908579Y-93651610D01*
X173842927Y-93699310D01*
X173842925Y-93699312D01*
X173842924Y-93699312D01*
X173709311Y-93832925D01*
X173614818Y-93962983D01*
X173559487Y-94005648D01*
X173489874Y-94011627D01*
X173428079Y-93979021D01*
X173393722Y-93918182D01*
X173390500Y-93890097D01*
X173390500Y-93877648D01*
X173358477Y-93675465D01*
X173329047Y-93584890D01*
X173295220Y-93480781D01*
X173295218Y-93480778D01*
X173295218Y-93480776D01*
X173243865Y-93379991D01*
X173202287Y-93298390D01*
X173177665Y-93264500D01*
X173081971Y-93132786D01*
X172937213Y-92988028D01*
X172771613Y-92867715D01*
X172771612Y-92867714D01*
X172771610Y-92867713D01*
X172711898Y-92837288D01*
X172589223Y-92774781D01*
X172394534Y-92711522D01*
X172219995Y-92683878D01*
X172192352Y-92679500D01*
X171987648Y-92679500D01*
X171963329Y-92683351D01*
X171785465Y-92711522D01*
X171590776Y-92774781D01*
X171408386Y-92867715D01*
X171242786Y-92988028D01*
X171098028Y-93132786D01*
X170977715Y-93298386D01*
X170884781Y-93480776D01*
X170821522Y-93675465D01*
X170789500Y-93877648D01*
X165770499Y-93877648D01*
X165770499Y-93379992D01*
X165759999Y-93277203D01*
X165704814Y-93110666D01*
X165612712Y-92961344D01*
X165488656Y-92837288D01*
X165339334Y-92745186D01*
X165172797Y-92690001D01*
X165172795Y-92690000D01*
X165070010Y-92679500D01*
X163869998Y-92679500D01*
X163869981Y-92679501D01*
X163767203Y-92690000D01*
X163767200Y-92690001D01*
X163600668Y-92745185D01*
X163600663Y-92745187D01*
X163451342Y-92837289D01*
X163327289Y-92961342D01*
X163235187Y-93110663D01*
X163235186Y-93110666D01*
X163180001Y-93277203D01*
X163180001Y-93277204D01*
X163180000Y-93277204D01*
X163169500Y-93379983D01*
X163169500Y-93903861D01*
X163149815Y-93970900D01*
X163097011Y-94016655D01*
X163027853Y-94026599D01*
X162964297Y-93997574D01*
X162945182Y-93976747D01*
X162902632Y-93918182D01*
X162840690Y-93832927D01*
X162707073Y-93699310D01*
X162554199Y-93588240D01*
X162547624Y-93584890D01*
X162385836Y-93502454D01*
X162206118Y-93444059D01*
X162019486Y-93414500D01*
X162019481Y-93414500D01*
X161830519Y-93414500D01*
X161830514Y-93414500D01*
X161643881Y-93444059D01*
X161464163Y-93502454D01*
X161295800Y-93588240D01*
X161208579Y-93651610D01*
X161142927Y-93699310D01*
X161142925Y-93699312D01*
X161142924Y-93699312D01*
X161009312Y-93832924D01*
X161009312Y-93832925D01*
X161009310Y-93832927D01*
X160967773Y-93890097D01*
X160898240Y-93985800D01*
X160812454Y-94154163D01*
X160754059Y-94333881D01*
X160724500Y-94520513D01*
X155505500Y-94520513D01*
X155475940Y-94333881D01*
X155417545Y-94154163D01*
X155372290Y-94065347D01*
X155331760Y-93985801D01*
X155220690Y-93832927D01*
X155087073Y-93699310D01*
X154934199Y-93588240D01*
X154927624Y-93584890D01*
X154765836Y-93502454D01*
X154586118Y-93444059D01*
X154399486Y-93414500D01*
X154399481Y-93414500D01*
X154210519Y-93414500D01*
X154210514Y-93414500D01*
X154023881Y-93444059D01*
X153844163Y-93502454D01*
X153675800Y-93588240D01*
X153588579Y-93651610D01*
X153522927Y-93699310D01*
X153522925Y-93699312D01*
X153522924Y-93699312D01*
X153389312Y-93832924D01*
X153389312Y-93832925D01*
X153389310Y-93832927D01*
X153337773Y-93903861D01*
X153278238Y-93985803D01*
X153229377Y-94081697D01*
X153181402Y-94132492D01*
X153113581Y-94149287D01*
X153047447Y-94126749D01*
X153008408Y-94081696D01*
X152919624Y-93907449D01*
X152880270Y-93853282D01*
X152880269Y-93853282D01*
X152247962Y-94485590D01*
X152230925Y-94422007D01*
X152165099Y-94307993D01*
X152072007Y-94214901D01*
X151957993Y-94149075D01*
X151894409Y-94132037D01*
X152526716Y-93499728D01*
X152472550Y-93460375D01*
X152283217Y-93363904D01*
X152081129Y-93298242D01*
X151871246Y-93265000D01*
X151658754Y-93265000D01*
X151448872Y-93298242D01*
X151448869Y-93298242D01*
X151246782Y-93363904D01*
X151057439Y-93460380D01*
X151003282Y-93499727D01*
X151003282Y-93499728D01*
X151635591Y-94132037D01*
X151572007Y-94149075D01*
X151457993Y-94214901D01*
X151364901Y-94307993D01*
X151299075Y-94422007D01*
X151282037Y-94485591D01*
X150649728Y-93853282D01*
X150649727Y-93853282D01*
X150610380Y-93907439D01*
X150513904Y-94096782D01*
X150448242Y-94298869D01*
X150448242Y-94298872D01*
X150415000Y-94508753D01*
X150415000Y-94721246D01*
X150448242Y-94931127D01*
X150448242Y-94931130D01*
X150513904Y-95133217D01*
X150610375Y-95322550D01*
X150649728Y-95376716D01*
X151282037Y-94744408D01*
X151299075Y-94807993D01*
X151364901Y-94922007D01*
X151457993Y-95015099D01*
X151572007Y-95080925D01*
X151635590Y-95097962D01*
X151003282Y-95730269D01*
X151003282Y-95730270D01*
X151057452Y-95769626D01*
X151057451Y-95769626D01*
X151066495Y-95774234D01*
X151117292Y-95822208D01*
X151134087Y-95890029D01*
X151111550Y-95956164D01*
X151066499Y-95995202D01*
X151057182Y-95999949D01*
X150885213Y-96124890D01*
X150734890Y-96275213D01*
X150609951Y-96447179D01*
X150513444Y-96636585D01*
X150447753Y-96838760D01*
X150414500Y-97048713D01*
X142813891Y-97048713D01*
X142842717Y-97009038D01*
X142847142Y-97000352D01*
X142853669Y-96987545D01*
X142936726Y-96824534D01*
X142946548Y-96805258D01*
X143017222Y-96587745D01*
X143053000Y-96361854D01*
X143053000Y-96038146D01*
X143017222Y-95812255D01*
X143017221Y-95812251D01*
X143017221Y-95812250D01*
X142946549Y-95594744D01*
X142913910Y-95530687D01*
X142842717Y-95390962D01*
X142708286Y-95205934D01*
X142546566Y-95044214D01*
X142361538Y-94909783D01*
X142317956Y-94887577D01*
X142157755Y-94805950D01*
X141940248Y-94735278D01*
X141754812Y-94705908D01*
X141714354Y-94699500D01*
X141485646Y-94699500D01*
X141422629Y-94709481D01*
X141259753Y-94735278D01*
X141259750Y-94735278D01*
X141042244Y-94805950D01*
X140838461Y-94909783D01*
X140752868Y-94971971D01*
X140653434Y-95044214D01*
X140653432Y-95044216D01*
X140653431Y-95044216D01*
X140491715Y-95205932D01*
X140430318Y-95290438D01*
X140374987Y-95333103D01*
X140305374Y-95339082D01*
X140243579Y-95306476D01*
X140229682Y-95290438D01*
X140214832Y-95269999D01*
X140168286Y-95205934D01*
X140006566Y-95044214D01*
X139821538Y-94909783D01*
X139777956Y-94887577D01*
X139617755Y-94805950D01*
X139400248Y-94735278D01*
X139214812Y-94705908D01*
X139174354Y-94699500D01*
X138945646Y-94699500D01*
X138882629Y-94709481D01*
X138719753Y-94735278D01*
X138719750Y-94735278D01*
X138502244Y-94805950D01*
X138298461Y-94909783D01*
X138115759Y-95042525D01*
X138049952Y-95066005D01*
X137981898Y-95050180D01*
X137933203Y-95000074D01*
X137926690Y-94985538D01*
X137916296Y-94957669D01*
X137916293Y-94957664D01*
X137830047Y-94842455D01*
X137830044Y-94842452D01*
X137714835Y-94756206D01*
X137714828Y-94756202D01*
X137579982Y-94705908D01*
X137579983Y-94705908D01*
X137520383Y-94699501D01*
X137520381Y-94699500D01*
X137520373Y-94699500D01*
X137520364Y-94699500D01*
X135519629Y-94699500D01*
X135519623Y-94699501D01*
X135460016Y-94705908D01*
X135325171Y-94756202D01*
X135325164Y-94756206D01*
X135209955Y-94842452D01*
X135209952Y-94842455D01*
X135123706Y-94957664D01*
X135123702Y-94957671D01*
X135073408Y-95092517D01*
X135067001Y-95152116D01*
X135067000Y-95152135D01*
X132580500Y-95152135D01*
X132580500Y-93885513D01*
X144209500Y-93885513D01*
X144209500Y-94074486D01*
X144239059Y-94261118D01*
X144297454Y-94440836D01*
X144383240Y-94609199D01*
X144494310Y-94762073D01*
X144627927Y-94895690D01*
X144780801Y-95006760D01*
X144850994Y-95042525D01*
X144949163Y-95092545D01*
X144949165Y-95092545D01*
X144949168Y-95092547D01*
X145018271Y-95115000D01*
X145128881Y-95150940D01*
X145315514Y-95180500D01*
X145315519Y-95180500D01*
X145504486Y-95180500D01*
X145691118Y-95150940D01*
X145726280Y-95139515D01*
X145870832Y-95092547D01*
X146039199Y-95006760D01*
X146192073Y-94895690D01*
X146325690Y-94762073D01*
X146436760Y-94609199D01*
X146522547Y-94440832D01*
X146580940Y-94261118D01*
X146597880Y-94154163D01*
X146610500Y-94074486D01*
X146610500Y-93885513D01*
X146580940Y-93698881D01*
X146569000Y-93662134D01*
X146522547Y-93519168D01*
X146436760Y-93350801D01*
X146325690Y-93197927D01*
X146192073Y-93064310D01*
X146039199Y-92953240D01*
X145870836Y-92867454D01*
X145691118Y-92809059D01*
X145504486Y-92779500D01*
X145504481Y-92779500D01*
X145315519Y-92779500D01*
X145315514Y-92779500D01*
X145128881Y-92809059D01*
X144949163Y-92867454D01*
X144780800Y-92953240D01*
X144732911Y-92988034D01*
X144627927Y-93064310D01*
X144627925Y-93064312D01*
X144627924Y-93064312D01*
X144494312Y-93197924D01*
X144494312Y-93197925D01*
X144494310Y-93197927D01*
X144446610Y-93263579D01*
X144383240Y-93350800D01*
X144297454Y-93519163D01*
X144239059Y-93698881D01*
X144209500Y-93885513D01*
X132580500Y-93885513D01*
X132580500Y-91345513D01*
X135324500Y-91345513D01*
X135324500Y-91534486D01*
X135354059Y-91721118D01*
X135412454Y-91900836D01*
X135498240Y-92069199D01*
X135609310Y-92222073D01*
X135742927Y-92355690D01*
X135895801Y-92466760D01*
X135975347Y-92507290D01*
X136064163Y-92552545D01*
X136064165Y-92552545D01*
X136064168Y-92552547D01*
X136160497Y-92583846D01*
X136243881Y-92610940D01*
X136430514Y-92640500D01*
X136430519Y-92640500D01*
X136619486Y-92640500D01*
X136806118Y-92610940D01*
X136985832Y-92552547D01*
X137154199Y-92466760D01*
X137307073Y-92355690D01*
X137440690Y-92222073D01*
X137551760Y-92069199D01*
X137637547Y-91900832D01*
X137695940Y-91721118D01*
X137725500Y-91534486D01*
X137725500Y-91345513D01*
X142944500Y-91345513D01*
X142944500Y-91534486D01*
X142974059Y-91721118D01*
X143032454Y-91900836D01*
X143118240Y-92069199D01*
X143229310Y-92222073D01*
X143362927Y-92355690D01*
X143515801Y-92466760D01*
X143595347Y-92507290D01*
X143684163Y-92552545D01*
X143684165Y-92552545D01*
X143684168Y-92552547D01*
X143780497Y-92583846D01*
X143863881Y-92610940D01*
X144050514Y-92640500D01*
X144050519Y-92640500D01*
X144239486Y-92640500D01*
X144426118Y-92610940D01*
X144605832Y-92552547D01*
X144774199Y-92466760D01*
X144927073Y-92355690D01*
X145060690Y-92222073D01*
X145171760Y-92069199D01*
X145257547Y-91900832D01*
X145315940Y-91721118D01*
X145345500Y-91534486D01*
X145345500Y-91345514D01*
X145331545Y-91257410D01*
X145331545Y-91257409D01*
X145330414Y-91250272D01*
X145315940Y-91158882D01*
X145257547Y-90979168D01*
X145257545Y-90979165D01*
X145257545Y-90979163D01*
X145171759Y-90810800D01*
X145060690Y-90657927D01*
X144927073Y-90524310D01*
X144774199Y-90413240D01*
X144605836Y-90327454D01*
X144426118Y-90269059D01*
X144239486Y-90239500D01*
X144239481Y-90239500D01*
X144050519Y-90239500D01*
X144050514Y-90239500D01*
X143863881Y-90269059D01*
X143684163Y-90327454D01*
X143515800Y-90413240D01*
X143428579Y-90476610D01*
X143362927Y-90524310D01*
X143362925Y-90524312D01*
X143362924Y-90524312D01*
X143229312Y-90657924D01*
X143229312Y-90657925D01*
X143229310Y-90657927D01*
X143207160Y-90688414D01*
X143118240Y-90810800D01*
X143032454Y-90979163D01*
X142974059Y-91158881D01*
X142944500Y-91345513D01*
X137725500Y-91345513D01*
X137695940Y-91158881D01*
X137637545Y-90979163D01*
X137551759Y-90810800D01*
X137440690Y-90657927D01*
X137307073Y-90524310D01*
X137154199Y-90413240D01*
X136985836Y-90327454D01*
X136806118Y-90269059D01*
X136619486Y-90239500D01*
X136619481Y-90239500D01*
X136430519Y-90239500D01*
X136430514Y-90239500D01*
X136243881Y-90269059D01*
X136064163Y-90327454D01*
X135895800Y-90413240D01*
X135808579Y-90476610D01*
X135742927Y-90524310D01*
X135742925Y-90524312D01*
X135742924Y-90524312D01*
X135609312Y-90657924D01*
X135609312Y-90657925D01*
X135609310Y-90657927D01*
X135587160Y-90688414D01*
X135498240Y-90810800D01*
X135412454Y-90979163D01*
X135354059Y-91158881D01*
X135324500Y-91345513D01*
X132580500Y-91345513D01*
X132580500Y-86234038D01*
X133654500Y-86234038D01*
X133654500Y-86485961D01*
X133693910Y-86734785D01*
X133771760Y-86974383D01*
X133886132Y-87198848D01*
X134034201Y-87402649D01*
X134034205Y-87402654D01*
X134212345Y-87580794D01*
X134212350Y-87580798D01*
X134280073Y-87630001D01*
X134416155Y-87728870D01*
X134559184Y-87801747D01*
X134640616Y-87843239D01*
X134640618Y-87843239D01*
X134640621Y-87843241D01*
X134880215Y-87921090D01*
X135129038Y-87960500D01*
X135129039Y-87960500D01*
X135380961Y-87960500D01*
X135380962Y-87960500D01*
X135629785Y-87921090D01*
X135869379Y-87843241D01*
X136093845Y-87728870D01*
X136297656Y-87580793D01*
X136354736Y-87523713D01*
X138984500Y-87523713D01*
X138984500Y-87736286D01*
X139017735Y-87946127D01*
X139017754Y-87946243D01*
X139022386Y-87960500D01*
X139083444Y-88148414D01*
X139179951Y-88337820D01*
X139304890Y-88509786D01*
X139455213Y-88660109D01*
X139627179Y-88785048D01*
X139627181Y-88785049D01*
X139627184Y-88785051D01*
X139816588Y-88881557D01*
X140018757Y-88947246D01*
X140228713Y-88980500D01*
X140228714Y-88980500D01*
X140441286Y-88980500D01*
X140441287Y-88980500D01*
X140651243Y-88947246D01*
X140853412Y-88881557D01*
X141042816Y-88785051D01*
X141141187Y-88713581D01*
X141214786Y-88660109D01*
X141214788Y-88660106D01*
X141214792Y-88660104D01*
X141365104Y-88509792D01*
X141365106Y-88509788D01*
X141365109Y-88509786D01*
X141450890Y-88391717D01*
X141490051Y-88337816D01*
X141494793Y-88328508D01*
X141542763Y-88277711D01*
X141610583Y-88260911D01*
X141676719Y-88283445D01*
X141715763Y-88328500D01*
X141720373Y-88337547D01*
X141759728Y-88391716D01*
X142392037Y-87759408D01*
X142409075Y-87822993D01*
X142474901Y-87937007D01*
X142567993Y-88030099D01*
X142682007Y-88095925D01*
X142745590Y-88112962D01*
X142113282Y-88745269D01*
X142113282Y-88745270D01*
X142167449Y-88784624D01*
X142356782Y-88881095D01*
X142558870Y-88946757D01*
X142768754Y-88980000D01*
X142981246Y-88980000D01*
X143191127Y-88946757D01*
X143191130Y-88946757D01*
X143393217Y-88881095D01*
X143582554Y-88784622D01*
X143636716Y-88745270D01*
X143636717Y-88745270D01*
X143004408Y-88112962D01*
X143067993Y-88095925D01*
X143182007Y-88030099D01*
X143275099Y-87937007D01*
X143340925Y-87822993D01*
X143357962Y-87759409D01*
X143990270Y-88391717D01*
X143990270Y-88391716D01*
X144029622Y-88337554D01*
X144126095Y-88148217D01*
X144191757Y-87946130D01*
X144191757Y-87946127D01*
X144225000Y-87736246D01*
X144225000Y-87523753D01*
X153590000Y-87523753D01*
X153590000Y-87736246D01*
X153623242Y-87946127D01*
X153623242Y-87946130D01*
X153688904Y-88148217D01*
X153785375Y-88337550D01*
X153824728Y-88391716D01*
X154457037Y-87759408D01*
X154474075Y-87822993D01*
X154539901Y-87937007D01*
X154632993Y-88030099D01*
X154747007Y-88095925D01*
X154810591Y-88112962D01*
X154209971Y-88713581D01*
X154288711Y-88830895D01*
X154289920Y-88834729D01*
X154292844Y-88837491D01*
X154300343Y-88867778D01*
X154309727Y-88897529D01*
X154308671Y-88901408D01*
X154309638Y-88905312D01*
X154299573Y-88934844D01*
X154291383Y-88964947D01*
X154288397Y-88967640D01*
X154287100Y-88971447D01*
X154242051Y-89010483D01*
X154232440Y-89015380D01*
X154178282Y-89054727D01*
X154178282Y-89054728D01*
X154810591Y-89687037D01*
X154747007Y-89704075D01*
X154632993Y-89769901D01*
X154539901Y-89862993D01*
X154474075Y-89977007D01*
X154457037Y-90040591D01*
X153824728Y-89408282D01*
X153824727Y-89408282D01*
X153785380Y-89462439D01*
X153688904Y-89651782D01*
X153623242Y-89853869D01*
X153623242Y-89853872D01*
X153590000Y-90063753D01*
X153590000Y-90276246D01*
X153623242Y-90486127D01*
X153623242Y-90486130D01*
X153688904Y-90688217D01*
X153785375Y-90877550D01*
X153824728Y-90931716D01*
X154457037Y-90299408D01*
X154474075Y-90362993D01*
X154539901Y-90477007D01*
X154632993Y-90570099D01*
X154747007Y-90635925D01*
X154810590Y-90652962D01*
X154178282Y-91285269D01*
X154178282Y-91285270D01*
X154232449Y-91324624D01*
X154421782Y-91421095D01*
X154623870Y-91486757D01*
X154833754Y-91520000D01*
X155046246Y-91520000D01*
X155256127Y-91486757D01*
X155256130Y-91486757D01*
X155458217Y-91421095D01*
X155647554Y-91324622D01*
X155701716Y-91285270D01*
X155701717Y-91285270D01*
X155069408Y-90652962D01*
X155132993Y-90635925D01*
X155247007Y-90570099D01*
X155340099Y-90477007D01*
X155405925Y-90362993D01*
X155422962Y-90299409D01*
X156055270Y-90931717D01*
X156055270Y-90931716D01*
X156094622Y-90877554D01*
X156191095Y-90688217D01*
X156256757Y-90486130D01*
X156256757Y-90486127D01*
X156290000Y-90276246D01*
X156290000Y-90063753D01*
X156256757Y-89853872D01*
X156256757Y-89853869D01*
X156191095Y-89651782D01*
X156094624Y-89462449D01*
X156055270Y-89408282D01*
X156055269Y-89408282D01*
X155422962Y-90040590D01*
X155405925Y-89977007D01*
X155340099Y-89862993D01*
X155247007Y-89769901D01*
X155132993Y-89704075D01*
X155069409Y-89687037D01*
X155701716Y-89054728D01*
X155647550Y-89015375D01*
X155637954Y-89010486D01*
X155587157Y-88962512D01*
X155570361Y-88894692D01*
X155592897Y-88828556D01*
X155637954Y-88789514D01*
X155647554Y-88784622D01*
X155701716Y-88745270D01*
X155701717Y-88745270D01*
X155069408Y-88112962D01*
X155132993Y-88095925D01*
X155247007Y-88030099D01*
X155340099Y-87937007D01*
X155405925Y-87822993D01*
X155422962Y-87759409D01*
X156055270Y-88391717D01*
X156055270Y-88391716D01*
X156094622Y-88337554D01*
X156191095Y-88148217D01*
X156256757Y-87946130D01*
X156256757Y-87946127D01*
X156290000Y-87736246D01*
X156290000Y-87523753D01*
X156289994Y-87523713D01*
X162474500Y-87523713D01*
X162474500Y-87736286D01*
X162507735Y-87946127D01*
X162507754Y-87946243D01*
X162512386Y-87960500D01*
X162573444Y-88148414D01*
X162669951Y-88337820D01*
X162794890Y-88509786D01*
X162945213Y-88660109D01*
X163117182Y-88785050D01*
X163125946Y-88789516D01*
X163176742Y-88837491D01*
X163193536Y-88905312D01*
X163170998Y-88971447D01*
X163125946Y-89010484D01*
X163117182Y-89014949D01*
X162945213Y-89139890D01*
X162794890Y-89290213D01*
X162669951Y-89462179D01*
X162573444Y-89651585D01*
X162507753Y-89853760D01*
X162474500Y-90063713D01*
X162474500Y-90276286D01*
X162507735Y-90486127D01*
X162507754Y-90486243D01*
X162520123Y-90524312D01*
X162573444Y-90688414D01*
X162669951Y-90877820D01*
X162794890Y-91049786D01*
X162945213Y-91200109D01*
X163117179Y-91325048D01*
X163117181Y-91325049D01*
X163117184Y-91325051D01*
X163306588Y-91421557D01*
X163508757Y-91487246D01*
X163718713Y-91520500D01*
X163718714Y-91520500D01*
X163931286Y-91520500D01*
X163931287Y-91520500D01*
X164141243Y-91487246D01*
X164343412Y-91421557D01*
X164532816Y-91325051D01*
X164625918Y-91257409D01*
X164704786Y-91200109D01*
X164704788Y-91200106D01*
X164704792Y-91200104D01*
X164855104Y-91049792D01*
X164855106Y-91049788D01*
X164855109Y-91049786D01*
X164980048Y-90877820D01*
X164980047Y-90877820D01*
X164980051Y-90877816D01*
X165076557Y-90688412D01*
X165142246Y-90486243D01*
X165175500Y-90276287D01*
X165175500Y-90063713D01*
X165142246Y-89853757D01*
X165076557Y-89651588D01*
X164980051Y-89462184D01*
X164980049Y-89462181D01*
X164980048Y-89462179D01*
X164855109Y-89290213D01*
X164704786Y-89139890D01*
X164532820Y-89014951D01*
X164532115Y-89014591D01*
X164524054Y-89010485D01*
X164473259Y-88962512D01*
X164456463Y-88894692D01*
X164478999Y-88828556D01*
X164524054Y-88789515D01*
X164532816Y-88785051D01*
X164631187Y-88713581D01*
X164704786Y-88660109D01*
X164704788Y-88660106D01*
X164704792Y-88660104D01*
X164855104Y-88509792D01*
X164855106Y-88509788D01*
X164855109Y-88509786D01*
X164980048Y-88337820D01*
X164980047Y-88337820D01*
X164980051Y-88337816D01*
X165076557Y-88148412D01*
X165142246Y-87946243D01*
X165175500Y-87736287D01*
X165175500Y-87523713D01*
X171364500Y-87523713D01*
X171364500Y-87736286D01*
X171397735Y-87946127D01*
X171397754Y-87946243D01*
X171402386Y-87960500D01*
X171463444Y-88148414D01*
X171559951Y-88337820D01*
X171684890Y-88509786D01*
X171835213Y-88660109D01*
X172007182Y-88785050D01*
X172015946Y-88789516D01*
X172066742Y-88837491D01*
X172083536Y-88905312D01*
X172060998Y-88971447D01*
X172015946Y-89010484D01*
X172007182Y-89014949D01*
X171835213Y-89139890D01*
X171684890Y-89290213D01*
X171559951Y-89462179D01*
X171463444Y-89651585D01*
X171397753Y-89853760D01*
X171364500Y-90063713D01*
X171364500Y-90276286D01*
X171397735Y-90486127D01*
X171397754Y-90486243D01*
X171410123Y-90524312D01*
X171463444Y-90688414D01*
X171559951Y-90877820D01*
X171684890Y-91049786D01*
X171835213Y-91200109D01*
X172007179Y-91325048D01*
X172007181Y-91325049D01*
X172007184Y-91325051D01*
X172196588Y-91421557D01*
X172398757Y-91487246D01*
X172608713Y-91520500D01*
X172608714Y-91520500D01*
X172821286Y-91520500D01*
X172821287Y-91520500D01*
X173031243Y-91487246D01*
X173233412Y-91421557D01*
X173422816Y-91325051D01*
X173515918Y-91257409D01*
X173594786Y-91200109D01*
X173594788Y-91200106D01*
X173594792Y-91200104D01*
X173745104Y-91049792D01*
X173745106Y-91049788D01*
X173745109Y-91049786D01*
X173870048Y-90877820D01*
X173870047Y-90877820D01*
X173870051Y-90877816D01*
X173966557Y-90688412D01*
X174032246Y-90486243D01*
X174065500Y-90276287D01*
X174065500Y-90063713D01*
X174032246Y-89853757D01*
X173966557Y-89651588D01*
X173870051Y-89462184D01*
X173870049Y-89462181D01*
X173870048Y-89462179D01*
X173745109Y-89290213D01*
X173594786Y-89139890D01*
X173422820Y-89014951D01*
X173422115Y-89014591D01*
X173414054Y-89010485D01*
X173363259Y-88962512D01*
X173346463Y-88894692D01*
X173368999Y-88828556D01*
X173414054Y-88789515D01*
X173422816Y-88785051D01*
X173521187Y-88713581D01*
X173594786Y-88660109D01*
X173594788Y-88660106D01*
X173594792Y-88660104D01*
X173745104Y-88509792D01*
X173745106Y-88509788D01*
X173745109Y-88509786D01*
X173870048Y-88337820D01*
X173870047Y-88337820D01*
X173870051Y-88337816D01*
X173966557Y-88148412D01*
X174032246Y-87946243D01*
X174065500Y-87736287D01*
X174065500Y-87523753D01*
X180260000Y-87523753D01*
X180260000Y-87736246D01*
X180293242Y-87946127D01*
X180293242Y-87946130D01*
X180358904Y-88148217D01*
X180455375Y-88337550D01*
X180494728Y-88391716D01*
X181127037Y-87759408D01*
X181144075Y-87822993D01*
X181209901Y-87937007D01*
X181302993Y-88030099D01*
X181417007Y-88095925D01*
X181480591Y-88112962D01*
X180879971Y-88713581D01*
X180958711Y-88830895D01*
X180959920Y-88834729D01*
X180962844Y-88837491D01*
X180970343Y-88867778D01*
X180979727Y-88897529D01*
X180978671Y-88901408D01*
X180979638Y-88905312D01*
X180969573Y-88934844D01*
X180961383Y-88964947D01*
X180958397Y-88967640D01*
X180957100Y-88971447D01*
X180912051Y-89010483D01*
X180902440Y-89015380D01*
X180848282Y-89054727D01*
X180848282Y-89054728D01*
X181480591Y-89687037D01*
X181417007Y-89704075D01*
X181302993Y-89769901D01*
X181209901Y-89862993D01*
X181144075Y-89977007D01*
X181127037Y-90040591D01*
X180494728Y-89408282D01*
X180494727Y-89408282D01*
X180455380Y-89462439D01*
X180358904Y-89651782D01*
X180293242Y-89853869D01*
X180293242Y-89853872D01*
X180260000Y-90063753D01*
X180260000Y-90276246D01*
X180293242Y-90486127D01*
X180293242Y-90486130D01*
X180358904Y-90688217D01*
X180455375Y-90877550D01*
X180494728Y-90931716D01*
X181127037Y-90299408D01*
X181144075Y-90362993D01*
X181209901Y-90477007D01*
X181302993Y-90570099D01*
X181417007Y-90635925D01*
X181480590Y-90652962D01*
X180848282Y-91285269D01*
X180848282Y-91285270D01*
X180902449Y-91324624D01*
X181091782Y-91421095D01*
X181293870Y-91486757D01*
X181503754Y-91520000D01*
X181716246Y-91520000D01*
X181926127Y-91486757D01*
X181926130Y-91486757D01*
X182128217Y-91421095D01*
X182317554Y-91324622D01*
X182371716Y-91285270D01*
X182371717Y-91285270D01*
X181739408Y-90652962D01*
X181802993Y-90635925D01*
X181917007Y-90570099D01*
X182010099Y-90477007D01*
X182075925Y-90362993D01*
X182092962Y-90299408D01*
X182725270Y-90931717D01*
X182725270Y-90931716D01*
X182764622Y-90877554D01*
X182861095Y-90688217D01*
X182926757Y-90486130D01*
X182926757Y-90486127D01*
X182960000Y-90276246D01*
X182960000Y-90063753D01*
X182926757Y-89853872D01*
X182926757Y-89853869D01*
X182861095Y-89651782D01*
X182764624Y-89462449D01*
X182725270Y-89408282D01*
X182725269Y-89408282D01*
X182092962Y-90040590D01*
X182075925Y-89977007D01*
X182010099Y-89862993D01*
X181917007Y-89769901D01*
X181802993Y-89704075D01*
X181739409Y-89687037D01*
X182371716Y-89054728D01*
X182317550Y-89015375D01*
X182307954Y-89010486D01*
X182257157Y-88962512D01*
X182240361Y-88894692D01*
X182262897Y-88828556D01*
X182307954Y-88789514D01*
X182317554Y-88784622D01*
X182371716Y-88745270D01*
X182371717Y-88745270D01*
X181739408Y-88112962D01*
X181802993Y-88095925D01*
X181917007Y-88030099D01*
X182010099Y-87937007D01*
X182075925Y-87822993D01*
X182092962Y-87759408D01*
X182725270Y-88391717D01*
X182725270Y-88391716D01*
X182764622Y-88337554D01*
X182861095Y-88148217D01*
X182926757Y-87946130D01*
X182926757Y-87946127D01*
X182960000Y-87736246D01*
X182960000Y-87523753D01*
X182926757Y-87313872D01*
X182926757Y-87313869D01*
X182861095Y-87111782D01*
X182764624Y-86922449D01*
X182725270Y-86868282D01*
X182725269Y-86868282D01*
X182092962Y-87500590D01*
X182075925Y-87437007D01*
X182010099Y-87322993D01*
X181917007Y-87229901D01*
X181802993Y-87164075D01*
X181739409Y-87147037D01*
X182371716Y-86514728D01*
X182317550Y-86475375D01*
X182128217Y-86378904D01*
X182030324Y-86347097D01*
X181926129Y-86313242D01*
X181716246Y-86280000D01*
X181503754Y-86280000D01*
X181293872Y-86313242D01*
X181293869Y-86313242D01*
X181091782Y-86378904D01*
X180902439Y-86475380D01*
X180848282Y-86514727D01*
X180848282Y-86514728D01*
X181480591Y-87147037D01*
X181417007Y-87164075D01*
X181302993Y-87229901D01*
X181209901Y-87322993D01*
X181144075Y-87437007D01*
X181127037Y-87500591D01*
X180494728Y-86868282D01*
X180494727Y-86868282D01*
X180455380Y-86922439D01*
X180358904Y-87111782D01*
X180293242Y-87313869D01*
X180293242Y-87313872D01*
X180260000Y-87523753D01*
X174065500Y-87523753D01*
X174065500Y-87523713D01*
X174032246Y-87313757D01*
X173966557Y-87111588D01*
X173870051Y-86922184D01*
X173870049Y-86922181D01*
X173870048Y-86922179D01*
X173745109Y-86750213D01*
X173594786Y-86599890D01*
X173422820Y-86474951D01*
X173233414Y-86378444D01*
X173233413Y-86378443D01*
X173233412Y-86378443D01*
X173031243Y-86312754D01*
X173031241Y-86312753D01*
X173031240Y-86312753D01*
X172869957Y-86287208D01*
X172821287Y-86279500D01*
X172608713Y-86279500D01*
X172560042Y-86287208D01*
X172398760Y-86312753D01*
X172196585Y-86378444D01*
X172007179Y-86474951D01*
X171835213Y-86599890D01*
X171684890Y-86750213D01*
X171559951Y-86922179D01*
X171463444Y-87111585D01*
X171397753Y-87313760D01*
X171364500Y-87523713D01*
X165175500Y-87523713D01*
X165142246Y-87313757D01*
X165076557Y-87111588D01*
X164980051Y-86922184D01*
X164980049Y-86922181D01*
X164980048Y-86922179D01*
X164855109Y-86750213D01*
X164704786Y-86599890D01*
X164532820Y-86474951D01*
X164343414Y-86378444D01*
X164343413Y-86378443D01*
X164343412Y-86378443D01*
X164141243Y-86312754D01*
X164141241Y-86312753D01*
X164141240Y-86312753D01*
X163979957Y-86287208D01*
X163931287Y-86279500D01*
X163718713Y-86279500D01*
X163670042Y-86287208D01*
X163508760Y-86312753D01*
X163306585Y-86378444D01*
X163117179Y-86474951D01*
X162945213Y-86599890D01*
X162794890Y-86750213D01*
X162669951Y-86922179D01*
X162573444Y-87111585D01*
X162507753Y-87313760D01*
X162474500Y-87523713D01*
X156289994Y-87523713D01*
X156256757Y-87313872D01*
X156256757Y-87313869D01*
X156191095Y-87111782D01*
X156094624Y-86922449D01*
X156055270Y-86868282D01*
X156055269Y-86868282D01*
X155422962Y-87500590D01*
X155405925Y-87437007D01*
X155340099Y-87322993D01*
X155247007Y-87229901D01*
X155132993Y-87164075D01*
X155069409Y-87147037D01*
X155701716Y-86514728D01*
X155647550Y-86475375D01*
X155458217Y-86378904D01*
X155256129Y-86313242D01*
X155046246Y-86280000D01*
X154833754Y-86280000D01*
X154623872Y-86313242D01*
X154623869Y-86313242D01*
X154421782Y-86378904D01*
X154232439Y-86475380D01*
X154178282Y-86514727D01*
X154178282Y-86514728D01*
X154810591Y-87147037D01*
X154747007Y-87164075D01*
X154632993Y-87229901D01*
X154539901Y-87322993D01*
X154474075Y-87437007D01*
X154457037Y-87500591D01*
X153824728Y-86868282D01*
X153824727Y-86868282D01*
X153785380Y-86922439D01*
X153688904Y-87111782D01*
X153623242Y-87313869D01*
X153623242Y-87313872D01*
X153590000Y-87523753D01*
X144225000Y-87523753D01*
X144191757Y-87313872D01*
X144191757Y-87313869D01*
X144126095Y-87111782D01*
X144029624Y-86922449D01*
X143990270Y-86868282D01*
X143990269Y-86868282D01*
X143357962Y-87500590D01*
X143340925Y-87437007D01*
X143275099Y-87322993D01*
X143182007Y-87229901D01*
X143067993Y-87164075D01*
X143004409Y-87147037D01*
X143636716Y-86514728D01*
X143582550Y-86475375D01*
X143393217Y-86378904D01*
X143191129Y-86313242D01*
X142981246Y-86280000D01*
X142768754Y-86280000D01*
X142558872Y-86313242D01*
X142558869Y-86313242D01*
X142356782Y-86378904D01*
X142167439Y-86475380D01*
X142113282Y-86514727D01*
X142113282Y-86514728D01*
X142745591Y-87147037D01*
X142682007Y-87164075D01*
X142567993Y-87229901D01*
X142474901Y-87322993D01*
X142409075Y-87437007D01*
X142392037Y-87500591D01*
X141759728Y-86868282D01*
X141759727Y-86868282D01*
X141720380Y-86922440D01*
X141720376Y-86922446D01*
X141715760Y-86931505D01*
X141667781Y-86982297D01*
X141599959Y-86999087D01*
X141533826Y-86976543D01*
X141494794Y-86931493D01*
X141490051Y-86922184D01*
X141490049Y-86922181D01*
X141490048Y-86922179D01*
X141365109Y-86750213D01*
X141214786Y-86599890D01*
X141042820Y-86474951D01*
X140853414Y-86378444D01*
X140853413Y-86378443D01*
X140853412Y-86378443D01*
X140651243Y-86312754D01*
X140651241Y-86312753D01*
X140651240Y-86312753D01*
X140489957Y-86287208D01*
X140441287Y-86279500D01*
X140228713Y-86279500D01*
X140180042Y-86287208D01*
X140018760Y-86312753D01*
X139816585Y-86378444D01*
X139627179Y-86474951D01*
X139455213Y-86599890D01*
X139304890Y-86750213D01*
X139179951Y-86922179D01*
X139083444Y-87111585D01*
X139017753Y-87313760D01*
X138984500Y-87523713D01*
X136354736Y-87523713D01*
X136475793Y-87402656D01*
X136623870Y-87198845D01*
X136738241Y-86974379D01*
X136816090Y-86734785D01*
X136855500Y-86485962D01*
X136855500Y-86234038D01*
X184454500Y-86234038D01*
X184454500Y-86485961D01*
X184493910Y-86734785D01*
X184571760Y-86974383D01*
X184686132Y-87198848D01*
X184834201Y-87402649D01*
X184834205Y-87402654D01*
X185012345Y-87580794D01*
X185012350Y-87580798D01*
X185080073Y-87630001D01*
X185216155Y-87728870D01*
X185359184Y-87801747D01*
X185440616Y-87843239D01*
X185440618Y-87843239D01*
X185440621Y-87843241D01*
X185680215Y-87921090D01*
X185929038Y-87960500D01*
X185929039Y-87960500D01*
X186180961Y-87960500D01*
X186180962Y-87960500D01*
X186429785Y-87921090D01*
X186669379Y-87843241D01*
X186893845Y-87728870D01*
X187097656Y-87580793D01*
X187275793Y-87402656D01*
X187423870Y-87198845D01*
X187538241Y-86974379D01*
X187616090Y-86734785D01*
X187655500Y-86485962D01*
X187655500Y-86234038D01*
X187616090Y-85985215D01*
X187538241Y-85745621D01*
X187538239Y-85745618D01*
X187538239Y-85745616D01*
X187496747Y-85664184D01*
X187423870Y-85521155D01*
X187404952Y-85495117D01*
X187275798Y-85317350D01*
X187275794Y-85317345D01*
X187097654Y-85139205D01*
X187097649Y-85139201D01*
X186893848Y-84991132D01*
X186893847Y-84991131D01*
X186893845Y-84991130D01*
X186823747Y-84955413D01*
X186669383Y-84876760D01*
X186429785Y-84798910D01*
X186180962Y-84759500D01*
X185929038Y-84759500D01*
X185804626Y-84779205D01*
X185680214Y-84798910D01*
X185440616Y-84876760D01*
X185216151Y-84991132D01*
X185012350Y-85139201D01*
X185012345Y-85139205D01*
X184834205Y-85317345D01*
X184834201Y-85317350D01*
X184686132Y-85521151D01*
X184571760Y-85745616D01*
X184493910Y-85985214D01*
X184454500Y-86234038D01*
X136855500Y-86234038D01*
X136816090Y-85985215D01*
X136738241Y-85745621D01*
X136738239Y-85745618D01*
X136738239Y-85745616D01*
X136696747Y-85664184D01*
X136623870Y-85521155D01*
X136604952Y-85495117D01*
X136475798Y-85317350D01*
X136475794Y-85317345D01*
X136297654Y-85139205D01*
X136297649Y-85139201D01*
X136093848Y-84991132D01*
X136093847Y-84991131D01*
X136093845Y-84991130D01*
X136023747Y-84955413D01*
X135869383Y-84876760D01*
X135629785Y-84798910D01*
X135380962Y-84759500D01*
X135129038Y-84759500D01*
X135004626Y-84779205D01*
X134880214Y-84798910D01*
X134640616Y-84876760D01*
X134416151Y-84991132D01*
X134212350Y-85139201D01*
X134212345Y-85139205D01*
X134034205Y-85317345D01*
X134034201Y-85317350D01*
X133886132Y-85521151D01*
X133771760Y-85745616D01*
X133693910Y-85985214D01*
X133654500Y-86234038D01*
X132580500Y-86234038D01*
X132580500Y-83809500D01*
X132600185Y-83742461D01*
X132652989Y-83696706D01*
X132704500Y-83685500D01*
X188605500Y-83685500D01*
X188672539Y-83705185D01*
G37*
%TD.AperFunction*%
%TD*%
M02*
