%TF.GenerationSoftware,KiCad,Pcbnew,9.0.4*%
%TF.CreationDate,2025-10-10T13:21:22-04:00*%
%TF.ProjectId,PhotonPlayV1,50686f74-6f6e-4506-9c61-7956312e6b69,rev?*%
%TF.SameCoordinates,Original*%
%TF.FileFunction,Copper,L1,Top*%
%TF.FilePolarity,Positive*%
%FSLAX46Y46*%
G04 Gerber Fmt 4.6, Leading zero omitted, Abs format (unit mm)*
G04 Created by KiCad (PCBNEW 9.0.4) date 2025-10-10 13:21:22*
%MOMM*%
%LPD*%
G01*
G04 APERTURE LIST*
G04 Aperture macros list*
%AMRoundRect*
0 Rectangle with rounded corners*
0 $1 Rounding radius*
0 $2 $3 $4 $5 $6 $7 $8 $9 X,Y pos of 4 corners*
0 Add a 4 corners polygon primitive as box body*
4,1,4,$2,$3,$4,$5,$6,$7,$8,$9,$2,$3,0*
0 Add four circle primitives for the rounded corners*
1,1,$1+$1,$2,$3*
1,1,$1+$1,$4,$5*
1,1,$1+$1,$6,$7*
1,1,$1+$1,$8,$9*
0 Add four rect primitives between the rounded corners*
20,1,$1+$1,$2,$3,$4,$5,0*
20,1,$1+$1,$4,$5,$6,$7,0*
20,1,$1+$1,$6,$7,$8,$9,0*
20,1,$1+$1,$8,$9,$2,$3,0*%
G04 Aperture macros list end*
%TA.AperFunction,ComponentPad*%
%ADD10C,1.400000*%
%TD*%
%TA.AperFunction,ComponentPad*%
%ADD11RoundRect,0.250000X-0.550000X-0.550000X0.550000X-0.550000X0.550000X0.550000X-0.550000X0.550000X0*%
%TD*%
%TA.AperFunction,ComponentPad*%
%ADD12C,1.600000*%
%TD*%
%TA.AperFunction,ComponentPad*%
%ADD13C,1.700000*%
%TD*%
%TA.AperFunction,ComponentPad*%
%ADD14R,1.500000X1.500000*%
%TD*%
%TA.AperFunction,ComponentPad*%
%ADD15C,1.500000*%
%TD*%
%TA.AperFunction,ComponentPad*%
%ADD16R,1.905000X2.000000*%
%TD*%
%TA.AperFunction,ComponentPad*%
%ADD17O,1.905000X2.000000*%
%TD*%
%TA.AperFunction,Conductor*%
%ADD18C,0.750000*%
%TD*%
G04 APERTURE END LIST*
D10*
%TO.P,${VALUE},1*%
%TO.N,/Vreg*%
X136525000Y-91440000D03*
%TO.P,${VALUE},2*%
%TO.N,Net-(LM317-VO)*%
X144145000Y-91440000D03*
%TD*%
%TO.P,Rx3,1*%
%TO.N,/X-*%
X154305000Y-94615000D03*
%TO.P,Rx3,2*%
%TO.N,Net-(OpAmp1A--)*%
X161925000Y-94615000D03*
%TD*%
%TO.P,Ry2,1*%
%TO.N,Net-(OpAmp1D--)*%
X174625000Y-98425000D03*
%TO.P,Ry2,2*%
%TO.N,/Y+*%
X182245000Y-98425000D03*
%TD*%
%TO.P,Rx1,1*%
%TO.N,/X+*%
X154305000Y-102235000D03*
%TO.P,Rx1,2*%
%TO.N,Net-(OpAmp1B--)*%
X161925000Y-102235000D03*
%TD*%
D11*
%TO.P,${VALUE},1*%
%TO.N,/X-*%
X164470000Y-93980000D03*
D12*
%TO.P,${VALUE},2,-*%
%TO.N,Net-(OpAmp1A--)*%
X164470000Y-96520000D03*
%TO.P,${VALUE},3,+*%
%TO.N,GND*%
X164470000Y-99060000D03*
%TO.P,${VALUE},4,V+*%
%TO.N,+15V*%
X164470000Y-101600000D03*
%TO.P,${VALUE},5,+*%
%TO.N,/X_In*%
X164470000Y-104140000D03*
%TO.P,${VALUE},6,-*%
%TO.N,Net-(OpAmp1B--)*%
X164470000Y-106680000D03*
%TO.P,${VALUE},7*%
%TO.N,/X+*%
X164470000Y-109220000D03*
%TO.P,${VALUE},8*%
%TO.N,/Y+*%
X172090000Y-109220000D03*
%TO.P,${VALUE},9,-*%
%TO.N,Net-(OpAmp1C--)*%
X172090000Y-106680000D03*
%TO.P,${VALUE},10,+*%
%TO.N,/Y_In*%
X172090000Y-104140000D03*
%TO.P,${VALUE},11,V-*%
%TO.N,/-15V*%
X172090000Y-101600000D03*
%TO.P,${VALUE},12,+*%
%TO.N,GND*%
X172090000Y-99060000D03*
%TO.P,${VALUE},13,-*%
%TO.N,Net-(OpAmp1D--)*%
X172090000Y-96520000D03*
%TO.P,${VALUE},14*%
%TO.N,/Y-*%
X172090000Y-93980000D03*
%TD*%
D13*
%TO.P,-15V1,1,Pin_1*%
%TO.N,/-15V*%
X172715000Y-90170000D03*
%TO.P,-15V1,2,Pin_2*%
X172715000Y-87630000D03*
%TD*%
%TO.P,PotY1,1,1*%
%TO.N,/+5V*%
X178435000Y-115570000D03*
%TO.P,PotY1,2,2*%
%TO.N,Net-(OpAmp1C--)*%
X180975000Y-105410000D03*
%TO.P,PotY1,3,3*%
%TO.N,unconnected-(PotY1-Pad3)*%
X183515000Y-115570000D03*
%TD*%
D10*
%TO.P,Rdiv1,1*%
%TO.N,/+5V*%
X161925000Y-113665000D03*
%TO.P,Rdiv1,2*%
%TO.N,+15V*%
X161925000Y-106045000D03*
%TD*%
D14*
%TO.P,${VALUE},1,D*%
%TO.N,/Vreg*%
X136510000Y-101415000D03*
D15*
%TO.P,${VALUE},2,G*%
%TO.N,/Gate*%
X139050000Y-101415000D03*
%TO.P,${VALUE},3,S*%
%TO.N,GND*%
X141590000Y-101415000D03*
%TD*%
D13*
%TO.P,XY_Input1,1,Pin_1*%
%TO.N,/Y_In*%
X170810000Y-113665000D03*
%TO.P,XY_Input1,2,Pin_2*%
%TO.N,GND*%
X168270000Y-113665000D03*
%TO.P,XY_Input1,3,Pin_3*%
%TO.N,/X_In*%
X165730000Y-113665000D03*
%TD*%
%TO.P,X_Output1,1,Pin_1*%
%TO.N,/X+*%
X151765000Y-99695000D03*
%TO.P,X_Output1,2,Pin_2*%
%TO.N,/X-*%
X151765000Y-97155000D03*
%TO.P,X_Output1,3,Pin_3*%
%TO.N,GND*%
X151765000Y-94615000D03*
%TD*%
D10*
%TO.P,Ry1,1*%
%TO.N,/Y+*%
X182245000Y-102235000D03*
%TO.P,Ry1,2*%
%TO.N,Net-(OpAmp1C--)*%
X174625000Y-102235000D03*
%TD*%
D13*
%TO.P,LaserEn1,1,1*%
%TO.N,Net-(LaserEn1-Pad1)*%
X141605000Y-115570000D03*
%TD*%
D10*
%TO.P,Rt2,1*%
%TO.N,/Gate*%
X141600000Y-105410000D03*
%TO.P,Rt2,2*%
%TO.N,GND*%
X141600000Y-113030000D03*
%TD*%
D13*
%TO.P,GND2,1,Pin_1*%
%TO.N,GND*%
X154940000Y-90170000D03*
%TO.P,GND2,2,Pin_2*%
X154940000Y-87630000D03*
%TD*%
D10*
%TO.P,Rdiv2,1*%
%TO.N,GND*%
X174625000Y-106045000D03*
%TO.P,Rdiv2,2*%
%TO.N,/+5V*%
X174625000Y-113665000D03*
%TD*%
D13*
%TO.P,+15V1,1,Pin_1*%
%TO.N,+15V*%
X163825000Y-87630000D03*
%TO.P,+15V1,2,Pin_2*%
X163825000Y-90170000D03*
%TD*%
%TO.P,PotX1,1,1*%
%TO.N,unconnected-(PotX1-Pad1)*%
X153035000Y-115570000D03*
%TO.P,PotX1,2,2*%
%TO.N,Net-(OpAmp1B--)*%
X155575000Y-105410000D03*
%TO.P,PotX1,3,3*%
%TO.N,/+5V*%
X158115000Y-115570000D03*
%TD*%
D10*
%TO.P,Rx2,1*%
%TO.N,Net-(OpAmp1A--)*%
X161925000Y-98425000D03*
%TO.P,Rx2,2*%
%TO.N,/X+*%
X154305000Y-98425000D03*
%TD*%
D13*
%TO.P,Y_Output1,1,Pin_1*%
%TO.N,/Y-*%
X184785000Y-94615000D03*
%TO.P,Y_Output1,2,Pin_2*%
%TO.N,GND*%
X184785000Y-97155000D03*
%TO.P,Y_Output1,3,Pin_3*%
%TO.N,/Y+*%
X184785000Y-99695000D03*
%TD*%
%TO.P,Laser1,1,Pin_1*%
%TO.N,GND*%
X142875000Y-87630000D03*
%TO.P,Laser1,2,Pin_2*%
%TO.N,/Vreg*%
X140335000Y-87630000D03*
%TD*%
D10*
%TO.P,C,1*%
%TO.N,+15V*%
X145410000Y-93980000D03*
%TO.P,C,2*%
%TO.N,GND*%
X145410000Y-101600000D03*
%TD*%
%TO.P,Rt1,1*%
%TO.N,/Gate*%
X139060000Y-105410000D03*
%TO.P,Rt1,2*%
%TO.N,Net-(LaserEn1-Pad1)*%
X139060000Y-113030000D03*
%TD*%
D16*
%TO.P,LM317,1,ADJ*%
%TO.N,/Vreg*%
X136520000Y-96200000D03*
D17*
%TO.P,LM317,2,VO*%
%TO.N,Net-(LM317-VO)*%
X139060000Y-96200000D03*
%TO.P,LM317,3,VI*%
%TO.N,+15V*%
X141600000Y-96200000D03*
%TD*%
D10*
%TO.P,Ry3,1*%
%TO.N,/Y-*%
X182245000Y-94615000D03*
%TO.P,Ry3,2*%
%TO.N,Net-(OpAmp1D--)*%
X174625000Y-94615000D03*
%TD*%
D13*
%TO.P,GND1,1,Pin_1*%
%TO.N,GND*%
X181610000Y-87630000D03*
%TO.P,GND1,2,Pin_2*%
X181610000Y-90170000D03*
%TD*%
D18*
%TO.N,+15V*%
X163825000Y-87630000D02*
X163825000Y-90170000D01*
X141600000Y-96200000D02*
X143190000Y-96200000D01*
X163094000Y-102976000D02*
X164470000Y-101600000D01*
X161925000Y-106045000D02*
X163094000Y-104876000D01*
X162399000Y-91596000D02*
X147794000Y-91596000D01*
X163825000Y-90170000D02*
X165846000Y-92191000D01*
X165846000Y-100224000D02*
X164470000Y-101600000D01*
X147794000Y-91596000D02*
X145410000Y-93980000D01*
X165846000Y-92191000D02*
X165846000Y-100224000D01*
X143190000Y-96200000D02*
X145410000Y-93980000D01*
X163094000Y-104876000D02*
X163094000Y-102976000D01*
X163825000Y-90170000D02*
X162399000Y-91596000D01*
%TO.N,GND*%
X181610000Y-87630000D02*
X181610000Y-90170000D01*
X154940000Y-87630000D02*
X154940000Y-90170000D01*
%TO.N,Net-(LM317-VO)*%
X143820000Y-91440000D02*
X139060000Y-96200000D01*
X144145000Y-91440000D02*
X143820000Y-91440000D01*
%TO.N,Net-(OpAmp1D--)*%
X172090000Y-96520000D02*
X172720000Y-96520000D01*
X174625000Y-94615000D02*
X172720000Y-96520000D01*
X172720000Y-96520000D02*
X174625000Y-98425000D01*
%TO.N,/X+*%
X154149000Y-106000669D02*
X154149000Y-102391000D01*
X154305000Y-98425000D02*
X152400000Y-100330000D01*
X164470000Y-109220000D02*
X157368331Y-109220000D01*
X152400000Y-100330000D02*
X154305000Y-102235000D01*
X154149000Y-102391000D02*
X154305000Y-102235000D01*
X157368331Y-109220000D02*
X154149000Y-106000669D01*
X151765000Y-99695000D02*
X152400000Y-100330000D01*
%TO.N,/X-*%
X155581000Y-93339000D02*
X163829000Y-93339000D01*
X154305000Y-94615000D02*
X155581000Y-93339000D01*
X151765000Y-97155000D02*
X154305000Y-94615000D01*
X163829000Y-93339000D02*
X164470000Y-93980000D01*
%TO.N,/Y+*%
X182245000Y-102235000D02*
X182401000Y-102391000D01*
X182245000Y-102235000D02*
X184150000Y-100330000D01*
X182401000Y-102391000D02*
X182401000Y-106000669D01*
X184150000Y-100330000D02*
X184785000Y-99695000D01*
X182401000Y-106000669D02*
X179181669Y-109220000D01*
X179181669Y-109220000D02*
X172090000Y-109220000D01*
X182245000Y-98425000D02*
X184150000Y-100330000D01*
%TO.N,/Y-*%
X180969000Y-93339000D02*
X172731000Y-93339000D01*
X172731000Y-93339000D02*
X172090000Y-93980000D01*
X182245000Y-94615000D02*
X180969000Y-93339000D01*
X184785000Y-94615000D02*
X182245000Y-94615000D01*
%TO.N,/Y_In*%
X172090000Y-104140000D02*
X170714000Y-105516000D01*
X170714000Y-113569000D02*
X170810000Y-113665000D01*
X170714000Y-105516000D02*
X170714000Y-113569000D01*
%TO.N,/X_In*%
X165846000Y-113549000D02*
X165730000Y-113665000D01*
X164470000Y-104140000D02*
X165846000Y-105516000D01*
X165846000Y-105516000D02*
X165846000Y-113549000D01*
%TO.N,/-15V*%
X170714000Y-92171000D02*
X170714000Y-100224000D01*
X172715000Y-90170000D02*
X170714000Y-92171000D01*
X172715000Y-87630000D02*
X172715000Y-90170000D01*
X170714000Y-100224000D02*
X172090000Y-101600000D01*
%TO.N,Net-(OpAmp1C--)*%
X172090000Y-106680000D02*
X174625000Y-104145000D01*
X180975000Y-105410000D02*
X179710000Y-104145000D01*
X174625000Y-104145000D02*
X174625000Y-102235000D01*
X179710000Y-104145000D02*
X174625000Y-104145000D01*
%TO.N,Net-(OpAmp1B--)*%
X158750000Y-102235000D02*
X161925000Y-102235000D01*
X155575000Y-105410000D02*
X158750000Y-102235000D01*
%TO.N,/+5V*%
X161925000Y-113665000D02*
X160020000Y-113665000D01*
X173199000Y-115091000D02*
X163351000Y-115091000D01*
X174625000Y-113665000D02*
X173199000Y-115091000D01*
X176530000Y-113665000D02*
X178435000Y-115570000D01*
X174625000Y-113665000D02*
X176530000Y-113665000D01*
X163351000Y-115091000D02*
X161925000Y-113665000D01*
X160020000Y-113665000D02*
X158115000Y-115570000D01*
%TO.N,Net-(OpAmp1A--)*%
X164470000Y-96520000D02*
X163830000Y-96520000D01*
X161925000Y-94615000D02*
X163830000Y-96520000D01*
X163830000Y-96520000D02*
X161925000Y-98425000D01*
%TO.N,/Vreg*%
X136525000Y-91440000D02*
X140335000Y-87630000D01*
X136520000Y-96200000D02*
X136520000Y-91445000D01*
X136520000Y-96200000D02*
X136520000Y-101405000D01*
X136520000Y-101405000D02*
X136510000Y-101415000D01*
X136520000Y-91445000D02*
X136525000Y-91440000D01*
%TO.N,/Gate*%
X139050000Y-101415000D02*
X139050000Y-105400000D01*
X141600000Y-105410000D02*
X139060000Y-105410000D01*
X139050000Y-105400000D02*
X139060000Y-105410000D01*
%TO.N,Net-(LaserEn1-Pad1)*%
X141605000Y-115570000D02*
X141600000Y-115570000D01*
X141600000Y-115570000D02*
X139060000Y-113030000D01*
%TD*%
M02*
