%TF.GenerationSoftware,KiCad,Pcbnew,9.0.4*%
%TF.CreationDate,2025-10-10T13:21:22-04:00*%
%TF.ProjectId,PhotonPlayV1,50686f74-6f6e-4506-9c61-7956312e6b69,rev?*%
%TF.SameCoordinates,Original*%
%TF.FileFunction,Legend,Top*%
%TF.FilePolarity,Positive*%
%FSLAX46Y46*%
G04 Gerber Fmt 4.6, Leading zero omitted, Abs format (unit mm)*
G04 Created by KiCad (PCBNEW 9.0.4) date 2025-10-10 13:21:22*
%MOMM*%
%LPD*%
G01*
G04 APERTURE LIST*
%ADD10C,0.450000*%
%ADD11C,0.150000*%
%ADD12C,0.250000*%
%ADD13C,0.120000*%
%ADD14C,0.100000*%
G04 APERTURE END LIST*
D10*
X149604076Y-112773709D02*
X147704076Y-112773709D01*
X147704076Y-112773709D02*
X147704076Y-111821328D01*
X147704076Y-111821328D02*
X147794552Y-111583233D01*
X147794552Y-111583233D02*
X147885028Y-111464186D01*
X147885028Y-111464186D02*
X148065980Y-111345138D01*
X148065980Y-111345138D02*
X148337409Y-111345138D01*
X148337409Y-111345138D02*
X148518361Y-111464186D01*
X148518361Y-111464186D02*
X148608838Y-111583233D01*
X148608838Y-111583233D02*
X148699314Y-111821328D01*
X148699314Y-111821328D02*
X148699314Y-112773709D01*
X149604076Y-109916567D02*
X149513600Y-110154662D01*
X149513600Y-110154662D02*
X149332647Y-110273709D01*
X149332647Y-110273709D02*
X147704076Y-110273709D01*
X149604076Y-107892757D02*
X148608838Y-107892757D01*
X148608838Y-107892757D02*
X148427885Y-108011804D01*
X148427885Y-108011804D02*
X148337409Y-108249900D01*
X148337409Y-108249900D02*
X148337409Y-108726090D01*
X148337409Y-108726090D02*
X148427885Y-108964185D01*
X149513600Y-107892757D02*
X149604076Y-108130852D01*
X149604076Y-108130852D02*
X149604076Y-108726090D01*
X149604076Y-108726090D02*
X149513600Y-108964185D01*
X149513600Y-108964185D02*
X149332647Y-109083233D01*
X149332647Y-109083233D02*
X149151695Y-109083233D01*
X149151695Y-109083233D02*
X148970742Y-108964185D01*
X148970742Y-108964185D02*
X148880266Y-108726090D01*
X148880266Y-108726090D02*
X148880266Y-108130852D01*
X148880266Y-108130852D02*
X148789790Y-107892757D01*
X148337409Y-106940376D02*
X149604076Y-106345138D01*
X148337409Y-105749899D02*
X149604076Y-106345138D01*
X149604076Y-106345138D02*
X150056457Y-106583233D01*
X150056457Y-106583233D02*
X150146933Y-106702280D01*
X150146933Y-106702280D02*
X150237409Y-106940376D01*
D11*
X136298095Y-100149819D02*
X136298095Y-99149819D01*
X136298095Y-99149819D02*
X136536190Y-99149819D01*
X136536190Y-99149819D02*
X136679047Y-99197438D01*
X136679047Y-99197438D02*
X136774285Y-99292676D01*
X136774285Y-99292676D02*
X136821904Y-99387914D01*
X136821904Y-99387914D02*
X136869523Y-99578390D01*
X136869523Y-99578390D02*
X136869523Y-99721247D01*
X136869523Y-99721247D02*
X136821904Y-99911723D01*
X136821904Y-99911723D02*
X136774285Y-100006961D01*
X136774285Y-100006961D02*
X136679047Y-100102200D01*
X136679047Y-100102200D02*
X136536190Y-100149819D01*
X136536190Y-100149819D02*
X136298095Y-100149819D01*
X139345714Y-99197438D02*
X139250476Y-99149819D01*
X139250476Y-99149819D02*
X139107619Y-99149819D01*
X139107619Y-99149819D02*
X138964762Y-99197438D01*
X138964762Y-99197438D02*
X138869524Y-99292676D01*
X138869524Y-99292676D02*
X138821905Y-99387914D01*
X138821905Y-99387914D02*
X138774286Y-99578390D01*
X138774286Y-99578390D02*
X138774286Y-99721247D01*
X138774286Y-99721247D02*
X138821905Y-99911723D01*
X138821905Y-99911723D02*
X138869524Y-100006961D01*
X138869524Y-100006961D02*
X138964762Y-100102200D01*
X138964762Y-100102200D02*
X139107619Y-100149819D01*
X139107619Y-100149819D02*
X139202857Y-100149819D01*
X139202857Y-100149819D02*
X139345714Y-100102200D01*
X139345714Y-100102200D02*
X139393333Y-100054580D01*
X139393333Y-100054580D02*
X139393333Y-99721247D01*
X139393333Y-99721247D02*
X139202857Y-99721247D01*
X141298096Y-100102200D02*
X141440953Y-100149819D01*
X141440953Y-100149819D02*
X141679048Y-100149819D01*
X141679048Y-100149819D02*
X141774286Y-100102200D01*
X141774286Y-100102200D02*
X141821905Y-100054580D01*
X141821905Y-100054580D02*
X141869524Y-99959342D01*
X141869524Y-99959342D02*
X141869524Y-99864104D01*
X141869524Y-99864104D02*
X141821905Y-99768866D01*
X141821905Y-99768866D02*
X141774286Y-99721247D01*
X141774286Y-99721247D02*
X141679048Y-99673628D01*
X141679048Y-99673628D02*
X141488572Y-99626009D01*
X141488572Y-99626009D02*
X141393334Y-99578390D01*
X141393334Y-99578390D02*
X141345715Y-99530771D01*
X141345715Y-99530771D02*
X141298096Y-99435533D01*
X141298096Y-99435533D02*
X141298096Y-99340295D01*
X141298096Y-99340295D02*
X141345715Y-99245057D01*
X141345715Y-99245057D02*
X141393334Y-99197438D01*
X141393334Y-99197438D02*
X141488572Y-99149819D01*
X141488572Y-99149819D02*
X141726667Y-99149819D01*
X141726667Y-99149819D02*
X141869524Y-99197438D01*
D10*
X147064076Y-115313709D02*
X145164076Y-115313709D01*
X145164076Y-115313709D02*
X145164076Y-114361328D01*
X145164076Y-114361328D02*
X145254552Y-114123233D01*
X145254552Y-114123233D02*
X145345028Y-114004186D01*
X145345028Y-114004186D02*
X145525980Y-113885138D01*
X145525980Y-113885138D02*
X145797409Y-113885138D01*
X145797409Y-113885138D02*
X145978361Y-114004186D01*
X145978361Y-114004186D02*
X146068838Y-114123233D01*
X146068838Y-114123233D02*
X146159314Y-114361328D01*
X146159314Y-114361328D02*
X146159314Y-115313709D01*
X147064076Y-112813709D02*
X145164076Y-112813709D01*
X147064076Y-111742281D02*
X146068838Y-111742281D01*
X146068838Y-111742281D02*
X145887885Y-111861328D01*
X145887885Y-111861328D02*
X145797409Y-112099424D01*
X145797409Y-112099424D02*
X145797409Y-112456567D01*
X145797409Y-112456567D02*
X145887885Y-112694662D01*
X145887885Y-112694662D02*
X145978361Y-112813709D01*
X147064076Y-110194662D02*
X146973600Y-110432757D01*
X146973600Y-110432757D02*
X146883123Y-110551804D01*
X146883123Y-110551804D02*
X146702171Y-110670852D01*
X146702171Y-110670852D02*
X146159314Y-110670852D01*
X146159314Y-110670852D02*
X145978361Y-110551804D01*
X145978361Y-110551804D02*
X145887885Y-110432757D01*
X145887885Y-110432757D02*
X145797409Y-110194662D01*
X145797409Y-110194662D02*
X145797409Y-109837519D01*
X145797409Y-109837519D02*
X145887885Y-109599423D01*
X145887885Y-109599423D02*
X145978361Y-109480376D01*
X145978361Y-109480376D02*
X146159314Y-109361328D01*
X146159314Y-109361328D02*
X146702171Y-109361328D01*
X146702171Y-109361328D02*
X146883123Y-109480376D01*
X146883123Y-109480376D02*
X146973600Y-109599423D01*
X146973600Y-109599423D02*
X147064076Y-109837519D01*
X147064076Y-109837519D02*
X147064076Y-110194662D01*
X145797409Y-108647042D02*
X145797409Y-107694661D01*
X145164076Y-108289899D02*
X146792647Y-108289899D01*
X146792647Y-108289899D02*
X146973600Y-108170852D01*
X146973600Y-108170852D02*
X147064076Y-107932757D01*
X147064076Y-107932757D02*
X147064076Y-107694661D01*
X147064076Y-106504186D02*
X146973600Y-106742281D01*
X146973600Y-106742281D02*
X146883123Y-106861328D01*
X146883123Y-106861328D02*
X146702171Y-106980376D01*
X146702171Y-106980376D02*
X146159314Y-106980376D01*
X146159314Y-106980376D02*
X145978361Y-106861328D01*
X145978361Y-106861328D02*
X145887885Y-106742281D01*
X145887885Y-106742281D02*
X145797409Y-106504186D01*
X145797409Y-106504186D02*
X145797409Y-106147043D01*
X145797409Y-106147043D02*
X145887885Y-105908947D01*
X145887885Y-105908947D02*
X145978361Y-105789900D01*
X145978361Y-105789900D02*
X146159314Y-105670852D01*
X146159314Y-105670852D02*
X146702171Y-105670852D01*
X146702171Y-105670852D02*
X146883123Y-105789900D01*
X146883123Y-105789900D02*
X146973600Y-105908947D01*
X146973600Y-105908947D02*
X147064076Y-106147043D01*
X147064076Y-106147043D02*
X147064076Y-106504186D01*
X145797409Y-104599423D02*
X147064076Y-104599423D01*
X145978361Y-104599423D02*
X145887885Y-104480376D01*
X145887885Y-104480376D02*
X145797409Y-104242281D01*
X145797409Y-104242281D02*
X145797409Y-103885138D01*
X145797409Y-103885138D02*
X145887885Y-103647042D01*
X145887885Y-103647042D02*
X146068838Y-103527995D01*
X146068838Y-103527995D02*
X147064076Y-103527995D01*
D11*
X139454047Y-89989819D02*
X139120714Y-89513628D01*
X138882619Y-89989819D02*
X138882619Y-88989819D01*
X138882619Y-88989819D02*
X139263571Y-88989819D01*
X139263571Y-88989819D02*
X139358809Y-89037438D01*
X139358809Y-89037438D02*
X139406428Y-89085057D01*
X139406428Y-89085057D02*
X139454047Y-89180295D01*
X139454047Y-89180295D02*
X139454047Y-89323152D01*
X139454047Y-89323152D02*
X139406428Y-89418390D01*
X139406428Y-89418390D02*
X139358809Y-89466009D01*
X139358809Y-89466009D02*
X139263571Y-89513628D01*
X139263571Y-89513628D02*
X138882619Y-89513628D01*
X139882619Y-89989819D02*
X139882619Y-89323152D01*
X139882619Y-89513628D02*
X139930238Y-89418390D01*
X139930238Y-89418390D02*
X139977857Y-89370771D01*
X139977857Y-89370771D02*
X140073095Y-89323152D01*
X140073095Y-89323152D02*
X140168333Y-89323152D01*
X140882619Y-89942200D02*
X140787381Y-89989819D01*
X140787381Y-89989819D02*
X140596905Y-89989819D01*
X140596905Y-89989819D02*
X140501667Y-89942200D01*
X140501667Y-89942200D02*
X140454048Y-89846961D01*
X140454048Y-89846961D02*
X140454048Y-89466009D01*
X140454048Y-89466009D02*
X140501667Y-89370771D01*
X140501667Y-89370771D02*
X140596905Y-89323152D01*
X140596905Y-89323152D02*
X140787381Y-89323152D01*
X140787381Y-89323152D02*
X140882619Y-89370771D01*
X140882619Y-89370771D02*
X140930238Y-89466009D01*
X140930238Y-89466009D02*
X140930238Y-89561247D01*
X140930238Y-89561247D02*
X140454048Y-89656485D01*
X141787381Y-89323152D02*
X141787381Y-90132676D01*
X141787381Y-90132676D02*
X141739762Y-90227914D01*
X141739762Y-90227914D02*
X141692143Y-90275533D01*
X141692143Y-90275533D02*
X141596905Y-90323152D01*
X141596905Y-90323152D02*
X141454048Y-90323152D01*
X141454048Y-90323152D02*
X141358810Y-90275533D01*
X141787381Y-89942200D02*
X141692143Y-89989819D01*
X141692143Y-89989819D02*
X141501667Y-89989819D01*
X141501667Y-89989819D02*
X141406429Y-89942200D01*
X141406429Y-89942200D02*
X141358810Y-89894580D01*
X141358810Y-89894580D02*
X141311191Y-89799342D01*
X141311191Y-89799342D02*
X141311191Y-89513628D01*
X141311191Y-89513628D02*
X141358810Y-89418390D01*
X141358810Y-89418390D02*
X141406429Y-89370771D01*
X141406429Y-89370771D02*
X141501667Y-89323152D01*
X141501667Y-89323152D02*
X141692143Y-89323152D01*
X141692143Y-89323152D02*
X141787381Y-89370771D01*
X157543571Y-93164819D02*
X157210238Y-92688628D01*
X156972143Y-93164819D02*
X156972143Y-92164819D01*
X156972143Y-92164819D02*
X157353095Y-92164819D01*
X157353095Y-92164819D02*
X157448333Y-92212438D01*
X157448333Y-92212438D02*
X157495952Y-92260057D01*
X157495952Y-92260057D02*
X157543571Y-92355295D01*
X157543571Y-92355295D02*
X157543571Y-92498152D01*
X157543571Y-92498152D02*
X157495952Y-92593390D01*
X157495952Y-92593390D02*
X157448333Y-92641009D01*
X157448333Y-92641009D02*
X157353095Y-92688628D01*
X157353095Y-92688628D02*
X156972143Y-92688628D01*
X157876905Y-93164819D02*
X158400714Y-92498152D01*
X157876905Y-92498152D02*
X158400714Y-93164819D01*
X158686429Y-92164819D02*
X159305476Y-92164819D01*
X159305476Y-92164819D02*
X158972143Y-92545771D01*
X158972143Y-92545771D02*
X159115000Y-92545771D01*
X159115000Y-92545771D02*
X159210238Y-92593390D01*
X159210238Y-92593390D02*
X159257857Y-92641009D01*
X159257857Y-92641009D02*
X159305476Y-92736247D01*
X159305476Y-92736247D02*
X159305476Y-92974342D01*
X159305476Y-92974342D02*
X159257857Y-93069580D01*
X159257857Y-93069580D02*
X159210238Y-93117200D01*
X159210238Y-93117200D02*
X159115000Y-93164819D01*
X159115000Y-93164819D02*
X158829286Y-93164819D01*
X158829286Y-93164819D02*
X158734048Y-93117200D01*
X158734048Y-93117200D02*
X158686429Y-93069580D01*
X177887380Y-97259819D02*
X177554047Y-96783628D01*
X177315952Y-97259819D02*
X177315952Y-96259819D01*
X177315952Y-96259819D02*
X177696904Y-96259819D01*
X177696904Y-96259819D02*
X177792142Y-96307438D01*
X177792142Y-96307438D02*
X177839761Y-96355057D01*
X177839761Y-96355057D02*
X177887380Y-96450295D01*
X177887380Y-96450295D02*
X177887380Y-96593152D01*
X177887380Y-96593152D02*
X177839761Y-96688390D01*
X177839761Y-96688390D02*
X177792142Y-96736009D01*
X177792142Y-96736009D02*
X177696904Y-96783628D01*
X177696904Y-96783628D02*
X177315952Y-96783628D01*
X178220714Y-96593152D02*
X178458809Y-97259819D01*
X178696904Y-96593152D02*
X178458809Y-97259819D01*
X178458809Y-97259819D02*
X178363571Y-97497914D01*
X178363571Y-97497914D02*
X178315952Y-97545533D01*
X178315952Y-97545533D02*
X178220714Y-97593152D01*
X179030238Y-96355057D02*
X179077857Y-96307438D01*
X179077857Y-96307438D02*
X179173095Y-96259819D01*
X179173095Y-96259819D02*
X179411190Y-96259819D01*
X179411190Y-96259819D02*
X179506428Y-96307438D01*
X179506428Y-96307438D02*
X179554047Y-96355057D01*
X179554047Y-96355057D02*
X179601666Y-96450295D01*
X179601666Y-96450295D02*
X179601666Y-96545533D01*
X179601666Y-96545533D02*
X179554047Y-96688390D01*
X179554047Y-96688390D02*
X178982619Y-97259819D01*
X178982619Y-97259819D02*
X179601666Y-97259819D01*
X157543571Y-100784819D02*
X157210238Y-100308628D01*
X156972143Y-100784819D02*
X156972143Y-99784819D01*
X156972143Y-99784819D02*
X157353095Y-99784819D01*
X157353095Y-99784819D02*
X157448333Y-99832438D01*
X157448333Y-99832438D02*
X157495952Y-99880057D01*
X157495952Y-99880057D02*
X157543571Y-99975295D01*
X157543571Y-99975295D02*
X157543571Y-100118152D01*
X157543571Y-100118152D02*
X157495952Y-100213390D01*
X157495952Y-100213390D02*
X157448333Y-100261009D01*
X157448333Y-100261009D02*
X157353095Y-100308628D01*
X157353095Y-100308628D02*
X156972143Y-100308628D01*
X157876905Y-100784819D02*
X158400714Y-100118152D01*
X157876905Y-100118152D02*
X158400714Y-100784819D01*
X159305476Y-100784819D02*
X158734048Y-100784819D01*
X159019762Y-100784819D02*
X159019762Y-99784819D01*
X159019762Y-99784819D02*
X158924524Y-99927676D01*
X158924524Y-99927676D02*
X158829286Y-100022914D01*
X158829286Y-100022914D02*
X158734048Y-100070533D01*
X166179762Y-90894819D02*
X166370238Y-90894819D01*
X166370238Y-90894819D02*
X166465476Y-90942438D01*
X166465476Y-90942438D02*
X166560714Y-91037676D01*
X166560714Y-91037676D02*
X166608333Y-91228152D01*
X166608333Y-91228152D02*
X166608333Y-91561485D01*
X166608333Y-91561485D02*
X166560714Y-91751961D01*
X166560714Y-91751961D02*
X166465476Y-91847200D01*
X166465476Y-91847200D02*
X166370238Y-91894819D01*
X166370238Y-91894819D02*
X166179762Y-91894819D01*
X166179762Y-91894819D02*
X166084524Y-91847200D01*
X166084524Y-91847200D02*
X165989286Y-91751961D01*
X165989286Y-91751961D02*
X165941667Y-91561485D01*
X165941667Y-91561485D02*
X165941667Y-91228152D01*
X165941667Y-91228152D02*
X165989286Y-91037676D01*
X165989286Y-91037676D02*
X166084524Y-90942438D01*
X166084524Y-90942438D02*
X166179762Y-90894819D01*
X167036905Y-91228152D02*
X167036905Y-92228152D01*
X167036905Y-91275771D02*
X167132143Y-91228152D01*
X167132143Y-91228152D02*
X167322619Y-91228152D01*
X167322619Y-91228152D02*
X167417857Y-91275771D01*
X167417857Y-91275771D02*
X167465476Y-91323390D01*
X167465476Y-91323390D02*
X167513095Y-91418628D01*
X167513095Y-91418628D02*
X167513095Y-91704342D01*
X167513095Y-91704342D02*
X167465476Y-91799580D01*
X167465476Y-91799580D02*
X167417857Y-91847200D01*
X167417857Y-91847200D02*
X167322619Y-91894819D01*
X167322619Y-91894819D02*
X167132143Y-91894819D01*
X167132143Y-91894819D02*
X167036905Y-91847200D01*
X167894048Y-91609104D02*
X168370238Y-91609104D01*
X167798810Y-91894819D02*
X168132143Y-90894819D01*
X168132143Y-90894819D02*
X168465476Y-91894819D01*
X168798810Y-91894819D02*
X168798810Y-91228152D01*
X168798810Y-91323390D02*
X168846429Y-91275771D01*
X168846429Y-91275771D02*
X168941667Y-91228152D01*
X168941667Y-91228152D02*
X169084524Y-91228152D01*
X169084524Y-91228152D02*
X169179762Y-91275771D01*
X169179762Y-91275771D02*
X169227381Y-91371009D01*
X169227381Y-91371009D02*
X169227381Y-91894819D01*
X169227381Y-91371009D02*
X169275000Y-91275771D01*
X169275000Y-91275771D02*
X169370238Y-91228152D01*
X169370238Y-91228152D02*
X169513095Y-91228152D01*
X169513095Y-91228152D02*
X169608334Y-91275771D01*
X169608334Y-91275771D02*
X169655953Y-91371009D01*
X169655953Y-91371009D02*
X169655953Y-91894819D01*
X170132143Y-91228152D02*
X170132143Y-92228152D01*
X170132143Y-91275771D02*
X170227381Y-91228152D01*
X170227381Y-91228152D02*
X170417857Y-91228152D01*
X170417857Y-91228152D02*
X170513095Y-91275771D01*
X170513095Y-91275771D02*
X170560714Y-91323390D01*
X170560714Y-91323390D02*
X170608333Y-91418628D01*
X170608333Y-91418628D02*
X170608333Y-91704342D01*
X170608333Y-91704342D02*
X170560714Y-91799580D01*
X170560714Y-91799580D02*
X170513095Y-91847200D01*
X170513095Y-91847200D02*
X170417857Y-91894819D01*
X170417857Y-91894819D02*
X170227381Y-91894819D01*
X170227381Y-91894819D02*
X170132143Y-91847200D01*
D12*
X171331615Y-84957000D02*
X172474473Y-84957000D01*
X172974473Y-84028428D02*
X173474473Y-85528428D01*
X173474473Y-85528428D02*
X173974473Y-84028428D01*
D11*
X183356428Y-103959819D02*
X183356428Y-102959819D01*
X183356428Y-102959819D02*
X183737380Y-102959819D01*
X183737380Y-102959819D02*
X183832618Y-103007438D01*
X183832618Y-103007438D02*
X183880237Y-103055057D01*
X183880237Y-103055057D02*
X183927856Y-103150295D01*
X183927856Y-103150295D02*
X183927856Y-103293152D01*
X183927856Y-103293152D02*
X183880237Y-103388390D01*
X183880237Y-103388390D02*
X183832618Y-103436009D01*
X183832618Y-103436009D02*
X183737380Y-103483628D01*
X183737380Y-103483628D02*
X183356428Y-103483628D01*
X184499285Y-103959819D02*
X184404047Y-103912200D01*
X184404047Y-103912200D02*
X184356428Y-103864580D01*
X184356428Y-103864580D02*
X184308809Y-103769342D01*
X184308809Y-103769342D02*
X184308809Y-103483628D01*
X184308809Y-103483628D02*
X184356428Y-103388390D01*
X184356428Y-103388390D02*
X184404047Y-103340771D01*
X184404047Y-103340771D02*
X184499285Y-103293152D01*
X184499285Y-103293152D02*
X184642142Y-103293152D01*
X184642142Y-103293152D02*
X184737380Y-103340771D01*
X184737380Y-103340771D02*
X184784999Y-103388390D01*
X184784999Y-103388390D02*
X184832618Y-103483628D01*
X184832618Y-103483628D02*
X184832618Y-103769342D01*
X184832618Y-103769342D02*
X184784999Y-103864580D01*
X184784999Y-103864580D02*
X184737380Y-103912200D01*
X184737380Y-103912200D02*
X184642142Y-103959819D01*
X184642142Y-103959819D02*
X184499285Y-103959819D01*
X185118333Y-103293152D02*
X185499285Y-103293152D01*
X185261190Y-102959819D02*
X185261190Y-103816961D01*
X185261190Y-103816961D02*
X185308809Y-103912200D01*
X185308809Y-103912200D02*
X185404047Y-103959819D01*
X185404047Y-103959819D02*
X185499285Y-103959819D01*
X186023095Y-103483628D02*
X186023095Y-103959819D01*
X185689762Y-102959819D02*
X186023095Y-103483628D01*
X186023095Y-103483628D02*
X186356428Y-102959819D01*
X161321904Y-116024819D02*
X160988571Y-115548628D01*
X160750476Y-116024819D02*
X160750476Y-115024819D01*
X160750476Y-115024819D02*
X161131428Y-115024819D01*
X161131428Y-115024819D02*
X161226666Y-115072438D01*
X161226666Y-115072438D02*
X161274285Y-115120057D01*
X161274285Y-115120057D02*
X161321904Y-115215295D01*
X161321904Y-115215295D02*
X161321904Y-115358152D01*
X161321904Y-115358152D02*
X161274285Y-115453390D01*
X161274285Y-115453390D02*
X161226666Y-115501009D01*
X161226666Y-115501009D02*
X161131428Y-115548628D01*
X161131428Y-115548628D02*
X160750476Y-115548628D01*
X162179047Y-116024819D02*
X162179047Y-115024819D01*
X162179047Y-115977200D02*
X162083809Y-116024819D01*
X162083809Y-116024819D02*
X161893333Y-116024819D01*
X161893333Y-116024819D02*
X161798095Y-115977200D01*
X161798095Y-115977200D02*
X161750476Y-115929580D01*
X161750476Y-115929580D02*
X161702857Y-115834342D01*
X161702857Y-115834342D02*
X161702857Y-115548628D01*
X161702857Y-115548628D02*
X161750476Y-115453390D01*
X161750476Y-115453390D02*
X161798095Y-115405771D01*
X161798095Y-115405771D02*
X161893333Y-115358152D01*
X161893333Y-115358152D02*
X162083809Y-115358152D01*
X162083809Y-115358152D02*
X162179047Y-115405771D01*
X162655238Y-116024819D02*
X162655238Y-115358152D01*
X162655238Y-115024819D02*
X162607619Y-115072438D01*
X162607619Y-115072438D02*
X162655238Y-115120057D01*
X162655238Y-115120057D02*
X162702857Y-115072438D01*
X162702857Y-115072438D02*
X162655238Y-115024819D01*
X162655238Y-115024819D02*
X162655238Y-115120057D01*
X163036190Y-115358152D02*
X163274285Y-116024819D01*
X163274285Y-116024819D02*
X163512380Y-115358152D01*
X164417142Y-116024819D02*
X163845714Y-116024819D01*
X164131428Y-116024819D02*
X164131428Y-115024819D01*
X164131428Y-115024819D02*
X164036190Y-115167676D01*
X164036190Y-115167676D02*
X163940952Y-115262914D01*
X163940952Y-115262914D02*
X163845714Y-115310533D01*
X135069819Y-103457142D02*
X134069819Y-103457142D01*
X134069819Y-103457142D02*
X135069819Y-102885714D01*
X135069819Y-102885714D02*
X134069819Y-102885714D01*
X135069819Y-102409523D02*
X134069819Y-102409523D01*
X134069819Y-102409523D02*
X134784104Y-102076190D01*
X134784104Y-102076190D02*
X134069819Y-101742857D01*
X134069819Y-101742857D02*
X135069819Y-101742857D01*
X134069819Y-101076190D02*
X134069819Y-100885714D01*
X134069819Y-100885714D02*
X134117438Y-100790476D01*
X134117438Y-100790476D02*
X134212676Y-100695238D01*
X134212676Y-100695238D02*
X134403152Y-100647619D01*
X134403152Y-100647619D02*
X134736485Y-100647619D01*
X134736485Y-100647619D02*
X134926961Y-100695238D01*
X134926961Y-100695238D02*
X135022200Y-100790476D01*
X135022200Y-100790476D02*
X135069819Y-100885714D01*
X135069819Y-100885714D02*
X135069819Y-101076190D01*
X135069819Y-101076190D02*
X135022200Y-101171428D01*
X135022200Y-101171428D02*
X134926961Y-101266666D01*
X134926961Y-101266666D02*
X134736485Y-101314285D01*
X134736485Y-101314285D02*
X134403152Y-101314285D01*
X134403152Y-101314285D02*
X134212676Y-101266666D01*
X134212676Y-101266666D02*
X134117438Y-101171428D01*
X134117438Y-101171428D02*
X134069819Y-101076190D01*
X135022200Y-100266666D02*
X135069819Y-100123809D01*
X135069819Y-100123809D02*
X135069819Y-99885714D01*
X135069819Y-99885714D02*
X135022200Y-99790476D01*
X135022200Y-99790476D02*
X134974580Y-99742857D01*
X134974580Y-99742857D02*
X134879342Y-99695238D01*
X134879342Y-99695238D02*
X134784104Y-99695238D01*
X134784104Y-99695238D02*
X134688866Y-99742857D01*
X134688866Y-99742857D02*
X134641247Y-99790476D01*
X134641247Y-99790476D02*
X134593628Y-99885714D01*
X134593628Y-99885714D02*
X134546009Y-100076190D01*
X134546009Y-100076190D02*
X134498390Y-100171428D01*
X134498390Y-100171428D02*
X134450771Y-100219047D01*
X134450771Y-100219047D02*
X134355533Y-100266666D01*
X134355533Y-100266666D02*
X134260295Y-100266666D01*
X134260295Y-100266666D02*
X134165057Y-100219047D01*
X134165057Y-100219047D02*
X134117438Y-100171428D01*
X134117438Y-100171428D02*
X134069819Y-100076190D01*
X134069819Y-100076190D02*
X134069819Y-99838095D01*
X134069819Y-99838095D02*
X134117438Y-99695238D01*
D12*
X165478758Y-117048428D02*
X166478758Y-118548428D01*
X166478758Y-117048428D02*
X165478758Y-118548428D01*
X167335901Y-117834142D02*
X167335901Y-118548428D01*
X166835901Y-117048428D02*
X167335901Y-117834142D01*
X167335901Y-117834142D02*
X167835901Y-117048428D01*
X167978758Y-118691285D02*
X169121615Y-118691285D01*
X169478757Y-118548428D02*
X169478757Y-117048428D01*
X170193043Y-117548428D02*
X170193043Y-118548428D01*
X170193043Y-117691285D02*
X170264472Y-117619857D01*
X170264472Y-117619857D02*
X170407329Y-117548428D01*
X170407329Y-117548428D02*
X170621615Y-117548428D01*
X170621615Y-117548428D02*
X170764472Y-117619857D01*
X170764472Y-117619857D02*
X170835901Y-117762714D01*
X170835901Y-117762714D02*
X170835901Y-118548428D01*
X148163428Y-99951241D02*
X149663428Y-98951241D01*
X148163428Y-98951241D02*
X149663428Y-99951241D01*
X149806285Y-98736956D02*
X149806285Y-97594098D01*
X148163428Y-96951241D02*
X148163428Y-96665527D01*
X148163428Y-96665527D02*
X148234857Y-96522670D01*
X148234857Y-96522670D02*
X148377714Y-96379813D01*
X148377714Y-96379813D02*
X148663428Y-96308384D01*
X148663428Y-96308384D02*
X149163428Y-96308384D01*
X149163428Y-96308384D02*
X149449142Y-96379813D01*
X149449142Y-96379813D02*
X149592000Y-96522670D01*
X149592000Y-96522670D02*
X149663428Y-96665527D01*
X149663428Y-96665527D02*
X149663428Y-96951241D01*
X149663428Y-96951241D02*
X149592000Y-97094099D01*
X149592000Y-97094099D02*
X149449142Y-97236956D01*
X149449142Y-97236956D02*
X149163428Y-97308384D01*
X149163428Y-97308384D02*
X148663428Y-97308384D01*
X148663428Y-97308384D02*
X148377714Y-97236956D01*
X148377714Y-97236956D02*
X148234857Y-97094099D01*
X148234857Y-97094099D02*
X148163428Y-96951241D01*
X148663428Y-95022670D02*
X149663428Y-95022670D01*
X148663428Y-95665527D02*
X149449142Y-95665527D01*
X149449142Y-95665527D02*
X149592000Y-95594098D01*
X149592000Y-95594098D02*
X149663428Y-95451241D01*
X149663428Y-95451241D02*
X149663428Y-95236955D01*
X149663428Y-95236955D02*
X149592000Y-95094098D01*
X149592000Y-95094098D02*
X149520571Y-95022670D01*
X148663428Y-94522669D02*
X148663428Y-93951241D01*
X148163428Y-94308384D02*
X149449142Y-94308384D01*
X149449142Y-94308384D02*
X149592000Y-94236955D01*
X149592000Y-94236955D02*
X149663428Y-94094098D01*
X149663428Y-94094098D02*
X149663428Y-93951241D01*
D11*
X177887380Y-100784819D02*
X177554047Y-100308628D01*
X177315952Y-100784819D02*
X177315952Y-99784819D01*
X177315952Y-99784819D02*
X177696904Y-99784819D01*
X177696904Y-99784819D02*
X177792142Y-99832438D01*
X177792142Y-99832438D02*
X177839761Y-99880057D01*
X177839761Y-99880057D02*
X177887380Y-99975295D01*
X177887380Y-99975295D02*
X177887380Y-100118152D01*
X177887380Y-100118152D02*
X177839761Y-100213390D01*
X177839761Y-100213390D02*
X177792142Y-100261009D01*
X177792142Y-100261009D02*
X177696904Y-100308628D01*
X177696904Y-100308628D02*
X177315952Y-100308628D01*
X178220714Y-100118152D02*
X178458809Y-100784819D01*
X178696904Y-100118152D02*
X178458809Y-100784819D01*
X178458809Y-100784819D02*
X178363571Y-101022914D01*
X178363571Y-101022914D02*
X178315952Y-101070533D01*
X178315952Y-101070533D02*
X178220714Y-101118152D01*
X179601666Y-100784819D02*
X179030238Y-100784819D01*
X179315952Y-100784819D02*
X179315952Y-99784819D01*
X179315952Y-99784819D02*
X179220714Y-99927676D01*
X179220714Y-99927676D02*
X179125476Y-100022914D01*
X179125476Y-100022914D02*
X179030238Y-100070533D01*
D12*
X139411901Y-118548428D02*
X138697615Y-118548428D01*
X138697615Y-118548428D02*
X138697615Y-117048428D01*
X140554759Y-118548428D02*
X140554759Y-117762714D01*
X140554759Y-117762714D02*
X140483330Y-117619857D01*
X140483330Y-117619857D02*
X140340473Y-117548428D01*
X140340473Y-117548428D02*
X140054759Y-117548428D01*
X140054759Y-117548428D02*
X139911901Y-117619857D01*
X140554759Y-118477000D02*
X140411901Y-118548428D01*
X140411901Y-118548428D02*
X140054759Y-118548428D01*
X140054759Y-118548428D02*
X139911901Y-118477000D01*
X139911901Y-118477000D02*
X139840473Y-118334142D01*
X139840473Y-118334142D02*
X139840473Y-118191285D01*
X139840473Y-118191285D02*
X139911901Y-118048428D01*
X139911901Y-118048428D02*
X140054759Y-117977000D01*
X140054759Y-117977000D02*
X140411901Y-117977000D01*
X140411901Y-117977000D02*
X140554759Y-117905571D01*
X141197616Y-118477000D02*
X141340473Y-118548428D01*
X141340473Y-118548428D02*
X141626187Y-118548428D01*
X141626187Y-118548428D02*
X141769044Y-118477000D01*
X141769044Y-118477000D02*
X141840473Y-118334142D01*
X141840473Y-118334142D02*
X141840473Y-118262714D01*
X141840473Y-118262714D02*
X141769044Y-118119857D01*
X141769044Y-118119857D02*
X141626187Y-118048428D01*
X141626187Y-118048428D02*
X141411902Y-118048428D01*
X141411902Y-118048428D02*
X141269044Y-117977000D01*
X141269044Y-117977000D02*
X141197616Y-117834142D01*
X141197616Y-117834142D02*
X141197616Y-117762714D01*
X141197616Y-117762714D02*
X141269044Y-117619857D01*
X141269044Y-117619857D02*
X141411902Y-117548428D01*
X141411902Y-117548428D02*
X141626187Y-117548428D01*
X141626187Y-117548428D02*
X141769044Y-117619857D01*
X143054759Y-118477000D02*
X142911902Y-118548428D01*
X142911902Y-118548428D02*
X142626188Y-118548428D01*
X142626188Y-118548428D02*
X142483330Y-118477000D01*
X142483330Y-118477000D02*
X142411902Y-118334142D01*
X142411902Y-118334142D02*
X142411902Y-117762714D01*
X142411902Y-117762714D02*
X142483330Y-117619857D01*
X142483330Y-117619857D02*
X142626188Y-117548428D01*
X142626188Y-117548428D02*
X142911902Y-117548428D01*
X142911902Y-117548428D02*
X143054759Y-117619857D01*
X143054759Y-117619857D02*
X143126188Y-117762714D01*
X143126188Y-117762714D02*
X143126188Y-117905571D01*
X143126188Y-117905571D02*
X142411902Y-118048428D01*
X143769044Y-118548428D02*
X143769044Y-117548428D01*
X143769044Y-117834142D02*
X143840473Y-117691285D01*
X143840473Y-117691285D02*
X143911902Y-117619857D01*
X143911902Y-117619857D02*
X144054759Y-117548428D01*
X144054759Y-117548428D02*
X144197616Y-117548428D01*
X144697615Y-117762714D02*
X145197615Y-117762714D01*
X145411901Y-118548428D02*
X144697615Y-118548428D01*
X144697615Y-118548428D02*
X144697615Y-117048428D01*
X144697615Y-117048428D02*
X145411901Y-117048428D01*
X146054758Y-117548428D02*
X146054758Y-118548428D01*
X146054758Y-117691285D02*
X146126187Y-117619857D01*
X146126187Y-117619857D02*
X146269044Y-117548428D01*
X146269044Y-117548428D02*
X146483330Y-117548428D01*
X146483330Y-117548428D02*
X146626187Y-117619857D01*
X146626187Y-117619857D02*
X146697616Y-117762714D01*
X146697616Y-117762714D02*
X146697616Y-118548428D01*
D11*
X137609819Y-109672381D02*
X137133628Y-110005714D01*
X137609819Y-110243809D02*
X136609819Y-110243809D01*
X136609819Y-110243809D02*
X136609819Y-109862857D01*
X136609819Y-109862857D02*
X136657438Y-109767619D01*
X136657438Y-109767619D02*
X136705057Y-109720000D01*
X136705057Y-109720000D02*
X136800295Y-109672381D01*
X136800295Y-109672381D02*
X136943152Y-109672381D01*
X136943152Y-109672381D02*
X137038390Y-109720000D01*
X137038390Y-109720000D02*
X137086009Y-109767619D01*
X137086009Y-109767619D02*
X137133628Y-109862857D01*
X137133628Y-109862857D02*
X137133628Y-110243809D01*
X136943152Y-109386666D02*
X136943152Y-109005714D01*
X136609819Y-109243809D02*
X137466961Y-109243809D01*
X137466961Y-109243809D02*
X137562200Y-109196190D01*
X137562200Y-109196190D02*
X137609819Y-109100952D01*
X137609819Y-109100952D02*
X137609819Y-109005714D01*
X136705057Y-108719999D02*
X136657438Y-108672380D01*
X136657438Y-108672380D02*
X136609819Y-108577142D01*
X136609819Y-108577142D02*
X136609819Y-108339047D01*
X136609819Y-108339047D02*
X136657438Y-108243809D01*
X136657438Y-108243809D02*
X136705057Y-108196190D01*
X136705057Y-108196190D02*
X136800295Y-108148571D01*
X136800295Y-108148571D02*
X136895533Y-108148571D01*
X136895533Y-108148571D02*
X137038390Y-108196190D01*
X137038390Y-108196190D02*
X137609819Y-108767618D01*
X137609819Y-108767618D02*
X137609819Y-108148571D01*
D12*
X154977330Y-84099857D02*
X154834473Y-84028428D01*
X154834473Y-84028428D02*
X154620187Y-84028428D01*
X154620187Y-84028428D02*
X154405901Y-84099857D01*
X154405901Y-84099857D02*
X154263044Y-84242714D01*
X154263044Y-84242714D02*
X154191615Y-84385571D01*
X154191615Y-84385571D02*
X154120187Y-84671285D01*
X154120187Y-84671285D02*
X154120187Y-84885571D01*
X154120187Y-84885571D02*
X154191615Y-85171285D01*
X154191615Y-85171285D02*
X154263044Y-85314142D01*
X154263044Y-85314142D02*
X154405901Y-85457000D01*
X154405901Y-85457000D02*
X154620187Y-85528428D01*
X154620187Y-85528428D02*
X154763044Y-85528428D01*
X154763044Y-85528428D02*
X154977330Y-85457000D01*
X154977330Y-85457000D02*
X155048758Y-85385571D01*
X155048758Y-85385571D02*
X155048758Y-84885571D01*
X155048758Y-84885571D02*
X154763044Y-84885571D01*
X155691615Y-85528428D02*
X155691615Y-84028428D01*
X155691615Y-84028428D02*
X156548758Y-85528428D01*
X156548758Y-85528428D02*
X156548758Y-84028428D01*
X157263044Y-85528428D02*
X157263044Y-84028428D01*
X157263044Y-84028428D02*
X157620187Y-84028428D01*
X157620187Y-84028428D02*
X157834473Y-84099857D01*
X157834473Y-84099857D02*
X157977330Y-84242714D01*
X157977330Y-84242714D02*
X158048759Y-84385571D01*
X158048759Y-84385571D02*
X158120187Y-84671285D01*
X158120187Y-84671285D02*
X158120187Y-84885571D01*
X158120187Y-84885571D02*
X158048759Y-85171285D01*
X158048759Y-85171285D02*
X157977330Y-85314142D01*
X157977330Y-85314142D02*
X157834473Y-85457000D01*
X157834473Y-85457000D02*
X157620187Y-85528428D01*
X157620187Y-85528428D02*
X157263044Y-85528428D01*
D11*
X173174819Y-111728095D02*
X172698628Y-112061428D01*
X173174819Y-112299523D02*
X172174819Y-112299523D01*
X172174819Y-112299523D02*
X172174819Y-111918571D01*
X172174819Y-111918571D02*
X172222438Y-111823333D01*
X172222438Y-111823333D02*
X172270057Y-111775714D01*
X172270057Y-111775714D02*
X172365295Y-111728095D01*
X172365295Y-111728095D02*
X172508152Y-111728095D01*
X172508152Y-111728095D02*
X172603390Y-111775714D01*
X172603390Y-111775714D02*
X172651009Y-111823333D01*
X172651009Y-111823333D02*
X172698628Y-111918571D01*
X172698628Y-111918571D02*
X172698628Y-112299523D01*
X173174819Y-110870952D02*
X172174819Y-110870952D01*
X173127200Y-110870952D02*
X173174819Y-110966190D01*
X173174819Y-110966190D02*
X173174819Y-111156666D01*
X173174819Y-111156666D02*
X173127200Y-111251904D01*
X173127200Y-111251904D02*
X173079580Y-111299523D01*
X173079580Y-111299523D02*
X172984342Y-111347142D01*
X172984342Y-111347142D02*
X172698628Y-111347142D01*
X172698628Y-111347142D02*
X172603390Y-111299523D01*
X172603390Y-111299523D02*
X172555771Y-111251904D01*
X172555771Y-111251904D02*
X172508152Y-111156666D01*
X172508152Y-111156666D02*
X172508152Y-110966190D01*
X172508152Y-110966190D02*
X172555771Y-110870952D01*
X173174819Y-110394761D02*
X172508152Y-110394761D01*
X172174819Y-110394761D02*
X172222438Y-110442380D01*
X172222438Y-110442380D02*
X172270057Y-110394761D01*
X172270057Y-110394761D02*
X172222438Y-110347142D01*
X172222438Y-110347142D02*
X172174819Y-110394761D01*
X172174819Y-110394761D02*
X172270057Y-110394761D01*
X172508152Y-110013809D02*
X173174819Y-109775714D01*
X173174819Y-109775714D02*
X172508152Y-109537619D01*
X172270057Y-109204285D02*
X172222438Y-109156666D01*
X172222438Y-109156666D02*
X172174819Y-109061428D01*
X172174819Y-109061428D02*
X172174819Y-108823333D01*
X172174819Y-108823333D02*
X172222438Y-108728095D01*
X172222438Y-108728095D02*
X172270057Y-108680476D01*
X172270057Y-108680476D02*
X172365295Y-108632857D01*
X172365295Y-108632857D02*
X172460533Y-108632857D01*
X172460533Y-108632857D02*
X172603390Y-108680476D01*
X172603390Y-108680476D02*
X173174819Y-109251904D01*
X173174819Y-109251904D02*
X173174819Y-108632857D01*
D12*
X162441615Y-84957000D02*
X163584473Y-84957000D01*
X163013044Y-85528428D02*
X163013044Y-84385571D01*
X164084473Y-84028428D02*
X164584473Y-85528428D01*
X164584473Y-85528428D02*
X165084473Y-84028428D01*
D11*
X150288809Y-103959819D02*
X150288809Y-102959819D01*
X150288809Y-102959819D02*
X150669761Y-102959819D01*
X150669761Y-102959819D02*
X150764999Y-103007438D01*
X150764999Y-103007438D02*
X150812618Y-103055057D01*
X150812618Y-103055057D02*
X150860237Y-103150295D01*
X150860237Y-103150295D02*
X150860237Y-103293152D01*
X150860237Y-103293152D02*
X150812618Y-103388390D01*
X150812618Y-103388390D02*
X150764999Y-103436009D01*
X150764999Y-103436009D02*
X150669761Y-103483628D01*
X150669761Y-103483628D02*
X150288809Y-103483628D01*
X151431666Y-103959819D02*
X151336428Y-103912200D01*
X151336428Y-103912200D02*
X151288809Y-103864580D01*
X151288809Y-103864580D02*
X151241190Y-103769342D01*
X151241190Y-103769342D02*
X151241190Y-103483628D01*
X151241190Y-103483628D02*
X151288809Y-103388390D01*
X151288809Y-103388390D02*
X151336428Y-103340771D01*
X151336428Y-103340771D02*
X151431666Y-103293152D01*
X151431666Y-103293152D02*
X151574523Y-103293152D01*
X151574523Y-103293152D02*
X151669761Y-103340771D01*
X151669761Y-103340771D02*
X151717380Y-103388390D01*
X151717380Y-103388390D02*
X151764999Y-103483628D01*
X151764999Y-103483628D02*
X151764999Y-103769342D01*
X151764999Y-103769342D02*
X151717380Y-103864580D01*
X151717380Y-103864580D02*
X151669761Y-103912200D01*
X151669761Y-103912200D02*
X151574523Y-103959819D01*
X151574523Y-103959819D02*
X151431666Y-103959819D01*
X152050714Y-103293152D02*
X152431666Y-103293152D01*
X152193571Y-102959819D02*
X152193571Y-103816961D01*
X152193571Y-103816961D02*
X152241190Y-103912200D01*
X152241190Y-103912200D02*
X152336428Y-103959819D01*
X152336428Y-103959819D02*
X152431666Y-103959819D01*
X152669762Y-102959819D02*
X153336428Y-103959819D01*
X153336428Y-102959819D02*
X152669762Y-103959819D01*
X157543571Y-96974819D02*
X157210238Y-96498628D01*
X156972143Y-96974819D02*
X156972143Y-95974819D01*
X156972143Y-95974819D02*
X157353095Y-95974819D01*
X157353095Y-95974819D02*
X157448333Y-96022438D01*
X157448333Y-96022438D02*
X157495952Y-96070057D01*
X157495952Y-96070057D02*
X157543571Y-96165295D01*
X157543571Y-96165295D02*
X157543571Y-96308152D01*
X157543571Y-96308152D02*
X157495952Y-96403390D01*
X157495952Y-96403390D02*
X157448333Y-96451009D01*
X157448333Y-96451009D02*
X157353095Y-96498628D01*
X157353095Y-96498628D02*
X156972143Y-96498628D01*
X157876905Y-96974819D02*
X158400714Y-96308152D01*
X157876905Y-96308152D02*
X158400714Y-96974819D01*
X158734048Y-96070057D02*
X158781667Y-96022438D01*
X158781667Y-96022438D02*
X158876905Y-95974819D01*
X158876905Y-95974819D02*
X159115000Y-95974819D01*
X159115000Y-95974819D02*
X159210238Y-96022438D01*
X159210238Y-96022438D02*
X159257857Y-96070057D01*
X159257857Y-96070057D02*
X159305476Y-96165295D01*
X159305476Y-96165295D02*
X159305476Y-96260533D01*
X159305476Y-96260533D02*
X159257857Y-96403390D01*
X159257857Y-96403390D02*
X158686429Y-96974819D01*
X158686429Y-96974819D02*
X159305476Y-96974819D01*
D12*
X187684142Y-99522669D02*
X188398428Y-99522669D01*
X186898428Y-100022669D02*
X187684142Y-99522669D01*
X187684142Y-99522669D02*
X186898428Y-99022669D01*
X188541285Y-98879813D02*
X188541285Y-97736955D01*
X186898428Y-97094098D02*
X186898428Y-96808384D01*
X186898428Y-96808384D02*
X186969857Y-96665527D01*
X186969857Y-96665527D02*
X187112714Y-96522670D01*
X187112714Y-96522670D02*
X187398428Y-96451241D01*
X187398428Y-96451241D02*
X187898428Y-96451241D01*
X187898428Y-96451241D02*
X188184142Y-96522670D01*
X188184142Y-96522670D02*
X188327000Y-96665527D01*
X188327000Y-96665527D02*
X188398428Y-96808384D01*
X188398428Y-96808384D02*
X188398428Y-97094098D01*
X188398428Y-97094098D02*
X188327000Y-97236956D01*
X188327000Y-97236956D02*
X188184142Y-97379813D01*
X188184142Y-97379813D02*
X187898428Y-97451241D01*
X187898428Y-97451241D02*
X187398428Y-97451241D01*
X187398428Y-97451241D02*
X187112714Y-97379813D01*
X187112714Y-97379813D02*
X186969857Y-97236956D01*
X186969857Y-97236956D02*
X186898428Y-97094098D01*
X187398428Y-95165527D02*
X188398428Y-95165527D01*
X187398428Y-95808384D02*
X188184142Y-95808384D01*
X188184142Y-95808384D02*
X188327000Y-95736955D01*
X188327000Y-95736955D02*
X188398428Y-95594098D01*
X188398428Y-95594098D02*
X188398428Y-95379812D01*
X188398428Y-95379812D02*
X188327000Y-95236955D01*
X188327000Y-95236955D02*
X188255571Y-95165527D01*
X187398428Y-94665526D02*
X187398428Y-94094098D01*
X186898428Y-94451241D02*
X188184142Y-94451241D01*
X188184142Y-94451241D02*
X188327000Y-94379812D01*
X188327000Y-94379812D02*
X188398428Y-94236955D01*
X188398428Y-94236955D02*
X188398428Y-94094098D01*
X139665901Y-85528428D02*
X138951615Y-85528428D01*
X138951615Y-85528428D02*
X138951615Y-84028428D01*
X140808759Y-85528428D02*
X140808759Y-84742714D01*
X140808759Y-84742714D02*
X140737330Y-84599857D01*
X140737330Y-84599857D02*
X140594473Y-84528428D01*
X140594473Y-84528428D02*
X140308759Y-84528428D01*
X140308759Y-84528428D02*
X140165901Y-84599857D01*
X140808759Y-85457000D02*
X140665901Y-85528428D01*
X140665901Y-85528428D02*
X140308759Y-85528428D01*
X140308759Y-85528428D02*
X140165901Y-85457000D01*
X140165901Y-85457000D02*
X140094473Y-85314142D01*
X140094473Y-85314142D02*
X140094473Y-85171285D01*
X140094473Y-85171285D02*
X140165901Y-85028428D01*
X140165901Y-85028428D02*
X140308759Y-84957000D01*
X140308759Y-84957000D02*
X140665901Y-84957000D01*
X140665901Y-84957000D02*
X140808759Y-84885571D01*
X141451616Y-85457000D02*
X141594473Y-85528428D01*
X141594473Y-85528428D02*
X141880187Y-85528428D01*
X141880187Y-85528428D02*
X142023044Y-85457000D01*
X142023044Y-85457000D02*
X142094473Y-85314142D01*
X142094473Y-85314142D02*
X142094473Y-85242714D01*
X142094473Y-85242714D02*
X142023044Y-85099857D01*
X142023044Y-85099857D02*
X141880187Y-85028428D01*
X141880187Y-85028428D02*
X141665902Y-85028428D01*
X141665902Y-85028428D02*
X141523044Y-84957000D01*
X141523044Y-84957000D02*
X141451616Y-84814142D01*
X141451616Y-84814142D02*
X141451616Y-84742714D01*
X141451616Y-84742714D02*
X141523044Y-84599857D01*
X141523044Y-84599857D02*
X141665902Y-84528428D01*
X141665902Y-84528428D02*
X141880187Y-84528428D01*
X141880187Y-84528428D02*
X142023044Y-84599857D01*
X143308759Y-85457000D02*
X143165902Y-85528428D01*
X143165902Y-85528428D02*
X142880188Y-85528428D01*
X142880188Y-85528428D02*
X142737330Y-85457000D01*
X142737330Y-85457000D02*
X142665902Y-85314142D01*
X142665902Y-85314142D02*
X142665902Y-84742714D01*
X142665902Y-84742714D02*
X142737330Y-84599857D01*
X142737330Y-84599857D02*
X142880188Y-84528428D01*
X142880188Y-84528428D02*
X143165902Y-84528428D01*
X143165902Y-84528428D02*
X143308759Y-84599857D01*
X143308759Y-84599857D02*
X143380188Y-84742714D01*
X143380188Y-84742714D02*
X143380188Y-84885571D01*
X143380188Y-84885571D02*
X142665902Y-85028428D01*
X144023044Y-85528428D02*
X144023044Y-84528428D01*
X144023044Y-84814142D02*
X144094473Y-84671285D01*
X144094473Y-84671285D02*
X144165902Y-84599857D01*
X144165902Y-84599857D02*
X144308759Y-84528428D01*
X144308759Y-84528428D02*
X144451616Y-84528428D01*
D11*
X146994523Y-95609580D02*
X146946904Y-95657200D01*
X146946904Y-95657200D02*
X146804047Y-95704819D01*
X146804047Y-95704819D02*
X146708809Y-95704819D01*
X146708809Y-95704819D02*
X146565952Y-95657200D01*
X146565952Y-95657200D02*
X146470714Y-95561961D01*
X146470714Y-95561961D02*
X146423095Y-95466723D01*
X146423095Y-95466723D02*
X146375476Y-95276247D01*
X146375476Y-95276247D02*
X146375476Y-95133390D01*
X146375476Y-95133390D02*
X146423095Y-94942914D01*
X146423095Y-94942914D02*
X146470714Y-94847676D01*
X146470714Y-94847676D02*
X146565952Y-94752438D01*
X146565952Y-94752438D02*
X146708809Y-94704819D01*
X146708809Y-94704819D02*
X146804047Y-94704819D01*
X146804047Y-94704819D02*
X146946904Y-94752438D01*
X146946904Y-94752438D02*
X146994523Y-94800057D01*
X143959819Y-109672381D02*
X143483628Y-110005714D01*
X143959819Y-110243809D02*
X142959819Y-110243809D01*
X142959819Y-110243809D02*
X142959819Y-109862857D01*
X142959819Y-109862857D02*
X143007438Y-109767619D01*
X143007438Y-109767619D02*
X143055057Y-109720000D01*
X143055057Y-109720000D02*
X143150295Y-109672381D01*
X143150295Y-109672381D02*
X143293152Y-109672381D01*
X143293152Y-109672381D02*
X143388390Y-109720000D01*
X143388390Y-109720000D02*
X143436009Y-109767619D01*
X143436009Y-109767619D02*
X143483628Y-109862857D01*
X143483628Y-109862857D02*
X143483628Y-110243809D01*
X143293152Y-109386666D02*
X143293152Y-109005714D01*
X142959819Y-109243809D02*
X143816961Y-109243809D01*
X143816961Y-109243809D02*
X143912200Y-109196190D01*
X143912200Y-109196190D02*
X143959819Y-109100952D01*
X143959819Y-109100952D02*
X143959819Y-109005714D01*
X143959819Y-108148571D02*
X143959819Y-108719999D01*
X143959819Y-108434285D02*
X142959819Y-108434285D01*
X142959819Y-108434285D02*
X143102676Y-108529523D01*
X143102676Y-108529523D02*
X143197914Y-108624761D01*
X143197914Y-108624761D02*
X143245533Y-108719999D01*
X139715923Y-98879819D02*
X139239733Y-98879819D01*
X139239733Y-98879819D02*
X139239733Y-97879819D01*
X140049257Y-98879819D02*
X140049257Y-97879819D01*
X140049257Y-97879819D02*
X140382590Y-98594104D01*
X140382590Y-98594104D02*
X140715923Y-97879819D01*
X140715923Y-97879819D02*
X140715923Y-98879819D01*
X141096876Y-97879819D02*
X141715923Y-97879819D01*
X141715923Y-97879819D02*
X141382590Y-98260771D01*
X141382590Y-98260771D02*
X141525447Y-98260771D01*
X141525447Y-98260771D02*
X141620685Y-98308390D01*
X141620685Y-98308390D02*
X141668304Y-98356009D01*
X141668304Y-98356009D02*
X141715923Y-98451247D01*
X141715923Y-98451247D02*
X141715923Y-98689342D01*
X141715923Y-98689342D02*
X141668304Y-98784580D01*
X141668304Y-98784580D02*
X141620685Y-98832200D01*
X141620685Y-98832200D02*
X141525447Y-98879819D01*
X141525447Y-98879819D02*
X141239733Y-98879819D01*
X141239733Y-98879819D02*
X141144495Y-98832200D01*
X141144495Y-98832200D02*
X141096876Y-98784580D01*
X142668304Y-98879819D02*
X142096876Y-98879819D01*
X142382590Y-98879819D02*
X142382590Y-97879819D01*
X142382590Y-97879819D02*
X142287352Y-98022676D01*
X142287352Y-98022676D02*
X142192114Y-98117914D01*
X142192114Y-98117914D02*
X142096876Y-98165533D01*
X143001638Y-97879819D02*
X143668304Y-97879819D01*
X143668304Y-97879819D02*
X143239733Y-98879819D01*
X177892380Y-93164819D02*
X177559047Y-92688628D01*
X177320952Y-93164819D02*
X177320952Y-92164819D01*
X177320952Y-92164819D02*
X177701904Y-92164819D01*
X177701904Y-92164819D02*
X177797142Y-92212438D01*
X177797142Y-92212438D02*
X177844761Y-92260057D01*
X177844761Y-92260057D02*
X177892380Y-92355295D01*
X177892380Y-92355295D02*
X177892380Y-92498152D01*
X177892380Y-92498152D02*
X177844761Y-92593390D01*
X177844761Y-92593390D02*
X177797142Y-92641009D01*
X177797142Y-92641009D02*
X177701904Y-92688628D01*
X177701904Y-92688628D02*
X177320952Y-92688628D01*
X178225714Y-92498152D02*
X178463809Y-93164819D01*
X178701904Y-92498152D02*
X178463809Y-93164819D01*
X178463809Y-93164819D02*
X178368571Y-93402914D01*
X178368571Y-93402914D02*
X178320952Y-93450533D01*
X178320952Y-93450533D02*
X178225714Y-93498152D01*
X178987619Y-92164819D02*
X179606666Y-92164819D01*
X179606666Y-92164819D02*
X179273333Y-92545771D01*
X179273333Y-92545771D02*
X179416190Y-92545771D01*
X179416190Y-92545771D02*
X179511428Y-92593390D01*
X179511428Y-92593390D02*
X179559047Y-92641009D01*
X179559047Y-92641009D02*
X179606666Y-92736247D01*
X179606666Y-92736247D02*
X179606666Y-92974342D01*
X179606666Y-92974342D02*
X179559047Y-93069580D01*
X179559047Y-93069580D02*
X179511428Y-93117200D01*
X179511428Y-93117200D02*
X179416190Y-93164819D01*
X179416190Y-93164819D02*
X179130476Y-93164819D01*
X179130476Y-93164819D02*
X179035238Y-93117200D01*
X179035238Y-93117200D02*
X178987619Y-93069580D01*
D12*
X179742330Y-84099857D02*
X179599473Y-84028428D01*
X179599473Y-84028428D02*
X179385187Y-84028428D01*
X179385187Y-84028428D02*
X179170901Y-84099857D01*
X179170901Y-84099857D02*
X179028044Y-84242714D01*
X179028044Y-84242714D02*
X178956615Y-84385571D01*
X178956615Y-84385571D02*
X178885187Y-84671285D01*
X178885187Y-84671285D02*
X178885187Y-84885571D01*
X178885187Y-84885571D02*
X178956615Y-85171285D01*
X178956615Y-85171285D02*
X179028044Y-85314142D01*
X179028044Y-85314142D02*
X179170901Y-85457000D01*
X179170901Y-85457000D02*
X179385187Y-85528428D01*
X179385187Y-85528428D02*
X179528044Y-85528428D01*
X179528044Y-85528428D02*
X179742330Y-85457000D01*
X179742330Y-85457000D02*
X179813758Y-85385571D01*
X179813758Y-85385571D02*
X179813758Y-84885571D01*
X179813758Y-84885571D02*
X179528044Y-84885571D01*
X180456615Y-85528428D02*
X180456615Y-84028428D01*
X180456615Y-84028428D02*
X181313758Y-85528428D01*
X181313758Y-85528428D02*
X181313758Y-84028428D01*
X182028044Y-85528428D02*
X182028044Y-84028428D01*
X182028044Y-84028428D02*
X182385187Y-84028428D01*
X182385187Y-84028428D02*
X182599473Y-84099857D01*
X182599473Y-84099857D02*
X182742330Y-84242714D01*
X182742330Y-84242714D02*
X182813759Y-84385571D01*
X182813759Y-84385571D02*
X182885187Y-84671285D01*
X182885187Y-84671285D02*
X182885187Y-84885571D01*
X182885187Y-84885571D02*
X182813759Y-85171285D01*
X182813759Y-85171285D02*
X182742330Y-85314142D01*
X182742330Y-85314142D02*
X182599473Y-85457000D01*
X182599473Y-85457000D02*
X182385187Y-85528428D01*
X182385187Y-85528428D02*
X182028044Y-85528428D01*
D13*
%TO.C,${VALUE}*%
X137465000Y-91440000D02*
X138415000Y-91440000D01*
X143205000Y-91440000D02*
X142255000Y-91440000D01*
X138415000Y-90520000D02*
X142255000Y-90520000D01*
X142255000Y-92360000D01*
X138415000Y-92360000D01*
X138415000Y-90520000D01*
%TO.C,Rx3*%
X155245000Y-94615000D02*
X156195000Y-94615000D01*
X160985000Y-94615000D02*
X160035000Y-94615000D01*
X156195000Y-93695000D02*
X160035000Y-93695000D01*
X160035000Y-95535000D01*
X156195000Y-95535000D01*
X156195000Y-93695000D01*
%TO.C,Ry2*%
X175565000Y-98425000D02*
X176515000Y-98425000D01*
X181305000Y-98425000D02*
X180355000Y-98425000D01*
X176515000Y-97505000D02*
X180355000Y-97505000D01*
X180355000Y-99345000D01*
X176515000Y-99345000D01*
X176515000Y-97505000D01*
%TO.C,Rx1*%
X155245000Y-102235000D02*
X156195000Y-102235000D01*
X160985000Y-102235000D02*
X160035000Y-102235000D01*
X156195000Y-101315000D02*
X160035000Y-101315000D01*
X160035000Y-103155000D01*
X156195000Y-103155000D01*
X156195000Y-101315000D01*
%TO.C,${VALUE}*%
X165630000Y-92650000D02*
X165630000Y-110550000D01*
X165630000Y-110550000D02*
X170930000Y-110550000D01*
X167280000Y-92650000D02*
X165630000Y-92650000D01*
X170930000Y-92650000D02*
X169280000Y-92650000D01*
X170930000Y-110550000D02*
X170930000Y-92650000D01*
X169280000Y-92650000D02*
G75*
G02*
X167280000Y-92650000I-1000000J0D01*
G01*
%TO.C,-15V1*%
D14*
X173985000Y-91440000D02*
X171445000Y-91440000D01*
X171445000Y-86360000D01*
X173985000Y-86360000D01*
X173985000Y-91440000D01*
%TO.C,PotY1*%
X175895000Y-114300000D02*
X186055000Y-114300000D01*
X186055000Y-104140000D01*
X175895000Y-104140000D01*
X175895000Y-114300000D01*
X177165000Y-116840000D02*
X179705000Y-116840000D01*
X179705000Y-114300000D01*
X177165000Y-114300000D01*
X177165000Y-116840000D01*
X182245000Y-116840000D02*
X184785000Y-116840000D01*
X184785000Y-114300000D01*
X182245000Y-114300000D01*
X182245000Y-116840000D01*
X183515000Y-109220000D02*
G75*
G02*
X178435000Y-109220000I-2540000J0D01*
G01*
X178435000Y-109220000D02*
G75*
G02*
X183515000Y-109220000I2540000J0D01*
G01*
D13*
%TO.C,Rdiv1*%
X161925000Y-106985000D02*
X161925000Y-107935000D01*
X161925000Y-112725000D02*
X161925000Y-111775000D01*
X161005000Y-111775000D02*
X162845000Y-111775000D01*
X162845000Y-107935000D01*
X161005000Y-107935000D01*
X161005000Y-111775000D01*
%TO.C,${VALUE}*%
X137110000Y-103115000D02*
X140960000Y-103115000D01*
X136693600Y-100316193D02*
G75*
G02*
X139050000Y-98815000I2356400J-1098807D01*
G01*
X137110000Y-103115000D02*
G75*
G02*
X136727369Y-102537045I1940000J1700000D01*
G01*
X139050000Y-98815000D02*
G75*
G02*
X141406400Y-100316193I0J-2600000D01*
G01*
X141352383Y-102527264D02*
G75*
G02*
X140960000Y-103115000I-2302383J1112264D01*
G01*
%TO.C,XY_Input1*%
D14*
X172080000Y-112395000D02*
X164460000Y-112395000D01*
X164460000Y-114935000D01*
X172080000Y-114935000D01*
X172080000Y-112395000D01*
%TO.C,X_Output1*%
X153035000Y-100965000D02*
X150495000Y-100965000D01*
X150495000Y-93345000D01*
X153035000Y-93345000D01*
X153035000Y-100965000D01*
D13*
%TO.C,Ry1*%
X175565000Y-102235000D02*
X176515000Y-102235000D01*
X181305000Y-102235000D02*
X180355000Y-102235000D01*
X180355000Y-103155000D02*
X176515000Y-103155000D01*
X176515000Y-101315000D01*
X180355000Y-101315000D01*
X180355000Y-103155000D01*
%TO.C,LaserEn1*%
D14*
X140335000Y-114300000D02*
X142875000Y-114300000D01*
X142875000Y-116840000D01*
X140335000Y-116840000D01*
X140335000Y-114300000D01*
D13*
%TO.C,Rt2*%
X141600000Y-106350000D02*
X141600000Y-107300000D01*
X141600000Y-112090000D02*
X141600000Y-111140000D01*
X142520000Y-107300000D02*
X140680000Y-107300000D01*
X140680000Y-111140000D01*
X142520000Y-111140000D01*
X142520000Y-107300000D01*
%TO.C,GND2*%
D14*
X156210000Y-91440000D02*
X153670000Y-91440000D01*
X153670000Y-86360000D01*
X156210000Y-86360000D01*
X156210000Y-91440000D01*
D13*
%TO.C,Rdiv2*%
X174625000Y-106985000D02*
X174625000Y-107935000D01*
X174625000Y-112725000D02*
X174625000Y-111775000D01*
X175545000Y-107935000D02*
X173705000Y-107935000D01*
X173705000Y-111775000D01*
X175545000Y-111775000D01*
X175545000Y-107935000D01*
%TO.C,+15V1*%
D14*
X162555000Y-86360000D02*
X165095000Y-86360000D01*
X165095000Y-91440000D01*
X162555000Y-91440000D01*
X162555000Y-86360000D01*
%TO.C,PotX1*%
X150495000Y-114300000D02*
X160655000Y-114300000D01*
X160655000Y-104140000D01*
X150495000Y-104140000D01*
X150495000Y-114300000D01*
X151765000Y-116840000D02*
X154305000Y-116840000D01*
X154305000Y-114300000D01*
X151765000Y-114300000D01*
X151765000Y-116840000D01*
X156845000Y-116840000D02*
X159385000Y-116840000D01*
X159385000Y-114300000D01*
X156845000Y-114300000D01*
X156845000Y-116840000D01*
X158115000Y-109220000D02*
G75*
G02*
X153035000Y-109220000I-2540000J0D01*
G01*
X153035000Y-109220000D02*
G75*
G02*
X158115000Y-109220000I2540000J0D01*
G01*
D13*
%TO.C,Rx2*%
X155245000Y-98425000D02*
X156195000Y-98425000D01*
X160985000Y-98425000D02*
X160035000Y-98425000D01*
X160035000Y-99345000D02*
X156195000Y-99345000D01*
X156195000Y-97505000D01*
X160035000Y-97505000D01*
X160035000Y-99345000D01*
%TO.C,Y_Output1*%
D14*
X183515000Y-93345000D02*
X186055000Y-93345000D01*
X186055000Y-100965000D01*
X183515000Y-100965000D01*
X183515000Y-93345000D01*
%TO.C,Laser1*%
X144145000Y-86360000D02*
X139065000Y-86360000D01*
X139065000Y-88900000D01*
X144145000Y-88900000D01*
X144145000Y-86360000D01*
D13*
%TO.C,C*%
X145410000Y-94920000D02*
X145410000Y-95870000D01*
X145410000Y-100660000D02*
X145410000Y-99710000D01*
X146330000Y-95870000D02*
X144490000Y-95870000D01*
X144490000Y-99710000D01*
X146330000Y-99710000D01*
X146330000Y-95870000D01*
%TO.C,Rt1*%
X139060000Y-106350000D02*
X139060000Y-107300000D01*
X139060000Y-112090000D02*
X139060000Y-111140000D01*
X139980000Y-107300000D02*
X138140000Y-107300000D01*
X138140000Y-111140000D01*
X139980000Y-111140000D01*
X139980000Y-107300000D01*
%TO.C,LM317*%
X133950000Y-92940000D02*
X144170000Y-92940000D01*
X133950000Y-94320000D02*
X144170000Y-94320000D01*
X133950000Y-97560000D02*
X133950000Y-92940000D01*
X137210000Y-92940000D02*
X137210000Y-94320000D01*
X140910000Y-92940000D02*
X140910000Y-94320000D01*
X144170000Y-92940000D02*
X144170000Y-97560000D01*
X144170000Y-97560000D02*
X133950000Y-97560000D01*
%TO.C,Ry3*%
X175565000Y-94615000D02*
X176515000Y-94615000D01*
X181305000Y-94615000D02*
X180355000Y-94615000D01*
X180355000Y-95535000D02*
X176515000Y-95535000D01*
X176515000Y-93695000D01*
X180355000Y-93695000D01*
X180355000Y-95535000D01*
%TO.C,GND1*%
D14*
X180340000Y-86360000D02*
X182880000Y-86360000D01*
X182880000Y-91440000D01*
X180340000Y-91440000D01*
X180340000Y-86360000D01*
%TD*%
M02*
