M48
; DRILL file {KiCad 9.0.4} date 2025-10-10T13:19:20-0400
; FORMAT={-:-/ absolute / metric / decimal}
; #@! TF.CreationDate,2025-10-10T13:19:20-04:00
; #@! TF.GenerationSoftware,Kicad,Pcbnew,9.0.4
; #@! TF.FileFunction,Plated,1,2,PTH
FMAT,2
METRIC
; #@! TA.AperFunction,Plated,PTH,ComponentDrill
T1C0.700
; #@! TA.AperFunction,Plated,PTH,ComponentDrill
T2C0.800
; #@! TA.AperFunction,Plated,PTH,ComponentDrill
T3C1.000
; #@! TA.AperFunction,Plated,PTH,ComponentDrill
T4C1.100
%
G90
G05
T1
X136.525Y-91.44
X139.06Y-105.41
X139.06Y-113.03
X141.6Y-105.41
X141.6Y-113.03
X144.145Y-91.44
X145.41Y-93.98
X145.41Y-101.6
X154.305Y-94.615
X154.305Y-98.425
X154.305Y-102.235
X161.925Y-94.615
X161.925Y-98.425
X161.925Y-102.235
X161.925Y-106.045
X161.925Y-113.665
X174.625Y-94.615
X174.625Y-98.425
X174.625Y-102.235
X174.625Y-106.045
X174.625Y-113.665
X182.245Y-94.615
X182.245Y-98.425
X182.245Y-102.235
T2
X136.51Y-101.415
X139.05Y-101.415
X141.59Y-101.415
X164.47Y-93.98
X164.47Y-96.52
X164.47Y-99.06
X164.47Y-101.6
X164.47Y-104.14
X164.47Y-106.68
X164.47Y-109.22
X172.09Y-93.98
X172.09Y-96.52
X172.09Y-99.06
X172.09Y-101.6
X172.09Y-104.14
X172.09Y-106.68
X172.09Y-109.22
T3
X140.335Y-87.63
X141.605Y-115.57
X142.875Y-87.63
X151.765Y-94.615
X151.765Y-97.155
X151.765Y-99.695
X153.035Y-115.57
X154.94Y-87.63
X154.94Y-90.17
X155.575Y-105.41
X158.115Y-115.57
X163.825Y-87.63
X163.825Y-90.17
X165.73Y-113.665
X168.27Y-113.665
X170.81Y-113.665
X172.715Y-87.63
X172.715Y-90.17
X178.435Y-115.57
X180.975Y-105.41
X181.61Y-87.63
X181.61Y-90.17
X183.515Y-115.57
X184.785Y-94.615
X184.785Y-97.155
X184.785Y-99.695
T4
X136.52Y-96.2
X139.06Y-96.2
X141.6Y-96.2
M30
